{"glyphs":{"0":{"ha":884,"x_min":53,"x_max":831,"o":"m 831 505 q 810 276 831 374 q 743 112 789 178 q 623 13 697 46 q 442 -21 549 -21 q 262 13 336 -21 q 141 113 188 46 q 74 277 95 180 q 53 505 53 374 q 74 734 53 639 q 142 897 94 829 q 264 997 190 964 q 442 1030 339 1030 q 624 996 551 1030 q 744 894 697 962 q 811 730 790 827 q 831 505 831 632 m 577 505 q 546 768 577 692 q 442 844 515 844 q 338 768 370 844 q 307 504 307 692 q 338 242 307 319 q 442 165 370 165 q 546 242 515 165 q 577 505 577 319 z "},"1":{"ha":884,"x_min":132,"x_max":800,"o":"m 800 0 l 132 0 l 132 176 l 345 176 l 345 710 l 132 710 l 132 875 q 225 881 179 875 q 299 901 271 887 q 350 944 332 917 q 370 1013 368 972 l 591 1013 l 591 176 l 800 176 l 800 0 z "},"2":{"ha":884,"x_min":102,"x_max":844,"o":"m 844 0 l 102 0 l 102 165 q 272 306 197 239 q 404 432 347 372 q 511 569 477 510 q 544 690 544 628 q 502 799 544 761 q 385 836 460 836 q 312 827 346 836 q 242 802 277 817 q 183 770 208 787 q 146 746 159 754 l 127 746 l 127 966 q 260 1008 170 987 q 435 1029 351 1029 q 708 949 615 1029 q 800 724 800 869 q 758 549 800 635 q 618 365 716 463 q 500 257 557 304 q 416 191 442 210 l 844 191 l 844 0 z "},"3":{"ha":884,"x_min":70,"x_max":819,"o":"m 819 306 q 792 171 819 232 q 711 67 764 110 q 586 2 658 24 q 410 -21 513 -21 q 207 -1 292 -21 q 70 43 123 18 l 70 262 l 94 262 q 225 201 150 227 q 361 175 300 175 q 441 181 398 175 q 513 210 484 188 q 550 251 536 227 q 564 321 564 276 q 545 390 564 366 q 492 425 525 414 q 414 438 460 437 q 334 439 369 439 l 291 439 l 291 617 l 331 617 q 416 621 377 617 q 481 637 454 625 q 524 673 509 650 q 539 736 539 696 q 525 786 539 766 q 490 816 511 805 q 433 832 465 828 q 377 836 400 836 q 301 827 340 836 q 226 805 262 819 q 166 777 197 794 q 120 751 135 760 l 99 751 l 99 967 q 240 1010 151 989 q 420 1031 328 1031 q 577 1015 511 1031 q 690 970 643 1000 q 767 889 741 938 q 793 778 793 840 q 743 627 793 692 q 612 543 693 562 l 612 534 q 682 515 648 528 q 749 473 716 503 q 799 405 779 447 q 819 306 819 363 z "},"4":{"ha":884,"x_min":31,"x_max":856,"o":"m 856 235 l 720 235 l 720 -3 l 475 -3 l 475 235 l 31 235 l 31 424 l 467 1010 l 720 1010 l 720 417 l 856 417 l 856 235 m 475 417 l 475 761 l 219 417 l 475 417 z "},"5":{"ha":884,"x_min":81,"x_max":821,"o":"m 821 342 q 794 196 821 263 q 714 80 768 129 q 588 5 661 32 q 409 -21 515 -21 q 215 -2 296 -20 q 81 40 134 17 l 81 260 l 104 260 q 147 236 123 250 q 210 208 171 222 q 282 184 245 193 q 365 175 319 175 q 450 185 404 175 q 523 220 495 195 q 555 266 543 241 q 566 333 566 291 q 552 394 566 368 q 513 435 537 419 q 430 464 479 458 q 346 471 381 471 q 238 462 290 471 q 146 443 185 453 l 125 443 l 125 1010 l 793 1010 l 793 819 l 364 819 l 364 651 q 413 653 385 652 q 456 654 441 654 q 591 640 529 654 q 700 595 652 625 q 789 495 758 557 q 821 342 821 432 z "},"6":{"ha":884,"x_min":66,"x_max":838,"o":"m 838 344 q 737 82 838 184 q 460 -21 636 -21 q 302 4 372 -21 q 185 79 233 30 q 97 230 127 138 q 66 450 66 322 q 95 686 66 583 q 188 869 123 789 q 349 986 250 944 q 585 1029 449 1029 q 685 1022 635 1029 q 753 1012 734 1016 l 753 813 l 734 813 q 676 833 717 822 q 583 844 635 844 q 400 782 465 844 q 321 603 336 720 q 421 654 370 635 q 537 673 473 673 q 639 658 591 673 q 724 616 687 644 q 807 511 777 576 q 838 344 838 446 m 544 191 q 574 244 564 216 q 585 332 585 273 q 572 412 585 380 q 538 463 560 444 q 487 489 515 482 q 427 496 458 496 q 372 490 400 496 q 319 473 344 483 q 319 450 319 466 q 318 411 318 435 q 333 271 318 324 q 372 191 349 218 q 412 160 389 170 q 460 151 435 151 q 504 161 480 151 q 544 191 528 171 z "},"7":{"ha":884,"x_min":79,"x_max":822,"o":"m 822 809 l 392 0 l 110 0 l 561 819 l 79 819 l 79 1010 l 822 1010 l 822 809 z "},"8":{"ha":884,"x_min":43,"x_max":842,"o":"m 842 281 q 815 160 842 216 q 736 64 788 104 q 611 0 685 23 q 441 -23 536 -23 q 262 0 339 -23 q 137 64 186 24 q 66 158 89 104 q 43 273 43 212 q 91 417 43 359 q 229 513 138 475 l 229 517 q 105 623 140 561 q 70 760 70 684 q 94 865 70 816 q 168 952 119 913 q 284 1011 214 989 q 444 1033 355 1033 q 607 1013 537 1033 q 721 960 676 993 q 791 880 767 927 q 816 778 816 833 q 774 648 816 706 q 646 551 732 590 l 646 547 q 794 440 747 506 q 842 281 842 374 m 570 748 q 536 830 570 800 q 444 861 503 861 q 354 833 389 861 q 320 765 320 806 q 341 700 320 724 q 405 654 361 675 q 450 634 424 644 q 519 608 476 624 q 558 674 546 642 q 570 748 570 707 m 591 271 q 570 347 591 320 q 480 406 549 373 q 424 430 460 416 q 358 456 387 444 q 311 391 332 430 q 290 305 290 352 q 335 193 290 235 q 453 151 380 151 q 498 157 473 151 q 543 177 524 163 q 578 214 565 193 q 591 271 591 235 z "},"9":{"ha":884,"x_min":46,"x_max":818,"o":"m 818 562 q 788 326 818 433 q 695 142 758 218 q 533 22 630 64 q 296 -20 437 -20 q 197 -14 249 -20 q 129 -3 146 -7 l 129 196 l 149 196 q 202 176 168 186 q 299 165 237 165 q 395 178 349 165 q 474 220 441 191 q 532 294 509 250 q 563 406 555 339 q 462 354 509 372 q 347 336 416 336 q 247 350 294 336 q 159 393 199 364 q 77 498 107 434 q 46 664 46 562 q 73 809 46 743 q 149 926 100 876 q 269 1002 198 975 q 428 1030 340 1030 q 585 1005 516 1030 q 702 930 653 981 q 788 781 759 872 q 818 562 818 690 m 567 600 q 553 735 567 682 q 514 818 539 788 q 474 849 496 840 q 427 859 452 859 q 383 849 404 859 q 342 818 361 840 q 312 760 324 798 q 300 677 300 722 q 312 596 300 628 q 347 546 325 565 q 396 520 368 528 q 458 513 424 513 q 516 520 486 513 q 565 536 547 528 q 566 558 565 544 q 567 600 567 572 z "}," ":{"ha":407,"x_min":0,"x_max":0,"o":""},"!":{"ha":476,"x_min":103,"x_max":373,"o":"m 373 1010 l 345 291 l 131 291 l 103 1010 l 373 1010 m 372 0 l 104 0 l 104 179 l 372 179 l 372 0 z "},"\"":{"ha":680,"x_min":86,"x_max":593,"o":"m 593 1055 l 552 656 l 412 656 l 372 1055 l 593 1055 m 307 1055 l 267 656 l 127 656 l 86 1055 l 307 1055 z "},"#":{"ha":1137,"x_min":85,"x_max":1052,"o":"m 1052 619 l 846 619 l 789 397 l 973 397 l 973 241 l 750 241 l 689 0 l 532 0 l 592 241 l 420 241 l 359 0 l 200 0 l 260 241 l 85 241 l 85 397 l 300 397 l 355 619 l 164 619 l 164 775 l 394 775 l 453 1010 l 613 1010 l 554 775 l 726 775 l 785 1010 l 945 1010 l 885 775 l 1052 775 l 1052 619 m 689 621 l 514 621 l 457 395 l 632 395 l 689 621 z "},"$":{"ha":884,"x_min":65,"x_max":831,"o":"m 831 291 q 808 183 831 234 q 742 94 784 132 q 637 30 699 56 q 498 1 576 5 l 498 -245 l 387 -245 l 387 -3 q 224 16 314 -2 q 83 60 135 33 l 83 256 l 104 256 q 222 208 137 235 q 391 177 307 180 l 391 365 l 330 380 q 231 411 278 393 q 145 461 183 429 q 86 537 108 492 q 65 651 65 581 q 150 824 65 753 q 387 911 235 896 l 387 1069 l 498 1069 l 498 912 q 638 894 559 910 q 760 860 718 878 l 760 665 l 738 665 q 630 713 688 695 q 495 734 572 730 l 495 562 l 555 549 q 764 460 696 519 q 831 291 831 401 m 395 575 l 395 734 q 330 711 357 730 q 302 656 302 692 q 318 608 302 627 q 395 575 334 589 m 591 264 q 567 320 591 298 q 490 352 543 342 l 490 178 q 562 202 533 182 q 591 264 591 222 z "},"%":{"ha":1665,"x_min":73,"x_max":1591,"o":"m 661 703 q 586 453 661 534 q 368 371 511 371 q 147 452 222 371 q 73 700 73 534 q 149 948 73 866 q 368 1029 224 1029 q 588 948 515 1029 q 661 703 661 866 m 1185 1010 l 656 0 l 477 0 l 1006 1010 l 1185 1010 m 1591 311 q 1516 61 1591 142 q 1299 -21 1441 -21 q 1078 60 1152 -21 q 1003 308 1003 142 q 1079 556 1003 474 q 1299 637 1155 637 q 1518 556 1445 637 q 1591 311 1591 474 m 467 701 q 464 779 467 743 q 449 838 460 814 q 418 873 438 861 q 368 885 399 885 q 317 873 336 885 q 288 837 299 861 q 273 778 277 815 q 269 700 269 741 q 272 620 269 650 q 287 564 275 591 q 317 527 297 540 q 368 515 337 515 q 418 527 399 515 q 449 564 438 539 q 463 619 458 585 q 467 701 467 653 m 1398 309 q 1394 387 1398 351 q 1379 446 1390 422 q 1349 481 1369 469 q 1299 493 1329 493 q 1248 481 1266 493 q 1218 445 1230 469 q 1204 386 1208 423 q 1200 308 1200 349 q 1202 228 1200 258 q 1217 172 1205 199 q 1247 135 1227 148 q 1299 123 1267 123 q 1349 135 1329 123 q 1379 172 1369 147 q 1393 227 1389 193 q 1398 309 1398 261 z "},"&":{"ha":1085,"x_min":58,"x_max":1124,"o":"m 1124 0 l 823 0 l 734 85 q 589 3 663 28 q 433 -21 514 -21 q 158 65 258 -21 q 58 291 58 152 q 74 392 58 350 q 115 468 90 434 q 171 524 139 500 q 234 566 203 548 q 182 611 205 589 q 142 660 159 633 q 115 717 124 686 q 105 789 105 748 q 123 876 105 833 q 181 954 140 918 q 287 1009 219 987 q 445 1031 355 1031 q 585 1014 526 1031 q 684 968 644 997 q 743 900 722 940 q 764 812 764 859 q 754 745 764 783 q 724 676 745 707 q 655 609 697 639 q 547 558 612 580 l 741 371 l 741 589 l 978 589 l 978 514 q 972 445 978 486 q 957 375 966 404 q 929 307 947 342 q 883 239 911 271 l 1124 14 l 1124 0 m 519 783 q 510 838 519 817 q 487 870 501 859 q 458 884 474 881 q 434 886 443 886 q 412 884 424 886 q 384 869 399 881 q 362 840 372 861 q 353 792 353 820 q 379 717 353 752 q 454 643 406 682 q 503 707 486 673 q 519 783 519 741 m 623 200 l 351 457 q 327 406 340 441 q 314 331 314 370 q 329 253 314 286 q 369 199 345 220 q 424 166 393 177 q 484 155 454 155 q 558 165 526 155 q 623 200 591 175 z "},"'":{"ha":382,"x_min":81,"x_max":302,"o":"m 302 1055 l 261 656 l 121 656 l 81 1055 l 302 1055 z "},"(":{"ha":631,"x_min":75,"x_max":576,"o":"m 576 -279 l 328 -279 q 223 -138 270 -211 q 142 18 176 -66 q 93 191 111 96 q 75 388 75 286 q 93 591 75 500 q 142 757 112 682 q 221 912 174 839 q 328 1055 269 985 l 576 1055 l 576 1036 q 472 923 522 986 q 379 777 422 861 q 313 597 338 696 q 288 388 288 499 q 312 178 288 272 q 379 -1 337 83 q 471 -146 420 -81 q 576 -260 522 -212 l 576 -279 z "},")":{"ha":631,"x_min":54,"x_max":555,"o":"m 555 388 q 537 191 555 286 q 488 18 519 96 q 407 -138 454 -66 q 302 -279 360 -211 l 54 -279 l 54 -260 q 159 -146 108 -212 q 251 -1 211 -81 q 318 178 293 83 q 342 388 342 272 q 317 597 342 499 q 251 777 292 696 q 158 923 208 861 q 54 1036 109 986 l 54 1055 l 302 1055 q 409 912 361 985 q 488 757 456 839 q 537 591 518 682 q 555 388 555 500 z "},"*":{"ha":884,"x_min":87,"x_max":768,"o":"m 768 584 l 699 481 l 487 625 l 494 389 l 359 389 l 363 618 l 156 480 l 87 585 l 320 722 l 88 861 l 156 966 l 363 825 l 359 1055 l 494 1055 l 490 825 l 699 965 l 768 861 l 534 723 l 768 584 z "},"+":{"ha":1137,"x_min":132,"x_max":1005,"o":"m 1005 358 l 658 358 l 658 14 l 479 14 l 479 358 l 132 358 l 132 533 l 479 533 l 479 878 l 658 878 l 658 533 l 1005 533 l 1005 358 z "},",":{"ha":434,"x_min":-3,"x_max":378,"o":"m 378 267 l 141 -251 l -3 -251 l 130 267 l 378 267 z "},"-":{"ha":599,"x_min":75,"x_max":524,"o":"m 524 351 l 75 351 l 75 540 l 524 540 l 524 351 z "},".":{"ha":434,"x_min":97,"x_max":337,"o":"m 337 0 l 97 0 l 97 267 l 337 267 l 337 0 z "},"/":{"ha":802,"x_min":80,"x_max":677,"o":"m 677 1055 l 275 -220 l 80 -220 l 480 1055 l 677 1055 z "},":":{"ha":505,"x_min":132,"x_max":372,"o":"m 372 495 l 132 495 l 132 762 l 372 762 l 372 495 m 372 0 l 132 0 l 132 267 l 372 267 l 372 0 z "},";":{"ha":505,"x_min":32,"x_max":414,"o":"m 372 495 l 132 495 l 132 762 l 372 762 l 372 495 m 414 267 l 176 -251 l 32 -251 l 165 267 l 414 267 z "},"<":{"ha":1137,"x_min":123,"x_max":994,"o":"m 994 9 l 123 371 l 123 520 l 994 882 l 994 694 l 384 445 l 994 197 l 994 9 z "},"=":{"ha":1137,"x_min":152,"x_max":985,"o":"m 985 526 l 152 526 l 152 701 l 985 701 l 985 526 m 985 190 l 152 190 l 152 365 l 985 365 l 985 190 z "},">":{"ha":1137,"x_min":143,"x_max":1014,"o":"m 1014 371 l 143 9 l 143 197 l 753 446 l 143 694 l 143 882 l 1014 520 l 1014 371 z "},"?":{"ha":787,"x_min":75,"x_max":735,"o":"m 735 764 q 715 643 735 696 q 659 551 695 590 q 572 481 623 512 q 459 426 522 451 l 459 271 l 227 271 l 227 498 q 312 526 265 509 q 393 570 358 544 q 454 631 431 596 q 478 715 478 667 q 435 812 478 782 q 317 843 393 843 q 196 818 260 843 q 95 768 132 793 l 75 768 l 75 972 q 202 1010 119 991 q 381 1030 286 1030 q 532 1010 467 1030 q 644 954 597 990 q 712 870 688 918 q 735 764 735 821 m 478 0 l 211 0 l 211 179 l 478 179 l 478 0 z "},"@":{"ha":1278,"x_min":80,"x_max":1187,"o":"m 1187 450 q 1161 257 1187 357 q 1095 94 1134 157 l 764 94 l 754 147 q 719 124 736 135 q 681 106 702 113 q 637 93 657 97 q 581 89 616 89 q 485 112 530 89 q 408 178 440 135 q 357 286 376 220 q 338 428 338 351 q 361 571 338 507 q 423 682 385 635 q 510 750 460 725 q 614 775 559 775 q 691 758 657 775 q 743 722 725 740 l 743 763 l 893 764 l 893 216 l 995 216 q 1027 321 1015 260 q 1040 446 1040 382 q 1010 640 1040 557 q 926 780 980 724 q 799 864 872 837 q 642 892 726 892 q 490 861 562 892 q 358 770 418 831 q 266 627 300 712 q 231 437 231 541 q 263 241 231 327 q 354 96 296 155 q 484 9 410 39 q 638 -20 557 -20 q 762 -10 695 -20 q 885 17 829 0 l 885 -127 q 766 -149 823 -142 q 637 -155 709 -155 q 415 -112 517 -155 q 238 9 312 -69 q 122 197 163 87 q 80 439 80 307 q 123 671 80 564 q 243 860 167 779 q 421 984 318 939 q 641 1029 524 1029 q 857 987 757 1029 q 1030 869 958 945 q 1146 687 1104 793 q 1187 450 1187 581 m 740 274 l 740 616 q 689 636 712 630 q 635 643 665 643 q 534 585 570 643 q 499 430 499 526 q 529 272 499 323 q 625 220 558 220 q 687 234 661 220 q 740 274 713 248 z "},"A":{"ha":951,"x_min":-4,"x_max":955,"o":"m -4 0 l 337 1010 l 614 1010 l 955 0 l 694 0 l 631 206 l 313 206 l 250 0 l -4 0 m 575 389 l 472 722 l 369 389 l 575 389 z "},"B":{"ha":953,"x_min":104,"x_max":912,"o":"m 912 309 q 884 177 912 234 q 807 83 855 120 q 682 19 750 38 q 509 0 614 0 l 104 0 l 104 1010 l 461 1010 q 630 1001 572 1010 q 737 966 687 993 q 818 888 791 937 q 845 775 845 839 q 808 644 845 701 q 706 559 771 586 l 706 553 q 856 473 800 534 q 912 309 912 412 m 587 724 q 575 774 587 749 q 536 812 562 800 q 476 824 511 823 q 374 825 442 825 l 357 825 l 357 611 l 389 611 q 480 612 454 611 q 534 627 506 614 q 576 666 564 641 q 587 724 587 691 m 651 314 q 632 387 651 361 q 575 427 613 414 q 512 437 552 436 q 404 438 471 438 l 357 438 l 357 185 l 370 185 q 507 186 469 185 q 585 205 545 188 q 635 249 619 220 q 651 314 651 277 z "},"C":{"ha":927,"x_min":45,"x_max":882,"o":"m 540 -20 q 179 118 313 -20 q 45 504 45 255 q 179 887 45 744 q 541 1029 313 1029 q 649 1023 601 1029 q 741 1004 697 1016 q 817 976 776 994 q 882 945 857 958 l 882 705 l 857 705 q 810 744 838 721 q 747 788 783 766 q 670 825 712 810 q 581 840 627 840 q 480 823 526 840 q 393 763 435 806 q 331 659 355 724 q 307 503 307 593 q 332 345 307 409 q 398 241 357 281 q 486 186 437 203 q 583 170 534 170 q 678 186 633 170 q 755 223 724 203 q 814 266 789 244 q 859 304 840 288 l 882 304 l 882 67 q 818 38 854 54 q 743 9 781 21 q 654 -12 695 -5 q 540 -20 612 -20 z "},"D":{"ha":1052,"x_min":104,"x_max":1006,"o":"m 1006 504 q 945 251 1006 363 q 789 80 883 140 q 617 15 710 29 q 420 0 525 0 l 104 0 l 104 1010 l 418 1010 q 617 996 524 1010 q 791 930 710 983 q 949 759 891 867 q 1006 504 1006 650 m 746 506 q 712 676 746 606 q 606 787 677 747 q 498 819 555 816 q 363 821 441 821 l 358 821 l 358 189 l 363 189 q 507 192 448 189 q 618 229 566 195 q 713 337 681 268 q 746 506 746 406 z "},"E":{"ha":854,"x_min":104,"x_max":787,"o":"m 104 0 l 104 1010 l 787 1010 l 787 817 l 357 817 l 357 640 l 753 640 l 753 448 l 357 448 l 357 193 l 787 193 l 787 0 l 104 0 z "},"F":{"ha":807,"x_min":104,"x_max":781,"o":"m 781 817 l 357 817 l 357 627 l 747 627 l 747 434 l 357 434 l 357 0 l 104 0 l 104 1010 l 781 1010 l 781 817 z "},"G":{"ha":1035,"x_min":45,"x_max":948,"o":"m 948 58 q 775 5 882 31 q 566 -21 669 -21 q 187 116 328 -21 q 45 506 45 254 q 187 886 45 743 q 574 1029 328 1029 q 780 1005 701 1029 q 944 940 859 981 l 944 703 l 921 703 q 868 744 903 718 q 802 788 834 770 q 714 825 764 810 q 608 841 664 841 q 490 821 543 841 q 394 758 436 800 q 331 655 354 718 q 307 510 307 593 q 396 249 307 333 q 639 165 485 165 q 671 165 652 165 q 703 168 689 166 l 703 366 l 507 366 l 507 555 l 948 555 l 948 58 z "},"H":{"ha":1061,"x_min":104,"x_max":957,"o":"m 957 0 l 703 0 l 703 448 l 358 448 l 358 0 l 104 0 l 104 1010 l 358 1010 l 358 640 l 703 640 l 703 1010 l 957 1010 l 957 0 z "},"I":{"ha":671,"x_min":64,"x_max":608,"o":"m 608 0 l 64 0 l 64 176 l 209 176 l 209 833 l 64 833 l 64 1010 l 608 1010 l 608 833 l 463 833 l 463 176 l 608 176 l 608 0 z "},"J":{"ha":695,"x_min":4,"x_max":604,"o":"m 604 296 q 581 173 604 231 q 513 74 559 115 q 393 6 463 28 q 234 -16 324 -16 q 108 -11 167 -16 q 4 4 49 -5 l 4 209 l 27 209 q 91 186 58 197 q 176 176 124 176 q 280 195 243 176 q 331 248 316 214 q 348 325 347 281 q 350 422 350 368 l 350 827 l 119 827 l 119 1010 l 604 1010 l 604 296 z "},"K":{"ha":967,"x_min":104,"x_max":989,"o":"m 989 0 l 683 0 l 408 410 l 358 341 l 358 0 l 104 0 l 104 1010 l 358 1010 l 358 562 l 681 1010 l 975 1010 l 614 541 l 989 0 z "},"L":{"ha":795,"x_min":104,"x_max":779,"o":"m 779 0 l 104 0 l 104 1010 l 358 1010 l 358 193 l 779 193 l 779 0 z "},"M":{"ha":1240,"x_min":104,"x_max":1136,"o":"m 1136 0 l 884 0 l 884 669 l 700 237 l 527 237 l 343 669 l 343 0 l 104 0 l 104 1010 l 397 1010 l 621 511 l 844 1010 l 1136 1010 l 1136 0 z "},"N":{"ha":1070,"x_min":104,"x_max":970,"o":"m 970 0 l 726 0 l 336 704 l 336 0 l 104 0 l 104 1010 l 416 1010 l 738 431 l 738 1010 l 970 1010 l 970 0 z "},"O":{"ha":1069,"x_min":45,"x_max":1024,"o":"m 1024 505 q 893 119 1024 260 q 534 -21 762 -21 q 176 121 306 -21 q 45 505 45 263 q 176 889 45 748 q 534 1031 306 1031 q 893 890 762 1031 q 1024 505 1024 749 m 762 505 q 744 659 762 595 q 694 763 725 722 q 620 822 661 804 q 535 840 579 840 q 450 824 488 840 q 377 764 412 807 q 327 660 346 725 q 307 505 307 595 q 326 350 307 412 q 376 248 344 289 q 450 188 408 205 q 535 170 491 170 q 622 189 580 170 q 694 249 664 208 q 745 352 727 293 q 762 505 762 410 z "},"P":{"ha":913,"x_min":104,"x_max":882,"o":"m 882 691 q 859 557 882 621 q 795 450 837 493 q 738 401 769 424 q 670 363 707 379 q 589 339 633 348 q 491 330 545 330 l 358 330 l 358 0 l 104 0 l 104 1010 l 496 1010 q 647 994 584 1010 q 762 943 711 978 q 850 842 819 905 q 882 691 882 779 m 621 685 q 601 759 621 728 q 552 801 581 789 q 483 819 516 817 q 394 821 450 821 l 358 821 l 358 519 l 376 519 q 444 519 412 519 q 499 524 475 520 q 542 537 519 528 q 577 559 565 547 q 612 612 603 585 q 621 685 621 639 z "},"Q":{"ha":1069,"x_min":45,"x_max":1024,"o":"m 1023 -267 q 941 -282 982 -277 q 812 -287 900 -287 q 676 -267 732 -287 q 583 -210 621 -247 q 527 -125 546 -174 q 506 -18 509 -75 q 169 130 292 -9 q 45 505 45 269 q 176 889 45 748 q 534 1031 306 1031 q 893 890 762 1031 q 1024 505 1024 749 q 950 198 1024 326 q 740 17 876 71 q 773 -85 741 -57 q 884 -113 804 -113 q 948 -104 914 -113 q 998 -87 983 -95 l 1023 -87 l 1023 -267 m 694 249 q 745 352 727 293 q 762 505 762 410 q 744 659 762 595 q 694 763 725 722 q 620 822 661 804 q 535 840 579 840 q 450 824 488 840 q 377 764 412 807 q 327 660 346 725 q 307 505 307 595 q 326 350 307 412 q 376 248 344 289 q 450 188 408 205 q 535 170 491 170 q 622 189 580 170 q 694 249 664 208 z "},"R":{"ha":1008,"x_min":104,"x_max":1038,"o":"m 1038 0 l 729 0 l 448 370 l 357 370 l 357 0 l 104 0 l 104 1010 l 511 1010 q 657 999 595 1010 q 772 956 720 989 q 859 868 827 921 q 890 732 890 814 q 838 544 890 616 q 699 429 786 472 l 1038 0 m 630 701 q 615 766 630 739 q 567 808 601 793 q 514 821 543 819 q 441 824 485 824 l 357 824 l 357 552 l 429 552 q 519 558 482 552 q 582 586 556 565 q 618 631 606 605 q 630 701 630 658 z "},"S":{"ha":880,"x_min":50,"x_max":854,"o":"m 416 -18 q 213 4 300 -18 q 50 60 125 26 l 50 300 l 73 300 q 240 201 149 235 q 418 166 332 166 q 475 171 439 166 q 532 186 511 176 q 577 218 559 197 q 595 273 595 239 q 566 334 595 311 q 494 369 536 358 q 384 395 443 382 q 275 425 326 407 q 106 536 157 466 q 56 711 56 606 q 176 940 56 852 q 475 1028 296 1028 q 655 1010 566 1028 q 814 960 744 991 l 814 730 l 792 730 q 655 811 736 778 q 488 844 574 844 q 429 840 455 844 q 373 821 402 835 q 332 789 349 810 q 315 741 315 768 q 342 680 315 703 q 448 639 370 657 q 546 616 499 627 q 647 587 593 606 q 803 485 752 549 q 854 315 854 420 q 736 73 854 165 q 416 -18 618 -18 z "},"T":{"ha":850,"x_min":0,"x_max":850,"o":"m 298 0 l 298 817 l 0 817 l 0 1010 l 850 1010 l 850 817 l 552 817 l 552 0 l 298 0 z "},"U":{"ha":1026,"x_min":90,"x_max":936,"o":"m 513 -21 q 200 77 309 -21 q 90 365 90 176 l 90 1010 l 344 1010 l 344 380 q 384 223 344 275 q 513 172 423 172 q 641 221 600 172 q 682 380 682 271 l 682 1010 l 936 1010 l 936 366 q 829 79 936 179 q 513 -21 722 -21 z "},"V":{"ha":937,"x_min":-11,"x_max":948,"o":"m 948 1010 l 601 0 l 336 0 l -11 1010 l 252 1010 l 472 326 l 692 1010 l 948 1010 z "},"W":{"ha":1428,"x_min":20,"x_max":1407,"o":"m 1407 1010 l 1152 0 l 873 0 l 711 625 l 554 0 l 276 0 l 20 1010 l 283 1010 l 422 332 l 592 1010 l 844 1010 l 1004 332 l 1151 1010 l 1407 1010 z "},"X":{"ha":951,"x_min":-8,"x_max":959,"o":"m 959 0 l 665 0 l 471 322 l 273 0 l -8 0 l 319 509 l 5 1010 l 298 1010 l 480 705 l 667 1010 l 948 1010 l 631 519 l 959 0 z "},"Y":{"ha":931,"x_min":-13,"x_max":944,"o":"m 944 1010 l 595 422 l 595 0 l 342 0 l 342 409 l -13 1010 l 276 1010 l 474 649 l 665 1010 l 944 1010 z "},"Z":{"ha":865,"x_min":37,"x_max":838,"o":"m 838 0 l 37 0 l 37 189 l 501 817 l 61 817 l 61 1010 l 810 1010 l 810 817 l 347 193 l 838 193 l 838 0 z "},"[":{"ha":631,"x_min":113,"x_max":538,"o":"m 538 -266 l 113 -266 l 113 1055 l 538 1055 l 538 895 l 318 895 l 318 -106 l 538 -106 l 538 -266 z "},"\\":{"ha":802,"x_min":132,"x_max":728,"o":"m 728 -220 l 534 -220 l 132 1055 l 328 1055 l 728 -220 z "},"]":{"ha":631,"x_min":92,"x_max":517,"o":"m 517 -266 l 92 -266 l 92 -106 l 312 -106 l 312 895 l 92 895 l 92 1055 l 517 1055 l 517 -266 z "},"^":{"ha":1137,"x_min":117,"x_max":1019,"o":"m 1019 457 l 808 457 l 557 821 l 328 456 l 117 456 l 476 1010 l 639 1010 l 1019 457 z "},"_":{"ha":884,"x_min":-11,"x_max":895,"o":"m 895 -234 l -11 -234 l -11 -98 l 895 -98 l 895 -234 z "},"`":{"ha":758,"x_min":183,"x_max":548,"o":"m 548 870 l 387 870 l 183 1137 l 408 1137 l 548 870 z "},"a":{"ha":831,"x_min":34,"x_max":747,"o":"m 511 199 l 511 357 q 413 347 450 351 q 340 330 376 342 q 291 297 309 319 q 274 238 274 275 q 303 164 274 184 q 388 144 332 144 q 452 159 419 144 q 511 199 484 173 m 511 81 q 467 44 486 60 q 415 12 448 28 q 353 -12 383 -4 q 269 -20 323 -20 q 101 47 168 -20 q 34 218 34 115 q 68 355 34 303 q 165 438 102 408 q 319 481 230 469 q 512 500 409 494 l 512 505 q 466 592 512 568 q 326 616 419 616 q 228 601 284 616 q 118 562 172 585 l 98 562 l 98 745 q 212 769 133 755 q 370 783 290 783 q 657 718 567 783 q 747 518 747 652 l 747 0 l 511 0 l 511 81 z "},"b":{"ha":878,"x_min":91,"x_max":838,"o":"m 595 387 q 560 549 595 500 q 454 598 526 598 q 390 588 422 598 q 328 557 359 578 l 328 175 q 376 162 352 165 q 424 159 400 159 q 552 216 510 159 q 595 387 595 273 m 838 391 q 745 97 838 210 q 517 -15 653 -15 q 418 -2 460 -15 q 328 38 376 11 l 318 0 l 91 0 l 91 1055 l 328 1055 l 328 682 q 435 755 380 727 q 560 783 489 783 q 765 679 693 783 q 838 391 838 575 z "},"c":{"ha":732,"x_min":35,"x_max":711,"o":"m 465 -20 q 292 3 370 -20 q 156 77 214 27 q 67 201 99 126 q 35 378 35 276 q 70 564 35 487 q 163 690 104 640 q 297 760 220 737 q 458 783 374 783 q 584 768 521 783 q 711 722 647 753 l 711 518 l 680 518 q 645 548 666 532 q 600 578 625 564 q 542 602 574 592 q 469 612 509 612 q 329 548 378 612 q 279 378 279 485 q 332 207 279 263 q 473 151 385 151 q 552 161 518 151 q 610 185 586 171 q 651 215 634 199 q 680 242 668 230 l 711 242 l 711 39 q 664 18 690 30 q 609 -1 637 7 q 544 -15 574 -10 q 465 -20 514 -20 z "},"d":{"ha":874,"x_min":37,"x_max":783,"o":"m 783 0 l 546 0 l 546 79 q 493 39 523 60 q 441 6 464 17 q 385 -14 413 -7 q 319 -21 357 -21 q 113 87 189 -21 q 37 375 37 195 q 62 548 37 475 q 134 675 88 621 q 234 754 175 725 q 359 783 293 783 q 457 770 418 783 q 546 731 495 758 l 546 1055 l 783 1055 l 783 0 m 546 210 l 546 584 q 500 598 528 593 q 451 604 471 604 q 322 545 366 604 q 279 378 279 485 q 314 215 279 265 q 425 165 348 165 q 488 177 456 165 q 546 210 519 189 z "},"e":{"ha":825,"x_min":35,"x_max":793,"o":"m 481 -20 q 150 83 265 -20 q 35 376 35 186 q 142 674 35 563 q 442 785 250 785 q 705 691 617 785 q 793 421 793 597 l 793 336 l 273 336 q 296 247 277 283 q 346 191 315 212 q 417 160 376 170 q 506 151 458 151 q 587 160 547 151 q 661 184 627 170 q 714 212 690 197 q 755 239 739 227 l 780 239 l 780 43 q 727 21 751 31 q 661 1 703 12 q 581 -15 622 -9 q 481 -20 540 -20 m 559 479 q 525 593 557 554 q 424 633 492 633 q 316 591 355 633 q 273 479 277 550 l 559 479 z "},"f":{"ha":531,"x_min":14,"x_max":578,"o":"m 578 876 l 559 876 q 517 887 546 880 q 463 893 488 893 q 365 867 391 893 q 338 768 338 840 l 338 762 l 527 762 l 527 596 l 347 596 l 347 0 l 109 0 l 109 596 l 14 596 l 14 762 l 109 762 l 109 783 q 182 992 109 922 q 404 1062 256 1062 q 500 1058 456 1062 q 578 1048 545 1055 l 578 876 z "},"g":{"ha":874,"x_min":37,"x_max":783,"o":"m 546 240 l 546 585 q 503 599 528 593 q 451 604 477 604 q 322 549 366 604 q 279 395 279 494 q 286 311 279 345 q 310 250 292 277 q 354 211 327 224 q 425 198 382 198 q 487 209 456 198 q 546 240 518 220 m 783 87 q 753 -92 783 -18 q 669 -208 722 -166 q 543 -268 616 -250 q 378 -287 469 -287 q 234 -277 302 -287 q 116 -254 166 -267 l 116 -64 l 144 -64 q 185 -79 161 -71 q 234 -94 210 -87 q 291 -106 263 -101 q 348 -111 319 -111 q 449 -98 408 -111 q 509 -62 489 -85 q 538 -6 530 -39 q 546 75 546 26 l 546 89 q 453 32 506 54 q 345 11 401 11 q 117 107 197 11 q 37 400 37 203 q 61 561 37 490 q 130 682 86 632 q 232 756 172 730 q 356 783 292 783 q 460 768 414 783 q 545 728 507 753 l 553 762 l 783 762 l 783 87 z "},"h":{"ha":889,"x_min":91,"x_max":804,"o":"m 804 0 l 566 0 l 566 378 q 562 470 566 424 q 548 537 558 515 q 513 574 536 563 q 451 585 490 585 q 392 574 422 585 q 328 540 362 564 l 328 0 l 91 0 l 91 1055 l 328 1055 l 328 677 q 442 755 387 727 q 564 783 497 783 q 743 709 681 783 q 804 496 804 635 l 804 0 z "},"i":{"ha":419,"x_min":84,"x_max":335,"o":"m 328 0 l 91 0 l 91 762 l 328 762 l 328 0 m 335 870 l 84 870 l 84 1055 l 335 1055 l 335 870 z "},"j":{"ha":504,"x_min":-57,"x_max":413,"o":"m 413 -14 q 336 -215 413 -142 q 138 -287 260 -287 q 20 -281 73 -287 q -57 -269 -33 -275 l -57 -94 l -39 -94 q 13 -106 -16 -102 q 58 -111 41 -111 q 151 -68 126 -111 q 176 70 176 -26 l 176 596 l 39 596 l 39 762 l 413 762 l 413 -14 m 413 870 l 160 870 l 160 1055 l 413 1055 l 413 870 z "},"k":{"ha":837,"x_min":91,"x_max":853,"o":"m 853 0 l 571 0 l 365 332 l 328 282 l 328 0 l 91 0 l 91 1055 l 328 1055 l 328 464 l 553 762 l 833 762 l 567 433 l 853 0 z "},"l":{"ha":419,"x_min":91,"x_max":328,"o":"m 328 0 l 91 0 l 91 1055 l 328 1055 l 328 0 z "},"m":{"ha":1324,"x_min":91,"x_max":1240,"o":"m 1001 0 l 1001 380 q 999 475 1001 437 q 987 538 997 514 q 955 574 977 563 q 895 585 934 585 q 842 573 868 585 q 784 540 815 562 l 784 0 l 545 0 l 545 380 q 543 475 545 436 q 530 538 541 514 q 499 574 520 563 q 439 585 477 585 q 382 572 410 585 q 328 540 355 558 l 328 0 l 91 0 l 91 762 l 328 762 l 328 677 q 438 755 387 727 q 554 783 490 783 q 677 749 624 783 q 758 650 730 716 q 887 748 826 714 q 1010 783 947 783 q 1105 766 1063 783 q 1176 715 1147 749 q 1224 628 1208 678 q 1240 496 1240 577 l 1240 0 l 1001 0 z "},"n":{"ha":889,"x_min":91,"x_max":804,"o":"m 804 0 l 566 0 l 566 378 q 562 470 566 424 q 548 537 558 515 q 513 574 536 563 q 451 585 490 585 q 392 574 422 585 q 328 540 362 564 l 328 0 l 91 0 l 91 762 l 328 762 l 328 677 q 442 755 387 727 q 564 783 497 783 q 743 709 681 783 q 804 496 804 635 l 804 0 z "},"o":{"ha":857,"x_min":35,"x_max":822,"o":"m 822 380 q 719 84 822 193 q 429 -24 616 -24 q 139 84 242 -24 q 35 380 35 193 q 139 678 35 570 q 429 785 242 785 q 719 677 616 785 q 822 380 822 569 m 578 379 q 567 492 578 447 q 536 564 556 537 q 489 604 515 593 q 429 615 463 615 q 371 605 397 615 q 323 568 345 595 q 291 495 303 541 q 279 379 279 449 q 290 266 279 309 q 320 197 302 223 q 368 159 339 171 q 431 146 396 146 q 489 159 459 146 q 536 195 518 171 q 568 266 557 224 q 578 379 578 307 z "},"p":{"ha":874,"x_min":91,"x_max":838,"o":"m 838 391 q 745 97 838 209 q 517 -15 652 -15 q 418 -2 460 -15 q 328 38 376 11 l 328 -279 l 91 -279 l 91 762 l 328 762 l 328 682 q 435 755 380 727 q 560 783 489 783 q 765 677 692 783 q 838 391 838 572 m 595 387 q 561 548 595 498 q 454 598 526 598 q 390 588 422 598 q 328 557 359 578 l 328 174 q 370 163 347 166 q 424 159 393 159 q 553 216 511 159 q 595 387 595 273 z "},"q":{"ha":874,"x_min":37,"x_max":783,"o":"m 783 -279 l 546 -279 l 546 75 q 494 35 521 54 q 442 5 467 16 q 387 -15 412 -9 q 319 -21 361 -21 q 113 87 189 -21 q 37 375 37 195 q 62 548 37 475 q 134 675 88 621 q 234 754 175 725 q 359 783 293 783 q 457 768 415 783 q 545 728 498 754 l 553 762 l 783 762 l 783 -279 m 546 210 l 546 584 q 500 598 528 593 q 451 604 471 604 q 322 545 366 604 q 279 378 279 485 q 314 215 279 265 q 425 165 348 165 q 488 177 456 165 q 546 210 519 189 z "},"r":{"ha":602,"x_min":91,"x_max":602,"o":"m 602 537 l 583 537 q 543 544 569 542 q 486 547 517 547 q 408 536 449 547 q 328 510 367 525 l 328 0 l 91 0 l 91 762 l 328 762 l 328 652 q 373 690 345 667 q 426 726 402 713 q 486 753 452 742 q 551 764 520 764 q 576 764 562 764 q 602 762 591 763 l 602 537 z "},"s":{"ha":715,"x_min":40,"x_max":692,"o":"m 323 -21 q 164 -3 239 -21 q 40 40 89 16 l 40 241 l 60 241 q 98 212 77 228 q 159 180 120 197 q 234 153 192 164 q 324 142 275 142 q 413 157 374 142 q 451 207 451 173 q 433 247 451 233 q 365 273 416 260 q 296 287 338 279 q 223 305 255 295 q 89 388 134 333 q 43 531 43 442 q 67 627 43 582 q 136 707 90 672 q 248 762 181 742 q 399 783 315 783 q 546 767 479 783 q 659 728 613 751 l 659 536 l 640 536 q 602 561 628 545 q 550 589 575 577 q 483 611 520 602 q 408 620 446 620 q 320 602 356 620 q 285 555 285 585 q 302 515 285 530 q 379 486 320 500 q 449 471 410 478 q 526 452 489 464 q 650 374 608 425 q 692 238 692 323 q 667 136 692 184 q 596 54 642 87 q 481 -1 547 18 q 323 -21 415 -21 z "},"t":{"ha":577,"x_min":14,"x_max":571,"o":"m 382 -15 q 171 45 237 -15 q 105 240 105 104 l 105 596 l 14 596 l 14 762 l 105 762 l 105 979 l 342 979 l 342 762 l 571 762 l 571 596 l 342 596 l 342 326 q 343 256 342 286 q 354 203 344 227 q 388 165 363 179 q 458 151 412 151 q 508 159 477 151 q 551 174 538 168 l 571 174 l 571 7 q 489 -9 532 -3 q 382 -15 446 -15 z "},"u":{"ha":889,"x_min":85,"x_max":798,"o":"m 798 0 l 561 0 l 561 84 q 448 6 499 33 q 325 -21 396 -21 q 148 51 212 -21 q 85 266 85 122 l 85 762 l 323 762 l 323 384 q 327 288 323 325 q 341 224 330 250 q 375 189 352 201 q 438 176 397 176 q 497 189 463 176 q 561 222 532 201 l 561 762 l 798 762 l 798 0 z "},"v":{"ha":804,"x_min":0,"x_max":804,"o":"m 804 762 l 530 0 l 271 0 l 0 762 l 250 762 l 406 258 l 559 762 l 804 762 z "},"w":{"ha":1236,"x_min":10,"x_max":1225,"o":"m 1225 762 l 1003 0 l 751 0 l 617 492 l 483 0 l 231 0 l 10 762 l 260 762 l 376 258 l 521 762 l 730 762 l 867 258 l 981 762 l 1225 762 z "},"x":{"ha":840,"x_min":-3,"x_max":842,"o":"m 842 0 l 564 0 l 419 219 l 270 0 l -3 0 l 277 380 l 2 762 l 280 762 l 422 547 l 566 762 l 839 762 l 563 387 l 842 0 z "},"y":{"ha":800,"x_min":-2,"x_max":802,"o":"m 802 762 l 417 -279 l 162 -279 l 277 18 l -2 762 l 248 762 l 408 284 l 557 762 l 802 762 z "},"z":{"ha":730,"x_min":33,"x_max":699,"o":"m 699 0 l 33 0 l 33 157 l 396 583 l 49 583 l 49 762 l 691 762 l 691 608 l 327 182 l 699 182 l 699 0 z "},"{":{"ha":865,"x_min":38,"x_max":772,"o":"m 772 -266 l 593 -266 q 385 -199 462 -266 q 309 -3 309 -132 l 309 98 q 258 262 309 212 q 82 313 207 313 l 38 313 l 38 477 l 82 477 q 258 527 207 477 q 309 692 309 577 l 309 793 q 385 988 309 922 q 593 1055 462 1055 l 772 1055 l 772 906 l 699 906 q 625 900 658 906 q 570 877 592 894 q 535 826 547 859 q 524 739 524 792 l 524 663 q 468 501 524 565 q 319 403 412 437 l 319 387 q 468 289 412 353 q 524 127 524 224 l 524 50 q 535 -36 524 -3 q 570 -87 547 -70 q 625 -111 591 -105 q 699 -117 658 -117 l 772 -117 l 772 -266 z "},"|":{"ha":884,"x_min":347,"x_max":537,"o":"m 537 -266 l 347 -266 l 347 1055 l 537 1055 l 537 -266 z "},"}":{"ha":865,"x_min":93,"x_max":827,"o":"m 827 313 l 783 313 q 608 262 659 313 q 557 98 557 212 l 557 -3 q 480 -199 557 -132 q 272 -266 404 -266 l 93 -266 l 93 -117 l 167 -117 q 240 -111 208 -117 q 296 -87 273 -104 q 330 -36 319 -70 q 342 50 342 -3 l 342 127 q 398 289 342 224 q 547 387 454 353 l 547 403 q 398 501 454 437 q 342 663 342 565 l 342 739 q 330 826 342 792 q 296 877 319 859 q 240 900 273 894 q 167 906 208 906 l 93 906 l 93 1055 l 272 1055 q 480 988 404 1055 q 557 793 557 922 l 557 692 q 608 527 557 577 q 783 477 659 477 l 827 477 l 827 313 z "},"~":{"ha":1137,"x_min":92,"x_max":1048,"o":"m 1048 671 q 976 342 1047 457 q 765 227 905 227 q 684 238 719 227 q 621 267 649 249 q 571 309 591 288 q 527 358 551 331 q 490 405 507 381 q 454 448 472 428 q 417 478 437 465 q 378 490 397 490 q 320 472 340 490 q 288 418 300 453 q 273 330 276 380 q 268 226 270 280 l 92 226 q 164 557 92 446 q 374 669 237 669 q 454 658 419 669 q 519 628 490 647 q 573 584 548 610 q 614 538 597 558 q 651 491 632 515 q 687 449 669 467 q 723 418 705 430 q 761 406 741 406 q 819 425 798 406 q 852 479 841 444 q 867 566 863 516 q 871 671 870 616 l 1048 671 z "},"Ä":{"ha":951,"x_min":-4,"x_max":955,"o":"m -4 0 l 337 1010 l 614 1010 l 955 0 l 694 0 l 631 206 l 313 206 l 250 0 l -4 0 m 575 389 l 472 722 l 369 389 l 575 389 m 730 1123 l 535 1123 l 535 1308 l 730 1308 l 730 1123 m 404 1123 l 209 1123 l 209 1308 l 404 1308 l 404 1123 z "},"Å":{"ha":951,"x_min":-4,"x_max":955,"o":"m 955 0 l 694 0 l 631 206 l 313 206 l 250 0 l -4 0 l 321 958 q 273 1023 291 985 q 254 1103 254 1060 q 320 1251 254 1189 q 476 1312 387 1312 q 632 1251 566 1312 q 698 1103 698 1189 q 680 1023 698 1061 q 631 956 661 984 l 955 0 m 568 1109 q 542 1179 568 1152 q 476 1207 516 1207 q 410 1179 436 1207 q 384 1109 384 1152 q 410 1038 384 1066 q 476 1010 435 1010 q 543 1038 517 1010 q 568 1109 568 1067 m 575 389 l 472 722 l 369 389 l 575 389 z "},"Ç":{"ha":927,"x_min":45,"x_max":882,"o":"m 540 -18 q 178 118 311 -18 q 45 504 45 255 q 179 888 45 747 q 541 1029 313 1029 q 649 1023 601 1029 q 741 1004 697 1016 q 817 976 776 994 q 882 945 857 958 l 882 705 l 857 705 q 810 744 838 721 q 747 788 783 766 q 670 825 712 810 q 581 840 627 840 q 480 823 526 840 q 393 763 435 806 q 331 659 355 724 q 307 503 307 593 q 332 345 307 409 q 398 241 357 281 q 486 186 437 203 q 583 170 534 170 q 678 186 633 170 q 755 223 724 203 q 814 266 789 244 q 859 304 840 288 l 882 304 l 882 67 q 799 30 844 50 q 699 -1 753 10 q 700 -29 699 -12 q 701 -58 701 -46 q 636 -228 701 -168 q 467 -287 572 -287 q 398 -282 443 -287 q 330 -271 353 -277 l 330 -135 l 342 -135 q 389 -151 359 -142 q 446 -159 418 -159 q 526 -132 497 -159 q 555 -47 555 -104 l 555 -18 l 540 -18 z "},"É":{"ha":854,"x_min":104,"x_max":787,"o":"m 104 0 l 104 1010 l 787 1010 l 787 817 l 357 817 l 357 640 l 753 640 l 753 448 l 357 448 l 357 193 l 787 193 l 787 0 l 104 0 m 684 1390 l 480 1123 l 319 1123 l 459 1390 l 684 1390 z "},"Ñ":{"ha":1070,"x_min":104,"x_max":970,"o":"m 970 0 l 726 0 l 336 704 l 336 0 l 104 0 l 104 1010 l 416 1010 l 738 431 l 738 1010 l 970 1010 l 970 0 m 848 1347 q 792 1181 842 1234 q 654 1128 743 1128 q 593 1142 622 1128 q 543 1168 564 1155 q 497 1194 522 1181 q 456 1207 473 1207 q 410 1186 422 1207 q 395 1124 397 1164 l 252 1124 q 308 1283 256 1223 q 446 1342 359 1342 q 506 1331 478 1342 q 559 1304 534 1319 q 604 1280 580 1293 q 644 1267 629 1267 q 691 1289 677 1267 q 706 1347 705 1310 l 848 1347 z "},"Ö":{"ha":1069,"x_min":45,"x_max":1024,"o":"m 1024 505 q 893 119 1024 260 q 534 -21 762 -21 q 176 121 306 -21 q 45 505 45 263 q 176 889 45 748 q 534 1031 306 1031 q 893 890 762 1031 q 1024 505 1024 749 m 762 505 q 744 659 762 595 q 694 763 725 722 q 620 822 661 804 q 535 840 579 840 q 450 824 488 840 q 377 764 412 807 q 327 660 346 725 q 307 505 307 595 q 326 350 307 412 q 376 248 344 289 q 450 188 408 205 q 535 170 491 170 q 622 189 580 170 q 694 249 664 208 q 745 352 727 293 q 762 505 762 410 m 795 1123 l 600 1123 l 600 1308 l 795 1308 l 795 1123 m 469 1123 l 274 1123 l 274 1308 l 469 1308 l 469 1123 z "},"Ü":{"ha":1026,"x_min":90,"x_max":936,"o":"m 513 -21 q 200 77 309 -21 q 90 365 90 176 l 90 1010 l 344 1010 l 344 380 q 384 223 344 275 q 513 172 423 172 q 641 221 600 172 q 682 380 682 271 l 682 1010 l 936 1010 l 936 366 q 829 79 936 179 q 513 -21 722 -21 m 767 1123 l 572 1123 l 572 1308 l 767 1308 l 767 1123 m 441 1123 l 246 1123 l 246 1308 l 441 1308 l 441 1123 z "},"á":{"ha":831,"x_min":34,"x_max":747,"o":"m 511 199 l 511 357 q 413 347 450 351 q 340 330 376 342 q 291 297 309 319 q 274 238 274 275 q 303 164 274 184 q 388 144 332 144 q 452 159 419 144 q 511 199 484 173 m 511 81 q 467 44 486 60 q 415 12 448 28 q 353 -12 383 -4 q 269 -20 323 -20 q 101 47 168 -20 q 34 218 34 115 q 68 355 34 303 q 165 438 102 408 q 319 481 230 469 q 512 500 409 494 l 512 505 q 466 592 512 568 q 326 616 419 616 q 228 601 284 616 q 118 562 172 585 l 98 562 l 98 745 q 212 769 133 755 q 370 783 290 783 q 657 718 567 783 q 747 518 747 652 l 747 0 l 511 0 l 511 81 m 626 1137 l 422 870 l 261 870 l 401 1137 l 626 1137 z "},"à":{"ha":831,"x_min":34,"x_max":747,"o":"m 511 199 l 511 357 q 413 347 450 351 q 340 330 376 342 q 291 297 309 319 q 274 238 274 275 q 303 164 274 184 q 388 144 332 144 q 452 159 419 144 q 511 199 484 173 m 511 81 q 467 44 486 60 q 415 12 448 28 q 353 -12 383 -4 q 269 -20 323 -20 q 101 47 168 -20 q 34 218 34 115 q 68 355 34 303 q 165 438 102 408 q 319 481 230 469 q 512 500 409 494 l 512 505 q 466 592 512 568 q 326 616 419 616 q 228 601 284 616 q 118 562 172 585 l 98 562 l 98 745 q 212 769 133 755 q 370 783 290 783 q 657 718 567 783 q 747 518 747 652 l 747 0 l 511 0 l 511 81 m 553 870 l 391 870 l 188 1137 l 412 1137 l 553 870 z "},"â":{"ha":831,"x_min":34,"x_max":747,"o":"m 511 199 l 511 357 q 413 347 450 351 q 340 330 376 342 q 291 297 309 319 q 274 238 274 275 q 303 164 274 184 q 388 144 332 144 q 452 159 419 144 q 511 199 484 173 m 511 81 q 467 44 486 60 q 415 12 448 28 q 353 -12 383 -4 q 269 -20 323 -20 q 101 47 168 -20 q 34 218 34 115 q 68 355 34 303 q 165 438 102 408 q 319 481 230 469 q 512 500 409 494 l 512 505 q 466 592 512 568 q 326 616 419 616 q 228 601 284 616 q 118 562 172 585 l 98 562 l 98 745 q 212 769 133 755 q 370 783 290 783 q 657 718 567 783 q 747 518 747 652 l 747 0 l 511 0 l 511 81 m 679 870 l 503 870 l 391 1015 l 280 870 l 107 870 l 311 1137 l 475 1137 l 679 870 z "},"ä":{"ha":831,"x_min":34,"x_max":747,"o":"m 511 199 l 511 357 q 413 347 450 351 q 340 330 376 342 q 291 297 309 319 q 274 238 274 275 q 303 164 274 184 q 388 144 332 144 q 452 159 419 144 q 511 199 484 173 m 511 81 q 467 44 486 60 q 415 12 448 28 q 353 -12 383 -4 q 269 -20 323 -20 q 101 47 168 -20 q 34 218 34 115 q 68 355 34 303 q 165 438 102 408 q 319 481 230 469 q 512 500 409 494 l 512 505 q 466 592 512 568 q 326 616 419 616 q 228 601 284 616 q 118 562 172 585 l 98 562 l 98 745 q 212 769 133 755 q 370 783 290 783 q 657 718 567 783 q 747 518 747 652 l 747 0 l 511 0 l 511 81 m 656 870 l 461 870 l 461 1055 l 656 1055 l 656 870 m 330 870 l 135 870 l 135 1055 l 330 1055 l 330 870 z "},"ã":{"ha":831,"x_min":34,"x_max":747,"o":"m 511 199 l 511 357 q 413 347 450 351 q 340 330 376 342 q 291 297 309 319 q 274 238 274 275 q 303 164 274 184 q 388 144 332 144 q 452 159 419 144 q 511 199 484 173 m 511 81 q 467 44 486 60 q 415 12 448 28 q 353 -12 383 -4 q 269 -20 323 -20 q 101 47 168 -20 q 34 218 34 115 q 68 355 34 303 q 165 438 102 408 q 319 481 230 469 q 512 500 409 494 l 512 505 q 466 592 512 568 q 326 616 419 616 q 228 601 284 616 q 118 562 172 585 l 98 562 l 98 745 q 212 769 133 755 q 370 783 290 783 q 657 718 567 783 q 747 518 747 652 l 747 0 l 511 0 l 511 81 m 705 1094 q 649 928 699 981 q 511 876 600 876 q 450 889 479 876 q 399 915 420 902 q 354 941 379 928 q 313 954 330 954 q 267 933 279 954 q 252 871 254 911 l 109 871 q 165 1030 113 970 q 302 1089 216 1089 q 363 1078 335 1089 q 416 1051 391 1066 q 461 1027 437 1040 q 501 1014 486 1014 q 548 1036 534 1014 q 563 1094 562 1057 l 705 1094 z "},"å":{"ha":831,"x_min":34,"x_max":747,"o":"m 511 199 l 511 357 q 413 347 450 351 q 340 330 376 342 q 291 297 309 319 q 274 238 274 275 q 303 164 274 184 q 388 144 332 144 q 452 159 419 144 q 511 199 484 173 m 511 81 q 467 44 486 60 q 415 12 448 28 q 353 -12 383 -4 q 269 -20 323 -20 q 101 47 168 -20 q 34 218 34 115 q 68 355 34 303 q 165 438 102 408 q 319 481 230 469 q 512 500 409 494 l 512 505 q 466 592 512 568 q 326 616 419 616 q 228 601 284 616 q 118 562 172 585 l 98 562 l 98 745 q 187 766 132 755 q 311 781 242 777 q 238 853 266 807 q 210 957 210 900 q 271 1102 210 1044 q 419 1161 332 1161 q 567 1103 507 1161 q 628 957 628 1044 q 595 845 628 895 q 510 772 563 795 q 686 693 625 755 q 747 518 747 631 l 747 0 l 511 0 l 511 81 m 511 956 q 485 1027 511 998 q 419 1057 459 1057 q 353 1028 379 1057 q 327 956 327 999 q 353 885 327 913 q 419 857 378 857 q 486 886 460 857 q 511 956 511 914 z "},"ç":{"ha":732,"x_min":35,"x_max":711,"o":"m 458 -19 q 288 5 364 -18 q 154 79 211 29 q 66 202 98 127 q 35 378 35 277 q 70 564 35 487 q 163 690 104 640 q 297 760 220 737 q 458 783 374 783 q 584 768 521 783 q 711 722 647 753 l 711 518 l 680 518 q 645 548 666 532 q 600 578 625 564 q 542 602 574 592 q 469 612 509 612 q 329 548 378 612 q 279 378 279 485 q 332 206 279 263 q 473 149 385 149 q 553 160 518 149 q 610 184 587 170 q 650 214 634 199 q 680 242 667 229 l 711 242 l 711 39 q 661 18 691 31 q 603 -2 631 5 q 604 -26 603 -12 q 604 -58 604 -41 q 539 -228 604 -168 q 370 -287 475 -287 q 301 -282 346 -287 q 233 -271 256 -277 l 233 -135 l 245 -135 q 292 -151 262 -142 q 349 -159 321 -159 q 429 -131 400 -159 q 458 -50 458 -104 q 458 -37 458 -45 q 458 -19 458 -28 z "},"é":{"ha":825,"x_min":35,"x_max":793,"o":"m 481 -20 q 150 83 265 -20 q 35 376 35 186 q 142 674 35 563 q 442 785 250 785 q 705 691 617 785 q 793 421 793 597 l 793 336 l 273 336 q 296 247 277 283 q 346 191 315 212 q 417 160 376 170 q 506 151 458 151 q 587 160 547 151 q 661 184 627 170 q 714 212 690 197 q 755 239 739 227 l 780 239 l 780 43 q 727 21 751 31 q 661 1 703 12 q 581 -15 622 -9 q 481 -20 540 -20 m 559 479 q 525 593 557 554 q 424 633 492 633 q 316 591 355 633 q 273 479 277 550 l 559 479 m 664 1137 l 460 870 l 299 870 l 439 1137 l 664 1137 z "},"è":{"ha":825,"x_min":35,"x_max":793,"o":"m 481 -20 q 150 83 265 -20 q 35 376 35 186 q 142 674 35 563 q 442 785 250 785 q 705 691 617 785 q 793 421 793 597 l 793 336 l 273 336 q 296 247 277 283 q 346 191 315 212 q 417 160 376 170 q 506 151 458 151 q 587 160 547 151 q 661 184 627 170 q 714 212 690 197 q 755 239 739 227 l 780 239 l 780 43 q 727 21 751 31 q 661 1 703 12 q 581 -15 622 -9 q 481 -20 540 -20 m 559 479 q 525 593 557 554 q 424 633 492 633 q 316 591 355 633 q 273 479 277 550 l 559 479 m 576 870 l 414 870 l 211 1137 l 435 1137 l 576 870 z "},"ê":{"ha":825,"x_min":35,"x_max":793,"o":"m 481 -20 q 150 83 265 -20 q 35 376 35 186 q 142 674 35 563 q 442 785 250 785 q 705 691 617 785 q 793 421 793 597 l 793 336 l 273 336 q 296 247 277 283 q 346 191 315 212 q 417 160 376 170 q 506 151 458 151 q 587 160 547 151 q 661 184 627 170 q 714 212 690 197 q 755 239 739 227 l 780 239 l 780 43 q 727 21 751 31 q 661 1 703 12 q 581 -15 622 -9 q 481 -20 540 -20 m 559 479 q 525 593 557 554 q 424 633 492 633 q 316 591 355 633 q 273 479 277 550 l 559 479 m 720 870 l 545 870 l 433 1015 l 321 870 l 149 870 l 353 1137 l 516 1137 l 720 870 z "},"ë":{"ha":825,"x_min":35,"x_max":793,"o":"m 481 -20 q 150 83 265 -20 q 35 376 35 186 q 142 674 35 563 q 442 785 250 785 q 705 691 617 785 q 793 421 793 597 l 793 336 l 273 336 q 296 247 277 283 q 346 191 315 212 q 417 160 376 170 q 506 151 458 151 q 587 160 547 151 q 661 184 627 170 q 714 212 690 197 q 755 239 739 227 l 780 239 l 780 43 q 727 21 751 31 q 661 1 703 12 q 581 -15 622 -9 q 481 -20 540 -20 m 559 479 q 525 593 557 554 q 424 633 492 633 q 316 591 355 633 q 273 479 277 550 l 559 479 m 694 870 l 500 870 l 500 1055 l 694 1055 l 694 870 m 368 870 l 174 870 l 174 1055 l 368 1055 l 368 870 z "},"í":{"ha":419,"x_min":65,"x_max":430,"o":"m 328 0 l 91 0 l 91 762 l 328 762 l 328 0 m 430 1137 l 227 870 l 65 870 l 205 1137 l 430 1137 z "},"ì":{"ha":419,"x_min":1,"x_max":366,"o":"m 328 0 l 91 0 l 91 762 l 328 762 l 328 0 m 366 870 l 204 870 l 1 1137 l 225 1137 l 366 870 z "},"î":{"ha":419,"x_min":-30,"x_max":447,"o":"m 328 0 l 91 0 l 91 762 l 328 762 l 328 0 m 447 870 l 292 870 l 207 1015 l 123 870 l -30 870 l 129 1137 l 288 1137 l 447 870 z "},"ï":{"ha":419,"x_min":-24,"x_max":446,"o":"m 328 0 l 91 0 l 91 762 l 328 762 l 328 0 m 446 870 l 256 870 l 256 1055 l 446 1055 l 446 870 m 165 870 l -24 870 l -24 1055 l 165 1055 l 165 870 z "},"ñ":{"ha":889,"x_min":91,"x_max":804,"o":"m 804 0 l 566 0 l 566 378 q 562 470 566 424 q 548 537 558 515 q 513 574 536 563 q 451 585 490 585 q 392 574 422 585 q 328 540 362 564 l 328 0 l 91 0 l 91 762 l 328 762 l 328 677 q 442 755 387 727 q 564 783 497 783 q 743 709 681 783 q 804 496 804 635 l 804 0 m 751 1094 q 695 928 745 981 q 557 876 646 876 q 496 889 525 876 q 446 915 467 902 q 400 941 425 928 q 359 954 376 954 q 313 933 325 954 q 298 871 300 911 l 155 871 q 211 1030 159 970 q 349 1089 262 1089 q 409 1078 381 1089 q 463 1051 437 1066 q 507 1027 483 1040 q 547 1014 532 1014 q 594 1036 580 1014 q 609 1094 608 1057 l 751 1094 z "},"ó":{"ha":857,"x_min":35,"x_max":822,"o":"m 822 380 q 719 84 822 193 q 429 -24 616 -24 q 139 84 242 -24 q 35 380 35 193 q 139 678 35 570 q 429 785 242 785 q 719 677 616 785 q 822 380 822 569 m 578 379 q 567 492 578 447 q 536 564 556 537 q 489 604 515 593 q 429 615 463 615 q 371 605 397 615 q 323 568 345 595 q 291 495 303 541 q 279 379 279 449 q 290 266 279 309 q 320 197 302 223 q 368 159 339 171 q 431 146 396 146 q 489 159 459 146 q 536 195 518 171 q 568 266 557 224 q 578 379 578 307 m 663 1137 l 459 870 l 298 870 l 438 1137 l 663 1137 z "},"ò":{"ha":857,"x_min":35,"x_max":822,"o":"m 822 380 q 719 84 822 193 q 429 -24 616 -24 q 139 84 242 -24 q 35 380 35 193 q 139 678 35 570 q 429 785 242 785 q 719 677 616 785 q 822 380 822 569 m 578 379 q 567 492 578 447 q 536 564 556 537 q 489 604 515 593 q 429 615 463 615 q 371 605 397 615 q 323 568 345 595 q 291 495 303 541 q 279 379 279 449 q 290 266 279 309 q 320 197 302 223 q 368 159 339 171 q 431 146 396 146 q 489 159 459 146 q 536 195 518 171 q 568 266 557 224 q 578 379 578 307 m 569 870 l 408 870 l 204 1137 l 429 1137 l 569 870 z "},"ô":{"ha":857,"x_min":35,"x_max":822,"o":"m 822 380 q 719 84 822 193 q 429 -24 616 -24 q 139 84 242 -24 q 35 380 35 193 q 139 678 35 570 q 429 785 242 785 q 719 677 616 785 q 822 380 822 569 m 578 379 q 567 492 578 447 q 536 564 556 537 q 489 604 515 593 q 429 615 463 615 q 371 605 397 615 q 323 568 345 595 q 291 495 303 541 q 279 379 279 449 q 290 266 279 309 q 320 197 302 223 q 368 159 339 171 q 431 146 396 146 q 489 159 459 146 q 536 195 518 171 q 568 266 557 224 q 578 379 578 307 m 722 870 l 546 870 l 434 1015 l 323 870 l 150 870 l 354 1137 l 517 1137 l 722 870 z "},"ö":{"ha":857,"x_min":35,"x_max":822,"o":"m 822 380 q 719 84 822 193 q 429 -24 616 -24 q 139 84 242 -24 q 35 380 35 193 q 139 678 35 570 q 429 785 242 785 q 719 677 616 785 q 822 380 822 569 m 578 379 q 567 492 578 447 q 536 564 556 537 q 489 604 515 593 q 429 615 463 615 q 371 605 397 615 q 323 568 345 595 q 291 495 303 541 q 279 379 279 449 q 290 266 279 309 q 320 197 302 223 q 368 159 339 171 q 431 146 396 146 q 489 159 459 146 q 536 195 518 171 q 568 266 557 224 q 578 379 578 307 m 690 870 l 495 870 l 495 1055 l 690 1055 l 690 870 m 363 870 l 169 870 l 169 1055 l 363 1055 l 363 870 z "},"õ":{"ha":857,"x_min":35,"x_max":822,"o":"m 822 380 q 719 84 822 193 q 429 -24 616 -24 q 139 84 242 -24 q 35 380 35 193 q 139 678 35 570 q 429 785 242 785 q 719 677 616 785 q 822 380 822 569 m 578 379 q 567 492 578 447 q 536 564 556 537 q 489 604 515 593 q 429 615 463 615 q 371 605 397 615 q 323 568 345 595 q 291 495 303 541 q 279 379 279 449 q 290 266 279 309 q 320 197 302 223 q 368 159 339 171 q 431 146 396 146 q 489 159 459 146 q 536 195 518 171 q 568 266 557 224 q 578 379 578 307 m 726 1094 q 669 928 719 981 q 532 876 620 876 q 470 889 499 876 q 420 915 441 902 q 375 941 399 928 q 333 954 350 954 q 287 933 299 954 q 272 871 275 911 l 130 871 q 185 1030 134 970 q 323 1089 237 1089 q 383 1078 355 1089 q 437 1051 411 1066 q 481 1027 457 1040 q 522 1014 506 1014 q 568 1036 554 1014 q 583 1094 582 1057 l 726 1094 z "},"ú":{"ha":889,"x_min":85,"x_max":798,"o":"m 798 0 l 561 0 l 561 84 q 448 6 499 33 q 325 -21 396 -21 q 148 51 212 -21 q 85 266 85 122 l 85 762 l 323 762 l 323 384 q 327 288 323 325 q 341 224 330 250 q 375 189 352 201 q 438 176 397 176 q 497 189 463 176 q 561 222 532 201 l 561 762 l 798 762 l 798 0 m 659 1137 l 455 870 l 294 870 l 434 1137 l 659 1137 z "},"ù":{"ha":889,"x_min":85,"x_max":798,"o":"m 798 0 l 561 0 l 561 84 q 448 6 499 33 q 325 -21 396 -21 q 148 51 212 -21 q 85 266 85 122 l 85 762 l 323 762 l 323 384 q 327 288 323 325 q 341 224 330 250 q 375 189 352 201 q 438 176 397 176 q 497 189 463 176 q 561 222 532 201 l 561 762 l 798 762 l 798 0 m 592 870 l 431 870 l 227 1137 l 452 1137 l 592 870 z "},"û":{"ha":889,"x_min":85,"x_max":798,"o":"m 798 0 l 561 0 l 561 84 q 448 6 499 33 q 325 -21 396 -21 q 148 51 212 -21 q 85 266 85 122 l 85 762 l 323 762 l 323 384 q 327 288 323 325 q 341 224 330 250 q 375 189 352 201 q 438 176 397 176 q 497 189 463 176 q 561 222 532 201 l 561 762 l 798 762 l 798 0 m 724 870 l 549 870 l 437 1015 l 326 870 l 153 870 l 357 1137 l 520 1137 l 724 870 z "},"ü":{"ha":889,"x_min":85,"x_max":798,"o":"m 798 0 l 561 0 l 561 84 q 448 6 499 33 q 325 -21 396 -21 q 148 51 212 -21 q 85 266 85 122 l 85 762 l 323 762 l 323 384 q 327 288 323 325 q 341 224 330 250 q 375 189 352 201 q 438 176 397 176 q 497 189 463 176 q 561 222 532 201 l 561 762 l 798 762 l 798 0 m 699 870 l 505 870 l 505 1055 l 699 1055 l 699 870 m 373 870 l 178 870 l 178 1055 l 373 1055 l 373 870 z "},"†":{"ha":884,"x_min":114,"x_max":770,"o":"m 770 640 l 524 643 l 527 92 l 357 92 l 361 643 l 114 640 l 114 789 l 361 785 l 357 1055 l 527 1055 l 524 785 l 770 789 l 770 640 z "},"°":{"ha":722,"x_min":85,"x_max":636,"o":"m 636 758 q 556 563 636 642 q 361 484 476 484 q 165 563 245 484 q 85 758 85 642 q 165 952 85 873 q 361 1031 245 1031 q 556 952 477 1031 q 636 758 636 873 m 488 758 q 451 849 488 811 q 361 887 415 887 q 271 849 307 887 q 234 758 234 812 q 271 665 234 702 q 361 628 308 628 q 451 666 415 628 q 488 758 488 703 z "},"¢":{"ha":884,"x_min":102,"x_max":784,"o":"m 483 -11 q 326 22 394 -5 q 208 98 258 50 q 130 219 157 147 q 102 385 102 290 q 132 559 102 484 q 216 683 163 633 q 337 756 267 731 q 483 787 406 781 l 483 1000 l 594 1000 l 594 784 q 714 756 664 776 q 784 728 765 737 l 784 528 l 753 528 q 688 577 732 549 q 591 616 644 606 l 591 158 q 688 193 646 167 q 753 245 730 219 l 784 245 l 784 45 q 701 14 752 31 q 594 -9 650 -3 l 594 -245 l 483 -245 l 483 -11 m 486 160 l 486 616 q 378 537 416 600 q 339 385 339 474 q 379 233 339 290 q 486 160 418 176 z "},"£":{"ha":884,"x_min":81,"x_max":819,"o":"m 819 0 l 81 0 l 81 188 q 186 261 156 210 q 216 409 216 313 l 103 409 l 103 553 l 216 553 l 216 733 q 310 947 216 865 q 550 1029 404 1029 q 692 1018 635 1029 q 779 997 749 1006 l 779 789 l 755 789 q 680 830 724 814 q 591 846 636 846 q 492 806 530 846 q 454 693 454 766 l 454 553 l 707 553 l 707 409 l 454 409 q 446 346 454 382 q 426 286 437 310 q 392 236 412 259 q 346 198 372 212 l 346 191 l 819 191 l 819 0 z "},"§":{"ha":884,"x_min":72,"x_max":817,"o":"m 817 408 q 780 284 817 340 q 678 189 743 229 l 678 184 q 769 100 742 148 q 795 -7 795 53 q 769 -110 795 -62 q 691 -192 742 -158 q 569 -247 636 -229 q 401 -266 501 -266 q 251 -255 336 -266 q 119 -227 165 -243 l 119 -33 l 134 -33 q 229 -73 165 -52 q 359 -94 293 -94 q 482 -71 445 -94 q 519 -10 519 -49 q 505 33 519 16 q 464 63 491 50 q 392 90 434 77 q 301 119 350 102 q 130 214 188 159 q 72 357 72 269 q 107 479 72 424 q 210 576 143 534 l 210 581 q 118 667 145 618 q 91 779 91 716 q 118 874 91 829 q 195 956 144 920 q 320 1010 245 990 q 485 1031 394 1031 q 631 1020 555 1031 q 761 992 708 1010 l 761 798 l 746 798 q 652 838 715 817 q 527 859 589 859 q 411 835 456 859 q 367 775 367 812 q 381 732 367 749 q 424 703 396 715 q 492 677 452 690 q 587 646 532 664 q 758 551 700 607 q 817 408 817 496 m 575 371 q 550 433 575 409 q 480 475 526 457 q 438 491 465 481 q 378 510 412 500 q 334 460 354 491 q 313 394 313 430 q 339 331 313 355 q 408 290 364 307 q 455 273 426 283 q 511 254 484 262 q 553 300 530 269 q 575 371 575 332 z "},"•":{"ha":884,"x_min":111,"x_max":772,"o":"m 772 453 q 675 220 772 317 q 441 123 577 123 q 209 220 306 123 q 111 453 111 317 q 209 686 111 589 q 441 783 306 783 q 675 686 578 783 q 772 453 772 589 z "},"¶":{"ha":884,"x_min":45,"x_max":795,"o":"m 795 -246 l 660 -246 l 660 888 l 562 888 l 562 -246 l 419 -246 l 419 402 q 139 487 234 406 q 45 711 45 568 q 68 832 45 779 q 140 926 91 884 q 263 987 188 965 q 435 1010 338 1010 l 795 1010 l 795 -246 z "},"ß":{"ha":897,"x_min":91,"x_max":860,"o":"m 860 317 q 764 74 860 157 q 503 -9 668 -9 q 456 -6 486 -9 q 405 0 426 -3 l 405 184 l 422 184 q 453 177 432 181 q 492 172 473 172 q 583 214 547 172 q 619 332 619 255 q 572 440 619 408 q 425 473 524 473 l 425 654 q 523 687 488 654 q 557 789 557 720 q 530 871 557 842 q 450 899 504 899 q 357 856 386 899 q 328 736 328 813 l 328 0 l 91 0 l 91 716 q 187 971 91 881 q 452 1062 283 1062 q 601 1043 536 1062 q 707 990 665 1024 q 768 915 747 958 q 789 821 789 871 q 734 665 789 729 q 600 589 680 600 l 600 583 q 789 494 719 565 q 860 317 860 424 z "},"®":{"ha":1290,"x_min":58,"x_max":1232,"o":"m 1232 444 q 1060 30 1232 201 q 645 -142 888 -142 q 230 30 402 -142 q 58 444 58 201 q 230 859 58 687 q 645 1031 402 1031 q 1060 859 888 1031 q 1232 444 1232 687 m 1102 444 q 968 769 1102 633 q 645 905 834 905 q 322 769 456 905 q 188 444 188 633 q 322 119 188 255 q 645 -16 456 -16 q 968 119 834 -16 q 1102 444 1102 255 m 962 166 l 785 166 l 615 380 l 559 380 l 559 166 l 421 166 l 421 750 l 634 750 q 729 745 693 750 q 800 721 765 741 q 857 667 840 698 q 875 587 875 635 q 840 481 875 522 q 750 418 805 441 l 962 166 m 721 576 q 713 610 721 595 q 688 635 706 625 q 653 646 673 644 q 603 649 633 649 l 559 649 l 559 484 l 593 484 q 650 489 624 484 q 692 507 677 494 q 714 534 707 517 q 721 576 721 551 z "},"©":{"ha":1290,"x_min":58,"x_max":1232,"o":"m 1232 444 q 1060 30 1232 201 q 645 -142 888 -142 q 230 30 402 -142 q 58 444 58 201 q 230 859 58 687 q 645 1031 402 1031 q 1060 859 888 1031 q 1232 444 1232 687 m 1102 444 q 968 769 1102 633 q 645 905 834 905 q 322 769 456 905 q 188 444 188 633 q 322 119 188 255 q 645 -16 456 -16 q 968 119 834 -16 q 1102 444 1102 255 m 861 188 q 823 171 842 180 q 777 155 804 163 q 728 143 749 147 q 673 139 706 139 q 553 158 610 139 q 454 215 496 177 q 387 311 411 254 q 362 448 362 368 q 386 580 362 523 q 453 677 410 637 q 552 738 494 717 q 673 758 609 758 q 772 744 724 758 q 861 710 820 730 l 861 572 l 847 572 q 818 592 833 582 q 779 615 803 603 q 730 633 758 625 q 675 640 703 640 q 565 591 604 640 q 526 448 526 542 q 565 306 526 355 q 675 257 605 257 q 734 265 707 257 q 782 283 762 273 q 821 306 805 295 q 847 326 836 317 l 861 326 l 861 188 z "},"™":{"ha":1196,"x_min":58,"x_max":1121,"o":"m 1121 532 l 1003 532 l 1003 903 l 989 903 l 871 643 l 787 643 l 667 907 l 650 907 l 650 532 l 533 532 l 533 1010 l 736 1010 l 831 777 l 930 1010 l 1121 1010 l 1121 532 m 455 903 l 320 903 l 320 532 l 193 532 l 193 903 l 58 903 l 58 1010 l 455 1010 l 455 903 z "},"´":{"ha":758,"x_min":231,"x_max":596,"o":"m 596 1137 l 393 870 l 231 870 l 372 1137 l 596 1137 z "},"¨":{"ha":758,"x_min":117,"x_max":637,"o":"m 637 870 l 443 870 l 443 1055 l 637 1055 l 637 870 m 311 870 l 117 870 l 117 1055 l 311 1055 l 311 870 z "},"≠":{"ha":1137,"x_min":152,"x_max":985,"o":"m 985 190 l 552 190 l 454 -43 l 273 -43 l 371 190 l 152 190 l 152 365 l 444 365 l 513 526 l 152 526 l 152 701 l 585 701 l 673 913 l 857 913 l 766 701 l 985 701 l 985 526 l 693 526 l 623 365 l 985 365 l 985 190 z "},"Æ":{"ha":1373,"x_min":-12,"x_max":1305,"o":"m 1305 0 l 623 0 l 623 274 l 343 274 l 249 0 l -12 0 l 361 1010 l 1305 1010 l 1305 817 l 875 817 l 875 640 l 1272 640 l 1272 448 l 875 448 l 875 193 l 1305 193 l 1305 0 m 623 464 l 623 827 l 540 827 l 411 464 l 623 464 z "},"Ø":{"ha":1069,"x_min":45,"x_max":1024,"o":"m 1024 505 q 992 292 1024 391 q 899 125 961 194 q 742 16 833 53 q 534 -21 650 -21 q 406 -6 468 -21 q 292 37 344 9 l 211 -85 l 71 -85 l 197 105 q 85 276 125 174 q 45 505 45 377 q 176 889 45 748 q 534 1031 306 1031 q 660 1017 600 1031 q 774 975 720 1003 l 844 1080 l 986 1080 l 871 906 q 984 734 945 836 q 1024 505 1024 633 m 660 802 q 600 833 633 823 q 535 844 567 844 q 449 827 488 844 q 374 767 410 810 q 322 662 342 727 q 302 505 302 596 q 311 394 302 444 q 334 305 319 344 l 660 802 m 697 246 q 748 351 730 290 q 767 505 767 413 q 758 617 767 561 q 734 707 749 673 l 407 210 q 468 176 436 186 q 535 165 499 165 q 624 186 580 165 q 697 246 667 207 z "},"∞":{"ha":1389,"x_min":115,"x_max":1274,"o":"m 1274 452 q 1192 191 1274 287 q 970 95 1110 95 q 805 144 880 95 q 687 292 730 193 q 562 140 633 184 q 395 95 491 95 q 191 192 267 95 q 115 437 115 288 q 198 699 115 603 q 418 794 280 794 q 584 745 509 794 q 702 597 659 696 q 827 749 755 703 q 994 794 899 794 q 1198 697 1122 794 q 1274 452 1274 601 m 1096 452 q 1065 564 1096 519 q 975 609 1035 609 q 930 603 951 609 q 892 583 910 597 q 864 553 877 572 q 834 509 850 535 q 807 458 820 484 q 785 407 795 431 q 860 314 816 345 q 952 283 905 283 q 1058 327 1020 283 q 1096 452 1096 370 m 604 482 q 528 575 572 544 q 436 606 484 606 q 331 562 369 606 q 293 437 293 517 q 323 325 293 370 q 414 280 354 280 q 497 306 467 280 q 553 380 526 332 q 579 428 570 410 q 604 482 589 446 z "},"±":{"ha":1137,"x_min":132,"x_max":1005,"o":"m 1005 0 l 132 0 l 132 175 l 479 175 l 479 446 l 132 446 l 132 621 l 479 621 l 479 966 l 658 966 l 658 621 l 1005 621 l 1005 446 l 657 446 l 657 175 l 1005 175 l 1005 0 z "},"≤":{"ha":1137,"x_min":131,"x_max":1005,"o":"m 1005 250 l 131 539 l 131 702 l 1005 991 l 1005 803 l 404 620 l 1005 438 l 1005 250 m 1005 0 l 132 0 l 132 175 l 1005 175 l 1005 0 z "},"≥":{"ha":1137,"x_min":132,"x_max":1006,"o":"m 1006 539 l 132 250 l 132 438 l 732 620 l 132 803 l 132 991 l 1006 702 l 1006 539 m 1005 0 l 132 0 l 132 175 l 1005 175 l 1005 0 z "},"¥":{"ha":884,"x_min":14,"x_max":870,"o":"m 870 1010 l 562 463 l 562 424 l 775 424 l 775 279 l 563 279 l 563 0 l 320 0 l 320 279 l 108 279 l 108 424 l 321 424 l 321 450 l 14 1010 l 290 1010 l 447 680 l 604 1010 l 870 1010 z "},"µ":{"ha":904,"x_min":91,"x_max":813,"o":"m 813 0 l 604 0 l 593 49 l 588 49 q 527 5 555 21 q 454 -10 498 -10 q 383 6 415 -10 q 328 43 351 22 l 328 -279 l 91 -279 l 91 762 l 328 762 l 328 212 q 390 179 357 189 q 452 168 422 168 q 512 178 479 168 q 576 212 545 188 l 576 762 l 813 762 l 813 0 z "},"∂":{"ha":884,"x_min":46,"x_max":814,"o":"m 814 568 q 786 326 814 441 q 710 136 758 210 q 662 76 690 104 q 595 26 635 48 q 507 -9 553 3 q 393 -21 460 -21 q 138 66 231 -21 q 46 301 46 153 q 135 557 46 456 q 357 659 224 659 q 472 643 418 659 q 572 600 526 627 q 572 607 572 604 q 572 610 572 609 q 572 616 572 612 q 572 627 572 619 q 531 802 572 753 q 397 850 490 850 q 274 827 340 850 q 155 770 208 803 l 139 770 l 139 970 q 273 1010 191 991 q 446 1030 356 1030 q 643 987 563 1030 q 764 865 724 945 q 803 738 792 812 q 814 568 814 664 m 500 210 q 544 297 525 243 q 566 446 562 352 q 497 479 538 470 q 437 488 456 488 q 397 481 420 488 q 350 454 374 475 q 311 397 328 434 q 295 303 295 360 q 306 225 295 255 q 334 180 317 196 q 367 161 349 165 q 397 156 385 156 q 447 168 418 156 q 500 210 477 180 z "},"∑":{"ha":985,"x_min":85,"x_max":901,"o":"m 901 -128 l 85 -128 l 85 58 l 497 454 l 92 818 l 92 1010 l 874 1010 l 874 817 l 399 817 l 760 498 l 760 409 l 396 64 l 901 64 l 901 -128 z "},"∏":{"ha":1091,"x_min":119,"x_max":972,"o":"m 972 1010 l 972 -128 l 718 -128 l 718 817 l 373 817 l 373 -128 l 119 -128 l 119 1010 l 972 1010 z "},"∫":{"ha":884,"x_min":55,"x_max":831,"o":"m 831 847 l 818 847 q 766 860 798 854 q 715 865 734 865 q 596 822 630 865 q 563 682 563 779 l 563 20 q 474 -204 563 -121 q 246 -287 385 -287 q 145 -284 211 -287 q 55 -268 79 -281 l 55 -58 l 68 -58 q 118 -71 94 -66 q 168 -77 142 -77 q 280 -38 241 -77 q 320 107 320 1 l 320 759 q 404 976 320 890 q 625 1062 488 1062 q 749 1057 701 1062 q 831 1045 798 1051 l 831 847 z "},"ª":{"ha":705,"x_min":49,"x_max":619,"o":"m 619 404 l 431 404 l 431 469 q 395 439 410 452 q 354 414 380 427 q 304 394 328 401 q 237 388 280 388 q 103 441 158 388 q 49 579 49 495 q 76 689 49 649 q 154 755 102 730 q 273 789 203 779 q 431 805 343 800 l 431 808 q 394 878 431 859 q 283 897 357 897 q 187 880 237 897 q 116 854 137 863 l 100 854 l 100 1000 q 191 1020 128 1008 q 318 1031 254 1031 q 544 981 469 1031 q 619 819 619 930 l 619 404 m 431 564 l 431 690 q 355 681 395 687 q 294 668 315 675 q 255 642 269 659 q 241 595 241 624 q 262 536 241 553 q 332 520 284 520 q 385 532 358 520 q 431 564 411 544 z "},"º":{"ha":749,"x_min":67,"x_max":696,"o":"m 696 707 q 614 471 696 557 q 382 384 532 384 q 149 472 230 384 q 67 707 67 560 q 150 944 67 858 q 382 1031 233 1031 q 614 945 532 1031 q 696 707 696 859 m 467 559 q 494 621 487 585 q 502 706 502 657 q 471 850 502 805 q 382 895 441 895 q 336 887 357 895 q 298 857 315 880 q 272 799 281 836 q 262 706 262 762 q 292 566 262 611 q 383 520 321 520 q 430 529 407 520 q 467 559 452 538 z "},"Ω":{"ha":1069,"x_min":31,"x_max":1038,"o":"m 1038 0 l 604 0 l 604 315 q 666 366 642 343 q 707 416 690 389 q 738 488 728 450 q 749 589 749 526 q 691 773 749 705 q 534 840 633 840 q 379 775 439 840 q 320 589 320 710 q 331 489 320 530 q 361 416 342 448 q 405 365 379 389 q 465 315 431 340 l 465 0 l 31 0 l 31 190 l 248 190 l 248 258 q 114 407 169 315 q 58 612 58 499 q 189 917 58 803 q 534 1031 319 1031 q 884 916 757 1031 q 1010 613 1010 801 q 955 407 1010 495 q 821 258 899 319 l 821 190 l 1038 190 l 1038 0 z "},"æ":{"ha":1301,"x_min":34,"x_max":1271,"o":"m 544 210 q 524 281 530 246 q 517 349 518 316 q 422 341 463 345 q 345 326 381 336 q 293 294 313 315 q 274 238 274 273 q 301 167 274 190 q 388 144 328 144 q 477 164 435 144 q 544 210 519 184 m 983 151 q 1065 160 1025 151 q 1138 184 1105 170 q 1192 212 1167 197 q 1232 239 1217 227 l 1257 239 l 1257 43 q 1204 21 1228 31 q 1138 1 1180 12 q 1058 -15 1099 -9 q 958 -20 1017 -20 q 745 6 817 -20 q 609 98 673 33 q 558 54 587 76 q 495 16 529 32 q 419 -11 458 -1 q 326 -20 381 -20 q 108 43 182 -20 q 34 218 34 106 q 68 354 34 302 q 165 435 103 405 q 315 476 227 464 q 512 494 402 488 l 512 505 q 466 592 512 568 q 326 616 419 616 q 228 601 284 616 q 118 562 172 585 l 98 562 l 98 745 q 212 769 133 755 q 370 783 290 783 q 541 759 468 783 q 662 696 614 734 q 775 758 707 731 q 920 785 844 785 q 1183 691 1095 785 q 1271 421 1271 597 l 1271 336 l 751 336 q 773 247 754 283 q 823 191 792 212 q 895 160 854 170 q 983 151 935 151 m 1037 479 q 1002 593 1035 554 q 901 633 969 633 q 792 591 831 633 q 750 479 753 549 l 1037 479 z "},"ø":{"ha":857,"x_min":35,"x_max":822,"o":"m 822 380 q 719 84 822 193 q 429 -24 616 -24 q 330 -13 378 -24 q 244 16 282 -1 l 162 -110 l 44 -110 l 161 66 q 67 200 100 119 q 35 380 35 281 q 139 678 35 570 q 429 785 242 785 q 528 774 483 785 q 613 746 573 764 l 682 850 l 800 850 l 696 695 q 790 565 758 642 q 822 380 822 488 m 512 595 q 473 613 494 608 q 429 619 452 619 q 370 609 396 619 q 321 571 344 600 q 288 497 300 546 q 275 379 275 448 q 279 306 275 338 q 288 251 283 274 l 512 595 m 538 192 q 572 268 561 222 q 583 379 583 314 q 578 451 583 414 q 569 509 574 488 l 346 166 q 384 148 363 154 q 431 142 404 142 q 490 154 460 142 q 538 192 519 166 z "},"¿":{"ha":787,"x_min":52,"x_max":711,"o":"m 576 831 l 309 831 l 309 1010 l 576 1010 l 576 831 m 711 38 q 585 -1 668 19 q 406 -20 501 -20 q 255 0 320 -20 q 143 56 189 20 q 75 140 98 91 q 52 246 52 189 q 72 367 52 313 q 128 459 92 420 q 215 528 164 498 q 328 584 265 559 l 328 739 l 559 739 l 559 511 q 475 483 522 501 q 393 440 429 465 q 332 378 356 414 q 309 295 309 343 q 351 197 309 228 q 470 167 394 167 q 591 192 527 167 q 692 242 655 217 l 711 242 l 711 38 z "},"¡":{"ha":476,"x_min":103,"x_max":373,"o":"m 372 831 l 104 831 l 104 1010 l 372 1010 l 372 831 m 373 0 l 103 0 l 131 719 l 345 719 l 373 0 z "},"¬":{"ha":1137,"x_min":132,"x_max":998,"o":"m 998 34 l 812 34 l 812 378 l 132 378 l 132 553 l 998 553 l 998 34 z "},"√":{"ha":1137,"x_min":68,"x_max":1185,"o":"m 1185 1243 l 627 -102 l 509 -102 l 272 580 l 68 580 l 68 753 l 444 753 l 612 271 l 1015 1243 l 1185 1243 z "},"ƒ":{"ha":884,"x_min":19,"x_max":859,"o":"m 859 828 l 844 828 q 797 840 828 834 q 739 846 766 846 q 678 837 703 846 q 635 807 652 827 q 611 761 618 788 q 599 708 603 734 l 582 591 l 762 591 l 762 447 l 559 447 l 515 168 q 464 18 500 79 q 377 -75 427 -42 q 272 -122 328 -109 q 157 -136 217 -136 q 87 -132 127 -136 q 19 -123 47 -129 l 19 67 l 34 67 q 80 55 52 60 q 140 49 108 49 q 236 82 203 49 q 281 194 270 116 l 321 447 l 213 447 l 213 591 l 342 591 l 364 734 q 415 885 378 827 q 502 976 452 943 q 609 1020 551 1008 q 721 1031 667 1031 q 789 1028 754 1031 q 859 1019 824 1025 l 859 828 z "},"≈":{"ha":1137,"x_min":127,"x_max":1013,"o":"m 1013 825 q 946 565 1012 661 q 751 470 880 470 q 633 493 684 470 q 530 570 582 516 q 455 635 488 612 q 392 658 422 658 q 339 645 358 658 q 309 609 319 633 q 296 546 299 585 q 292 469 293 507 l 127 469 q 194 731 127 637 q 388 824 261 824 q 501 802 450 824 q 608 727 552 779 q 685 660 654 684 q 747 636 717 636 q 800 648 780 636 q 830 685 820 661 q 843 742 840 709 q 848 825 847 774 l 1013 825 m 1013 414 q 946 154 1012 250 q 751 59 880 59 q 633 82 684 59 q 530 159 582 105 q 456 224 489 201 q 392 247 422 247 q 339 234 358 247 q 309 198 319 222 q 296 135 299 174 q 292 58 293 96 l 127 58 q 194 320 127 227 q 388 413 261 413 q 501 391 450 413 q 608 316 552 368 q 685 249 654 273 q 747 225 717 225 q 800 237 780 225 q 830 274 820 250 q 844 331 840 298 q 848 414 847 363 l 1013 414 z "},"∆":{"ha":978,"x_min":-4,"x_max":982,"o":"m 982 0 l -4 0 l 351 1010 l 627 1010 l 982 0 m 665 188 l 486 722 l 306 188 l 665 188 z "},"«":{"ha":977,"x_min":87,"x_max":853,"o":"m 853 100 l 473 403 l 473 490 l 853 792 l 853 591 l 663 446 l 853 301 l 853 100 m 467 100 l 87 403 l 87 490 l 467 792 l 467 591 l 276 446 l 467 301 l 467 100 z "},"»":{"ha":977,"x_min":123,"x_max":890,"o":"m 890 403 l 510 100 l 510 301 l 701 446 l 510 591 l 510 792 l 890 490 l 890 403 m 503 403 l 123 100 l 123 301 l 314 446 l 123 591 l 123 792 l 503 490 l 503 403 z "},"…":{"ha":1389,"x_min":116,"x_max":1273,"o":"m 1273 0 l 1042 0 l 1042 267 l 1273 267 l 1273 0 m 810 0 l 579 0 l 579 267 l 810 267 l 810 0 m 347 0 l 116 0 l 116 267 l 347 267 l 347 0 z "},"À":{"ha":951,"x_min":-4,"x_max":955,"o":"m -4 0 l 337 1010 l 614 1010 l 955 0 l 694 0 l 631 206 l 313 206 l 250 0 l -4 0 m 575 389 l 472 722 l 369 389 l 575 389 m 622 1123 l 460 1123 l 257 1390 l 481 1390 l 622 1123 z "},"Ã":{"ha":951,"x_min":-4,"x_max":955,"o":"m -4 0 l 337 1010 l 614 1010 l 955 0 l 694 0 l 631 206 l 313 206 l 250 0 l -4 0 m 575 389 l 472 722 l 369 389 l 575 389 m 772 1340 q 716 1174 766 1227 q 578 1122 667 1122 q 517 1135 546 1122 q 467 1161 488 1148 q 421 1187 446 1174 q 380 1200 397 1200 q 334 1179 346 1200 q 319 1118 321 1158 l 176 1118 q 232 1276 180 1217 q 370 1335 283 1335 q 430 1324 402 1335 q 484 1297 458 1312 q 528 1273 504 1286 q 568 1260 553 1260 q 615 1282 601 1260 q 630 1340 629 1303 l 772 1340 z "},"Õ":{"ha":1069,"x_min":45,"x_max":1024,"o":"m 1024 505 q 893 119 1024 260 q 534 -21 762 -21 q 176 121 306 -21 q 45 505 45 263 q 176 889 45 748 q 534 1031 306 1031 q 893 890 762 1031 q 1024 505 1024 749 m 762 505 q 744 659 762 595 q 694 763 725 722 q 620 822 661 804 q 535 840 579 840 q 450 824 488 840 q 377 764 412 807 q 327 660 346 725 q 307 505 307 595 q 326 350 307 412 q 376 248 344 289 q 450 188 408 205 q 535 170 491 170 q 622 189 580 170 q 694 249 664 208 q 745 352 727 293 q 762 505 762 410 m 827 1347 q 770 1181 820 1234 q 633 1128 721 1128 q 571 1142 600 1128 q 521 1168 542 1155 q 476 1194 500 1181 q 434 1207 451 1207 q 388 1186 400 1207 q 373 1124 376 1164 l 231 1124 q 286 1283 235 1223 q 424 1342 338 1342 q 484 1331 456 1342 q 538 1304 512 1319 q 583 1280 558 1293 q 623 1267 607 1267 q 669 1289 655 1267 q 684 1347 683 1310 l 827 1347 z "},"Œ":{"ha":1440,"x_min":45,"x_max":1372,"o":"m 1372 0 l 634 0 q 405 21 491 0 q 260 79 319 41 q 103 252 160 144 q 45 506 45 360 q 105 753 45 640 q 263 930 164 866 q 402 988 319 967 q 631 1010 486 1010 l 1372 1010 l 1372 817 l 941 817 l 941 640 l 1338 640 l 1338 448 l 941 448 l 941 193 l 1372 193 l 1372 0 m 689 189 l 689 821 q 610 821 640 821 q 545 817 581 821 q 487 806 510 813 q 433 781 464 800 q 337 671 369 742 q 306 504 306 601 q 340 333 306 404 q 446 222 374 262 q 498 201 471 209 q 553 191 526 193 q 615 189 582 189 q 689 189 649 189 z "},"œ":{"ha":1369,"x_min":35,"x_max":1337,"o":"m 1103 479 q 1068 593 1101 554 q 968 633 1036 633 q 859 591 898 633 q 817 479 820 549 l 1103 479 m 578 379 q 543 555 578 496 q 429 615 507 615 q 371 605 397 615 q 323 568 345 595 q 291 495 303 541 q 279 379 279 449 q 315 206 279 265 q 431 146 351 146 q 489 159 459 146 q 536 195 518 171 q 569 273 559 229 q 578 379 578 317 m 1337 336 l 817 336 q 840 247 821 283 q 890 191 859 212 q 961 160 920 170 q 1050 151 1002 151 q 1131 160 1091 151 q 1204 184 1171 170 q 1258 212 1234 197 q 1299 239 1283 227 l 1324 239 l 1324 43 q 1271 21 1295 31 q 1204 1 1246 12 q 1125 -15 1166 -9 q 1025 -20 1084 -20 q 837 10 924 -20 q 706 90 749 40 q 590 8 659 39 q 429 -24 520 -24 q 140 83 245 -24 q 35 380 35 189 q 139 678 35 570 q 429 785 242 785 q 588 753 517 785 q 705 677 660 722 q 821 754 744 724 q 986 785 899 785 q 1249 691 1161 785 q 1337 421 1337 597 l 1337 336 z "},"–":{"ha":884,"x_min":-3,"x_max":887,"o":"m 887 358 l -3 358 l -3 533 l 887 533 l 887 358 z "},"—":{"ha":1263,"x_min":-3,"x_max":1265,"o":"m 1265 358 l -3 358 l -3 533 l 1265 533 l 1265 358 z "},"“":{"ha":680,"x_min":-18,"x_max":615,"o":"m 615 656 l 463 656 l 279 1055 l 509 1055 l 615 656 m 318 656 l 166 656 l -18 1055 l 212 1055 l 318 656 z "},"”":{"ha":680,"x_min":64,"x_max":697,"o":"m 697 1055 l 513 656 l 361 656 l 468 1055 l 697 1055 m 400 1055 l 216 656 l 64 656 l 171 1055 l 400 1055 z "},"‘":{"ha":382,"x_min":-18,"x_max":318,"o":"m 318 656 l 166 656 l -18 1055 l 212 1055 l 318 656 z "},"’":{"ha":382,"x_min":64,"x_max":400,"o":"m 400 1055 l 216 656 l 64 656 l 171 1055 l 400 1055 z "},"÷":{"ha":1137,"x_min":132,"x_max":1005,"o":"m 673 667 l 464 667 l 464 891 l 673 891 l 673 667 m 1005 358 l 132 358 l 132 533 l 1005 533 l 1005 358 m 673 0 l 464 0 l 464 224 l 673 224 l 673 0 z "},"◊":{"ha":1137,"x_min":101,"x_max":1036,"o":"m 1036 450 l 568 -79 l 101 450 l 568 980 l 1036 450 m 812 450 l 568 734 l 325 450 l 568 168 l 812 450 z "},"ÿ":{"ha":800,"x_min":-2,"x_max":802,"o":"m 802 762 l 417 -279 l 162 -279 l 277 18 l -2 762 l 248 762 l 408 284 l 557 762 l 802 762 m 664 870 l 469 870 l 469 1055 l 664 1055 l 664 870 m 338 870 l 143 870 l 143 1055 l 338 1055 l 338 870 z "},"Ÿ":{"ha":931,"x_min":-13,"x_max":944,"o":"m 944 1010 l 595 422 l 595 0 l 342 0 l 342 409 l -13 1010 l 276 1010 l 474 649 l 665 1010 l 944 1010 m 733 1123 l 538 1123 l 538 1308 l 733 1308 l 733 1123 m 407 1123 l 212 1123 l 212 1308 l 407 1308 l 407 1123 z "},"⁄":{"ha":601,"x_min":-64,"x_max":658,"o":"m 658 1010 l 129 0 l -64 0 l 465 1010 l 658 1010 z "},"€":{"ha":884,"x_min":-26,"x_max":840,"o":"m 641 449 l 616 321 l 343 321 q 582 169 413 169 q 814 269 688 169 l 840 269 l 840 43 q 540 -20 692 -20 q 229 73 353 -20 q 68 321 111 161 l -26 321 l 0 449 l 47 449 q 45 504 45 476 q 46 543 45 524 l -26 543 l 0 670 l 65 670 q 227 931 106 837 q 541 1029 353 1029 q 840 966 692 1029 l 840 741 l 814 741 q 581 840 688 840 q 336 670 402 840 l 686 670 l 661 543 l 309 543 q 307 503 307 523 q 310 449 307 475 l 641 449 z "},"‹":{"ha":590,"x_min":87,"x_max":467,"o":"m 467 100 l 87 403 l 87 490 l 467 792 l 467 591 l 276 446 l 467 301 l 467 100 z "},"›":{"ha":590,"x_min":123,"x_max":503,"o":"m 503 403 l 123 100 l 123 301 l 314 446 l 123 591 l 123 792 l 503 490 l 503 403 z "},"ﬁ":{"ha":941,"x_min":14,"x_max":856,"o":"m 849 0 l 612 0 l 612 601 l 347 601 l 347 0 l 109 0 l 109 596 l 14 596 l 14 762 l 109 762 l 109 783 q 181 992 109 922 q 398 1062 253 1062 q 491 1058 448 1062 q 562 1048 534 1054 l 562 878 l 544 878 q 506 888 531 882 q 456 894 481 894 q 362 866 388 894 q 337 768 337 838 l 337 762 l 849 762 l 849 0 m 856 870 l 625 870 l 625 1055 l 856 1055 l 856 870 z "},"ﬂ":{"ha":951,"x_min":14,"x_max":859,"o":"m 338 762 l 527 762 l 527 596 l 347 596 l 347 0 l 109 0 l 109 596 l 14 596 l 14 762 l 109 762 l 109 781 q 132 910 109 859 q 203 997 155 962 q 316 1046 247 1029 q 477 1062 385 1062 q 609 1053 532 1062 q 711 1040 685 1043 l 859 1055 l 859 0 l 622 0 l 622 887 q 569 893 601 890 q 507 895 537 895 q 448 891 473 895 q 394 873 422 887 q 354 838 370 861 q 338 781 338 815 l 338 762 z "},"‡":{"ha":884,"x_min":114,"x_max":770,"o":"m 770 349 l 524 353 l 527 92 l 357 92 l 361 353 l 114 349 l 114 498 l 361 495 l 361 658 l 114 654 l 114 804 l 361 800 l 357 1055 l 527 1055 l 524 800 l 770 804 l 770 654 l 523 658 l 523 495 l 770 498 l 770 349 z "},"∙":{"ha":434,"x_min":97,"x_max":337,"o":"m 337 313 l 97 313 l 97 580 l 337 580 l 337 313 z "},"‚":{"ha":382,"x_min":30,"x_max":366,"o":"m 366 193 l 182 -207 l 30 -207 l 136 193 l 366 193 z "},"„":{"ha":680,"x_min":32,"x_max":665,"o":"m 665 193 l 481 -207 l 329 -207 l 435 193 l 665 193 m 368 193 l 184 -207 l 32 -207 l 138 193 l 368 193 z "},"‰":{"ha":2327,"x_min":73,"x_max":2257,"o":"m 661 703 q 586 453 661 534 q 368 371 511 371 q 147 452 222 371 q 73 700 73 534 q 149 948 73 866 q 368 1029 224 1029 q 588 948 515 1029 q 661 703 661 866 m 1185 1010 l 656 0 l 477 0 l 1006 1010 l 1185 1010 m 1591 311 q 1516 61 1591 142 q 1299 -21 1441 -21 q 1078 60 1152 -21 q 1003 308 1003 142 q 1079 556 1003 474 q 1299 637 1155 637 q 1518 556 1445 637 q 1591 311 1591 474 m 467 701 q 464 779 467 743 q 449 838 460 814 q 418 873 438 861 q 368 885 399 885 q 317 873 336 885 q 288 837 299 861 q 273 778 277 815 q 269 700 269 741 q 272 620 269 650 q 287 564 275 591 q 317 527 297 540 q 368 515 337 515 q 418 527 399 515 q 449 564 438 539 q 463 619 458 585 q 467 701 467 653 m 1398 309 q 1394 387 1398 351 q 1379 446 1390 422 q 1349 481 1369 469 q 1299 493 1329 493 q 1248 481 1266 493 q 1218 445 1230 469 q 1204 386 1208 423 q 1200 308 1200 349 q 1202 228 1200 258 q 1217 172 1205 199 q 1247 135 1227 148 q 1299 123 1267 123 q 1349 135 1329 123 q 1379 172 1369 147 q 1393 227 1389 193 q 1398 309 1398 261 m 2257 311 q 2182 61 2257 142 q 1965 -21 2107 -21 q 1744 60 1818 -21 q 1669 308 1669 142 q 1745 556 1669 474 q 1965 637 1821 637 q 2184 556 2111 637 q 2257 311 2257 474 m 2064 309 q 2060 387 2064 351 q 2045 446 2056 422 q 2015 481 2035 469 q 1965 493 1995 493 q 1914 481 1932 493 q 1884 445 1895 469 q 1870 386 1874 423 q 1866 308 1866 349 q 1868 228 1866 258 q 1883 172 1871 199 q 1914 135 1894 148 q 1965 123 1933 123 q 2015 135 1995 123 q 2045 172 2035 147 q 2059 227 2055 193 q 2064 309 2064 261 z "},"Â":{"ha":951,"x_min":-4,"x_max":955,"o":"m -4 0 l 337 1010 l 614 1010 l 955 0 l 694 0 l 631 206 l 313 206 l 250 0 l -4 0 m 575 389 l 472 722 l 369 389 l 575 389 m 759 1116 l 583 1116 l 471 1261 l 360 1116 l 187 1116 l 391 1383 l 555 1383 l 759 1116 z "},"Ê":{"ha":854,"x_min":104,"x_max":787,"o":"m 104 0 l 104 1010 l 787 1010 l 787 817 l 357 817 l 357 640 l 753 640 l 753 448 l 357 448 l 357 193 l 787 193 l 787 0 l 104 0 m 706 1123 l 530 1123 l 418 1267 l 307 1123 l 134 1123 l 338 1390 l 502 1390 l 706 1123 z "},"Á":{"ha":951,"x_min":-4,"x_max":955,"o":"m -4 0 l 337 1010 l 614 1010 l 955 0 l 694 0 l 631 206 l 313 206 l 250 0 l -4 0 m 575 389 l 472 722 l 369 389 l 575 389 m 686 1390 l 482 1123 l 321 1123 l 461 1390 l 686 1390 z "},"Ë":{"ha":854,"x_min":104,"x_max":787,"o":"m 104 0 l 104 1010 l 787 1010 l 787 817 l 357 817 l 357 640 l 753 640 l 753 448 l 357 448 l 357 193 l 787 193 l 787 0 l 104 0 m 707 1123 l 513 1123 l 513 1308 l 707 1308 l 707 1123 m 381 1123 l 186 1123 l 186 1308 l 381 1308 l 381 1123 z "},"È":{"ha":854,"x_min":104,"x_max":787,"o":"m 104 0 l 104 1010 l 787 1010 l 787 817 l 357 817 l 357 640 l 753 640 l 753 448 l 357 448 l 357 193 l 787 193 l 787 0 l 104 0 m 604 1123 l 443 1123 l 239 1390 l 464 1390 l 604 1123 z "},"Í":{"ha":671,"x_min":64,"x_max":608,"o":"m 608 0 l 64 0 l 64 176 l 209 176 l 209 833 l 64 833 l 64 1010 l 608 1010 l 608 833 l 463 833 l 463 176 l 608 176 l 608 0 m 581 1390 l 378 1123 l 216 1123 l 357 1390 l 581 1390 z "},"Î":{"ha":671,"x_min":52,"x_max":623,"o":"m 608 0 l 64 0 l 64 176 l 209 176 l 209 833 l 64 833 l 64 1010 l 608 1010 l 608 833 l 463 833 l 463 176 l 608 176 l 608 0 m 623 1123 l 448 1123 l 336 1267 l 224 1123 l 52 1123 l 256 1390 l 419 1390 l 623 1123 z "},"Ï":{"ha":671,"x_min":64,"x_max":608,"o":"m 608 0 l 64 0 l 64 176 l 209 176 l 209 833 l 64 833 l 64 1010 l 608 1010 l 608 833 l 463 833 l 463 176 l 608 176 l 608 0 m 596 1123 l 401 1123 l 401 1308 l 596 1308 l 596 1123 m 270 1123 l 75 1123 l 75 1308 l 270 1308 l 270 1123 z "},"Ì":{"ha":671,"x_min":64,"x_max":608,"o":"m 608 0 l 64 0 l 64 176 l 209 176 l 209 833 l 64 833 l 64 1010 l 608 1010 l 608 833 l 463 833 l 463 176 l 608 176 l 608 0 m 462 1123 l 300 1123 l 97 1390 l 321 1390 l 462 1123 z "},"Ó":{"ha":1069,"x_min":45,"x_max":1024,"o":"m 1024 505 q 893 119 1024 260 q 534 -21 762 -21 q 176 121 306 -21 q 45 505 45 263 q 176 889 45 748 q 534 1031 306 1031 q 893 890 762 1031 q 1024 505 1024 749 m 762 505 q 744 659 762 595 q 694 763 725 722 q 620 822 661 804 q 535 840 579 840 q 450 824 488 840 q 377 764 412 807 q 327 660 346 725 q 307 505 307 595 q 326 350 307 412 q 376 248 344 289 q 450 188 408 205 q 535 170 491 170 q 622 189 580 170 q 694 249 664 208 q 745 352 727 293 q 762 505 762 410 m 743 1390 l 540 1123 l 378 1123 l 519 1390 l 743 1390 z "},"Ô":{"ha":1069,"x_min":45,"x_max":1024,"o":"m 1024 505 q 893 119 1024 260 q 534 -21 762 -21 q 176 121 306 -21 q 45 505 45 263 q 176 889 45 748 q 534 1031 306 1031 q 893 890 762 1031 q 1024 505 1024 749 m 762 505 q 744 659 762 595 q 694 763 725 722 q 620 822 661 804 q 535 840 579 840 q 450 824 488 840 q 377 764 412 807 q 327 660 346 725 q 307 505 307 595 q 326 350 307 412 q 376 248 344 289 q 450 188 408 205 q 535 170 491 170 q 622 189 580 170 q 694 249 664 208 q 745 352 727 293 q 762 505 762 410 m 825 1123 l 649 1123 l 537 1267 l 426 1123 l 253 1123 l 457 1390 l 621 1390 l 825 1123 z "},"Ò":{"ha":1069,"x_min":45,"x_max":1024,"o":"m 1024 505 q 893 119 1024 260 q 534 -21 762 -21 q 176 121 306 -21 q 45 505 45 263 q 176 889 45 748 q 534 1031 306 1031 q 893 890 762 1031 q 1024 505 1024 749 m 762 505 q 744 659 762 595 q 694 763 725 722 q 620 822 661 804 q 535 840 579 840 q 450 824 488 840 q 377 764 412 807 q 327 660 346 725 q 307 505 307 595 q 326 350 307 412 q 376 248 344 289 q 450 188 408 205 q 535 170 491 170 q 622 189 580 170 q 694 249 664 208 q 745 352 727 293 q 762 505 762 410 m 695 1123 l 534 1123 l 330 1390 l 555 1390 l 695 1123 z "},"Ú":{"ha":1026,"x_min":90,"x_max":936,"o":"m 513 -21 q 200 77 309 -21 q 90 365 90 176 l 90 1010 l 344 1010 l 344 380 q 384 223 344 275 q 513 172 423 172 q 641 221 600 172 q 682 380 682 271 l 682 1010 l 936 1010 l 936 366 q 829 79 936 179 q 513 -21 722 -21 m 737 1390 l 534 1123 l 372 1123 l 513 1390 l 737 1390 z "},"Û":{"ha":1026,"x_min":90,"x_max":936,"o":"m 513 -21 q 200 77 309 -21 q 90 365 90 176 l 90 1010 l 344 1010 l 344 380 q 384 223 344 275 q 513 172 423 172 q 641 221 600 172 q 682 380 682 271 l 682 1010 l 936 1010 l 936 366 q 829 79 936 179 q 513 -21 722 -21 m 791 1123 l 615 1123 l 503 1267 l 392 1123 l 219 1123 l 423 1390 l 587 1390 l 791 1123 z "},"Ù":{"ha":1026,"x_min":90,"x_max":936,"o":"m 513 -21 q 200 77 309 -21 q 90 365 90 176 l 90 1010 l 344 1010 l 344 380 q 384 223 344 275 q 513 172 423 172 q 641 221 600 172 q 682 380 682 271 l 682 1010 l 936 1010 l 936 366 q 829 79 936 179 q 513 -21 722 -21 m 644 1123 l 482 1123 l 279 1390 l 503 1390 l 644 1123 z "},"ı":{"ha":419,"x_min":91,"x_max":328,"o":"m 328 0 l 91 0 l 91 762 l 328 762 l 328 0 z "},"ˆ":{"ha":758,"x_min":94,"x_max":665,"o":"m 665 870 l 490 870 l 378 1015 l 267 870 l 94 870 l 298 1137 l 461 1137 l 665 870 z "},"˜":{"ha":758,"x_min":82,"x_max":678,"o":"m 678 1094 q 622 928 671 981 q 484 876 572 876 q 422 889 452 876 q 372 915 393 902 q 327 941 352 928 q 286 954 302 954 q 239 933 252 954 q 224 871 227 911 l 82 871 q 138 1030 86 970 q 275 1089 189 1089 q 336 1078 308 1089 q 389 1051 363 1066 q 434 1027 410 1040 q 474 1014 458 1014 q 520 1036 507 1014 q 536 1094 534 1057 l 678 1094 z "},"ˉ":{"ha":758,"x_min":114,"x_max":644,"o":"m 644 913 l 114 913 l 114 1055 l 644 1055 l 644 913 z "},"˘":{"ha":758,"x_min":129,"x_max":630,"o":"m 630 1109 q 561 917 630 983 q 380 851 492 851 q 193 917 258 851 q 129 1109 129 983 l 266 1109 q 272 1054 266 1078 q 291 1010 277 1029 q 326 982 304 992 q 380 971 347 971 q 431 982 409 971 q 467 1010 454 993 q 487 1053 481 1031 q 493 1109 493 1075 l 630 1109 z "},"˙":{"ha":758,"x_min":257,"x_max":501,"o":"m 501 870 l 257 870 l 257 1055 l 501 1055 l 501 870 z "},"˚":{"ha":758,"x_min":172,"x_max":587,"o":"m 587 964 q 527 818 587 876 q 379 760 467 760 q 232 818 292 760 q 172 964 172 877 q 232 1109 172 1050 q 379 1168 292 1168 q 527 1109 467 1168 q 587 964 587 1051 m 471 963 q 445 1034 471 1005 q 379 1063 419 1063 q 313 1035 339 1063 q 287 963 287 1006 q 313 892 287 920 q 379 864 338 864 q 446 892 420 864 q 471 963 471 921 z "},"¸":{"ha":758,"x_min":195,"x_max":566,"o":"m 563 14 q 565 -20 564 1 q 566 -58 566 -41 q 502 -228 566 -168 q 332 -287 437 -287 q 263 -282 308 -287 q 195 -271 218 -277 l 195 -135 l 208 -135 q 254 -151 224 -142 q 311 -159 283 -159 q 390 -132 359 -159 q 420 -50 420 -106 q 420 -13 420 -29 q 419 14 419 4 l 563 14 z "},"˝":{"ha":758,"x_min":122,"x_max":713,"o":"m 713 1137 l 538 870 l 396 870 l 511 1137 l 713 1137 m 439 1137 l 264 870 l 122 870 l 237 1137 l 439 1137 z "},"˛":{"ha":758,"x_min":184,"x_max":449,"o":"m 402 0 q 365 -41 377 -20 q 353 -82 353 -62 q 355 -98 353 -91 q 363 -112 357 -105 q 378 -123 370 -119 q 401 -127 386 -127 q 422 -124 411 -127 q 442 -119 434 -121 l 449 -119 l 449 -260 q 385 -275 421 -271 q 328 -280 349 -280 q 224 -247 264 -280 q 184 -163 184 -213 q 209 -68 184 -111 q 262 0 233 -25 l 402 0 z "},"ˇ":{"ha":758,"x_min":78,"x_max":677,"o":"m 677 1137 l 454 873 l 300 873 l 78 1137 l 254 1137 l 379 988 l 504 1137 l 677 1137 z "},"Ł":{"ha":818,"x_min":12,"x_max":802,"o":"m 802 0 l 127 0 l 127 321 l 12 252 l 12 415 l 127 482 l 127 1010 l 380 1010 l 380 621 l 597 751 l 597 589 l 380 460 l 380 193 l 802 193 l 802 0 z "},"ł":{"ha":465,"x_min":12,"x_max":455,"o":"m 455 535 l 351 475 l 351 0 l 114 0 l 114 346 l 12 284 l 12 442 l 114 501 l 114 1055 l 351 1055 l 351 630 l 455 693 l 455 535 z "},"Š":{"ha":880,"x_min":50,"x_max":854,"o":"m 416 -18 q 213 4 300 -18 q 50 60 125 26 l 50 300 l 73 300 q 240 201 149 235 q 418 166 332 166 q 475 171 439 166 q 532 186 511 176 q 577 218 559 197 q 595 273 595 239 q 566 334 595 311 q 494 369 536 358 q 384 395 443 382 q 275 425 326 407 q 106 536 157 466 q 56 711 56 606 q 176 940 56 852 q 475 1028 296 1028 q 655 1010 566 1028 q 814 960 744 991 l 814 730 l 792 730 q 655 811 736 778 q 488 844 574 844 q 429 840 455 844 q 373 821 402 835 q 332 789 349 810 q 315 741 315 768 q 342 680 315 703 q 448 639 370 657 q 546 616 499 627 q 647 587 593 606 q 803 485 752 549 q 854 315 854 420 q 736 73 854 165 q 416 -18 618 -18 m 770 1390 l 548 1126 l 394 1126 l 172 1390 l 347 1390 l 473 1241 l 597 1390 l 770 1390 z "},"š":{"ha":715,"x_min":40,"x_max":692,"o":"m 323 -21 q 164 -3 239 -21 q 40 40 89 16 l 40 241 l 60 241 q 98 212 77 228 q 159 180 120 197 q 234 153 192 164 q 324 142 275 142 q 413 157 374 142 q 451 207 451 173 q 433 247 451 233 q 365 273 416 260 q 296 287 338 279 q 223 305 255 295 q 89 388 134 333 q 43 531 43 442 q 67 627 43 582 q 136 707 90 672 q 248 762 181 742 q 399 783 315 783 q 546 767 479 783 q 659 728 613 751 l 659 536 l 640 536 q 602 561 628 545 q 550 589 575 577 q 483 611 520 602 q 408 620 446 620 q 320 602 356 620 q 285 555 285 585 q 302 515 285 530 q 379 486 320 500 q 449 471 410 478 q 526 452 489 464 q 650 374 608 425 q 692 238 692 323 q 667 136 692 184 q 596 54 642 87 q 481 -1 547 18 q 323 -21 415 -21 m 677 1137 l 454 873 l 300 873 l 78 1137 l 254 1137 l 379 988 l 504 1137 l 677 1137 z "},"Ž":{"ha":865,"x_min":37,"x_max":838,"o":"m 838 0 l 37 0 l 37 189 l 501 817 l 61 817 l 61 1010 l 810 1010 l 810 817 l 347 193 l 838 193 l 838 0 m 732 1390 l 510 1126 l 356 1126 l 134 1390 l 309 1390 l 435 1241 l 559 1390 l 732 1390 z "},"ž":{"ha":730,"x_min":33,"x_max":699,"o":"m 699 0 l 33 0 l 33 157 l 396 583 l 49 583 l 49 762 l 691 762 l 691 608 l 327 182 l 699 182 l 699 0 m 673 1137 l 451 873 l 297 873 l 75 1137 l 250 1137 l 376 988 l 500 1137 l 673 1137 z "},"¦":{"ha":884,"x_min":347,"x_max":537,"o":"m 537 514 l 347 514 l 347 1055 l 537 1055 l 537 514 m 537 -266 l 347 -266 l 347 275 l 537 275 l 537 -266 z "},"Ð":{"ha":1075,"x_min":12,"x_max":1029,"o":"m 1029 504 q 968 251 1029 363 q 812 80 906 140 q 640 15 732 30 q 444 0 548 0 l 128 0 l 128 462 l 12 462 l 12 617 l 128 617 l 128 1010 l 441 1010 q 640 996 547 1010 q 814 930 733 983 q 972 759 914 867 q 1029 504 1029 650 m 769 506 q 735 676 769 606 q 629 787 701 747 q 522 819 579 816 q 386 821 465 821 l 380 821 l 380 617 l 597 617 l 597 462 l 380 462 l 380 189 l 386 189 q 530 192 471 189 q 642 229 589 195 q 736 337 704 268 q 769 506 769 406 z "},"ð":{"ha":861,"x_min":35,"x_max":822,"o":"m 767 719 q 807 596 792 661 q 822 451 822 530 q 720 101 822 225 q 425 -24 618 -24 q 142 74 249 -24 q 35 351 35 172 q 63 497 35 432 q 143 609 92 562 q 258 676 192 653 q 395 699 323 699 q 483 690 443 699 q 565 660 523 682 q 520 745 551 699 q 450 831 489 792 l 234 741 l 180 859 l 349 926 q 253 998 300 968 q 174 1038 206 1027 l 174 1055 l 465 1055 q 490 1040 472 1053 q 539 1004 507 1027 l 684 1066 l 737 949 l 642 909 q 714 815 684 861 q 767 719 745 770 m 539 205 q 570 286 559 237 q 581 412 581 334 q 579 451 581 429 q 576 483 578 474 q 508 523 543 511 q 435 536 474 536 q 319 489 359 536 q 280 355 280 442 q 319 202 280 257 q 432 146 357 146 q 493 160 465 146 q 539 205 521 174 z "},"Ý":{"ha":931,"x_min":-13,"x_max":944,"o":"m 944 1010 l 595 422 l 595 0 l 342 0 l 342 409 l -13 1010 l 276 1010 l 474 649 l 665 1010 l 944 1010 m 732 1383 l 528 1116 l 367 1116 l 507 1383 l 732 1383 z "},"ý":{"ha":800,"x_min":-2,"x_max":802,"o":"m 802 762 l 417 -279 l 162 -279 l 277 18 l -2 762 l 248 762 l 408 284 l 557 762 l 802 762 m 650 1137 l 446 870 l 285 870 l 425 1137 l 650 1137 z "},"Þ":{"ha":916,"x_min":104,"x_max":882,"o":"m 882 538 q 859 404 882 468 q 795 298 837 340 q 660 207 734 236 q 491 178 585 178 l 358 178 l 358 0 l 104 0 l 104 1010 l 358 1010 l 358 857 l 496 857 q 647 841 584 857 q 762 791 711 825 q 850 689 819 753 q 882 538 882 626 m 621 532 q 601 606 621 575 q 552 648 581 637 q 483 666 516 664 q 394 669 450 669 l 358 669 l 358 366 l 376 366 q 444 367 412 366 q 499 372 475 368 q 542 385 519 375 q 577 407 565 395 q 612 459 603 432 q 621 532 621 486 z "},"þ":{"ha":874,"x_min":91,"x_max":838,"o":"m 838 391 q 745 97 838 209 q 517 -15 652 -15 q 418 -2 460 -15 q 328 38 376 11 l 328 -279 l 91 -279 l 91 1055 l 328 1055 l 328 682 q 435 755 380 727 q 560 783 489 783 q 765 677 692 783 q 838 391 838 572 m 595 387 q 561 548 595 498 q 454 598 526 598 q 390 588 422 598 q 328 557 359 578 l 328 174 q 370 163 347 166 q 424 159 393 159 q 553 216 511 159 q 595 387 595 273 z "},"−":{"ha":1137,"x_min":143,"x_max":994,"o":"m 994 358 l 143 358 l 143 533 l 994 533 l 994 358 z "},"×":{"ha":1137,"x_min":161,"x_max":978,"o":"m 978 159 l 856 37 l 570 324 l 287 41 l 165 163 l 448 446 l 161 732 l 283 854 l 570 567 l 852 850 l 975 728 l 691 446 l 978 159 z "},"¹":{"ha":749,"x_min":155,"x_max":622,"o":"m 622 384 l 160 384 l 160 511 l 303 511 l 303 800 l 155 800 l 155 921 q 276 941 231 921 q 327 1013 321 962 l 486 1013 l 486 511 l 622 511 l 622 384 z "},"²":{"ha":749,"x_min":120,"x_max":656,"o":"m 656 384 l 120 384 l 120 512 q 216 573 168 541 q 300 633 264 604 q 391 724 370 689 q 411 800 411 759 q 384 861 411 839 q 304 882 356 882 q 211 862 257 882 q 140 828 165 842 l 124 828 l 124 989 q 230 1018 172 1005 q 358 1030 289 1030 q 549 980 483 1030 q 614 836 614 930 q 589 727 614 777 q 488 610 563 677 q 438 569 465 589 q 376 524 411 549 l 656 524 l 656 384 z "},"³":{"ha":749,"x_min":116,"x_max":640,"o":"m 640 562 q 570 419 640 471 q 353 368 500 368 q 210 379 267 368 q 116 407 154 391 l 116 553 l 131 553 q 210 523 156 539 q 314 506 263 506 q 415 522 384 506 q 446 575 446 538 q 424 623 446 608 q 339 637 402 637 l 237 637 l 237 770 l 329 770 q 407 786 385 770 q 429 833 429 802 q 401 878 429 864 q 315 892 374 892 q 220 876 271 892 q 141 844 168 859 l 126 844 l 126 989 q 228 1017 170 1004 q 366 1030 286 1030 q 557 988 490 1030 q 624 869 624 947 q 591 770 624 808 q 509 715 559 732 l 509 710 q 601 662 563 699 q 640 562 640 625 z "},"½":{"ha":1567,"x_min":97,"x_max":1503,"o":"m 433 379 l 249 379 l 249 791 l 97 791 l 97 914 q 221 938 175 914 q 273 1013 267 962 l 433 1013 l 433 379 m 1087 1016 l 555 0 l 376 0 l 908 1016 l 1087 1016 m 1503 0 l 967 0 l 967 128 q 1063 189 1015 157 q 1147 249 1112 221 q 1238 340 1217 305 q 1258 416 1258 375 q 1231 477 1258 455 q 1152 498 1203 498 q 1058 478 1104 498 q 987 444 1012 458 l 971 444 l 971 605 q 1077 634 1019 621 q 1205 646 1136 646 q 1396 596 1330 646 q 1461 452 1461 546 q 1436 343 1461 393 q 1335 226 1410 293 q 1285 185 1312 205 q 1223 140 1258 165 l 1503 140 l 1503 0 z "},"¼":{"ha":1567,"x_min":111,"x_max":1477,"o":"m 447 379 l 262 379 l 262 791 l 111 791 l 111 914 q 235 938 189 914 q 286 1013 281 962 l 447 1013 l 447 379 m 1107 1016 l 575 0 l 396 0 l 928 1016 l 1107 1016 m 1477 134 l 1367 134 l 1367 0 l 1192 0 l 1192 134 l 876 134 l 876 311 l 1181 640 l 1367 640 l 1367 260 l 1477 260 l 1477 134 m 1194 260 l 1194 487 l 977 260 l 1194 260 z "},"¾":{"ha":1567,"x_min":96,"x_max":1531,"o":"m 619 562 q 550 419 619 471 q 333 368 480 368 q 190 379 246 368 q 96 407 134 391 l 96 553 l 111 553 q 189 523 136 539 q 294 506 243 506 q 394 522 363 506 q 425 575 425 538 q 404 623 425 608 q 319 637 382 637 l 217 637 l 217 770 l 309 770 q 387 786 364 770 q 409 833 409 802 q 381 878 409 864 q 294 892 353 892 q 199 876 251 892 q 121 844 148 859 l 106 844 l 106 989 q 207 1017 149 1004 q 345 1030 265 1030 q 537 988 470 1030 q 604 869 604 947 q 571 770 604 808 q 488 715 538 732 l 488 710 q 581 662 543 699 q 619 562 619 625 m 1182 1016 l 650 0 l 471 0 l 1003 1016 l 1182 1016 m 1531 134 l 1421 134 l 1421 0 l 1246 0 l 1246 134 l 930 134 l 930 311 l 1236 640 l 1421 640 l 1421 260 l 1531 260 l 1531 134 m 1249 260 l 1249 487 l 1031 260 l 1249 260 z "},"₣":{"ha":884,"x_min":26,"x_max":803,"o":"m 803 819 l 389 819 l 389 642 l 781 642 l 781 451 l 389 451 l 389 323 l 591 323 l 591 174 l 389 174 l 389 0 l 144 0 l 144 174 l 26 174 l 26 323 l 144 323 l 144 1010 l 803 1010 l 803 819 z "},"Ğ":{"ha":1035,"x_min":45,"x_max":948,"o":"m 948 58 q 775 5 882 31 q 566 -21 669 -21 q 187 116 328 -21 q 45 506 45 254 q 187 886 45 743 q 574 1029 328 1029 q 780 1005 701 1029 q 944 940 859 981 l 944 703 l 921 703 q 868 744 903 718 q 802 788 834 770 q 714 825 764 810 q 608 841 664 841 q 490 821 543 841 q 394 758 436 800 q 331 655 354 718 q 307 510 307 593 q 396 249 307 333 q 639 165 485 165 q 671 165 652 165 q 703 168 689 166 l 703 366 l 507 366 l 507 555 l 948 555 l 948 58 m 802 1362 q 733 1170 802 1236 q 552 1104 665 1104 q 366 1170 430 1104 q 301 1362 301 1236 l 438 1362 q 444 1307 438 1331 q 463 1263 450 1282 q 498 1235 477 1245 q 552 1224 519 1224 q 604 1235 581 1224 q 639 1263 626 1246 q 660 1306 654 1284 q 665 1362 665 1328 l 802 1362 z "},"ğ":{"ha":874,"x_min":37,"x_max":783,"o":"m 546 240 l 546 585 q 503 599 528 593 q 451 604 477 604 q 322 549 366 604 q 279 395 279 494 q 286 311 279 345 q 310 250 292 277 q 354 211 327 224 q 425 198 382 198 q 487 209 456 198 q 546 240 518 220 m 783 87 q 753 -92 783 -18 q 669 -208 722 -166 q 543 -268 616 -250 q 378 -287 469 -287 q 234 -277 302 -287 q 116 -254 166 -267 l 116 -64 l 144 -64 q 185 -79 161 -71 q 234 -94 210 -87 q 291 -106 263 -101 q 348 -111 319 -111 q 449 -98 408 -111 q 509 -62 489 -85 q 538 -6 530 -39 q 546 75 546 26 l 546 89 q 453 32 506 54 q 345 11 401 11 q 117 107 197 11 q 37 400 37 203 q 61 561 37 490 q 130 682 86 632 q 232 756 172 730 q 356 783 292 783 q 460 768 414 783 q 545 728 507 753 l 553 762 l 783 762 l 783 87 m 698 1109 q 629 917 698 983 q 448 851 560 851 q 261 917 326 851 q 197 1109 197 983 l 334 1109 q 339 1054 334 1078 q 359 1010 345 1029 q 393 982 372 992 q 448 971 414 971 q 499 982 477 971 q 534 1010 522 993 q 555 1053 549 1031 q 561 1109 561 1075 l 698 1109 z "},"İ":{"ha":671,"x_min":64,"x_max":608,"o":"m 608 0 l 64 0 l 64 176 l 209 176 l 209 833 l 64 833 l 64 1010 l 608 1010 l 608 833 l 463 833 l 463 176 l 608 176 l 608 0 m 456 1123 l 212 1123 l 212 1308 l 456 1308 l 456 1123 z "},"Ş":{"ha":880,"x_min":50,"x_max":854,"o":"m 416 -16 q 213 5 300 -16 q 50 60 125 26 l 50 300 l 73 300 q 240 201 149 235 q 418 166 332 166 q 475 171 439 166 q 532 186 511 176 q 577 218 559 197 q 595 273 595 239 q 566 334 595 311 q 494 369 536 358 q 384 395 443 382 q 275 425 326 407 q 106 536 157 466 q 56 711 56 606 q 176 940 56 852 q 475 1028 296 1028 q 655 1010 566 1028 q 814 960 744 991 l 814 730 l 792 730 q 655 811 736 778 q 488 844 574 844 q 429 840 455 844 q 373 821 402 835 q 332 789 349 810 q 315 741 315 768 q 342 680 315 703 q 448 639 370 657 q 546 616 499 627 q 647 587 593 606 q 803 485 752 549 q 854 315 854 420 q 796 134 854 210 q 631 18 737 57 q 634 -22 632 3 q 636 -58 636 -46 q 571 -228 636 -168 q 402 -287 507 -287 q 333 -282 378 -287 q 264 -271 288 -277 l 264 -135 l 277 -135 q 323 -151 294 -142 q 380 -159 353 -159 q 433 -149 410 -159 q 467 -125 456 -139 q 485 -92 479 -111 q 490 -50 490 -73 q 490 -45 490 -49 q 490 -36 490 -41 q 490 -25 490 -32 q 489 -12 490 -19 q 453 -14 472 -13 q 416 -16 435 -16 z "},"ş":{"ha":715,"x_min":40,"x_max":692,"o":"m 323 -18 q 164 -1 239 -18 q 40 40 89 16 l 40 241 l 60 241 q 98 212 77 228 q 159 180 120 197 q 234 153 192 164 q 324 142 275 142 q 413 157 374 142 q 451 207 451 173 q 433 247 451 233 q 365 273 416 260 q 296 287 338 279 q 223 305 255 295 q 89 388 134 333 q 43 531 43 442 q 67 627 43 582 q 136 707 90 672 q 248 762 181 742 q 399 783 315 783 q 546 767 479 783 q 659 728 613 751 l 659 536 l 640 536 q 602 561 628 545 q 550 589 575 577 q 483 611 520 602 q 408 620 446 620 q 320 602 356 620 q 285 555 285 585 q 302 515 285 530 q 379 486 320 500 q 449 471 410 478 q 526 452 489 464 q 650 374 608 425 q 692 238 692 323 q 667 136 692 184 q 596 55 642 88 q 568 37 583 45 q 538 22 553 29 q 542 -15 540 7 q 543 -58 543 -37 q 478 -228 543 -168 q 309 -287 414 -287 q 240 -282 285 -287 q 172 -271 195 -277 l 172 -135 l 184 -135 q 231 -151 201 -142 q 288 -159 260 -159 q 340 -149 317 -159 q 374 -125 363 -139 q 392 -92 386 -111 q 397 -50 397 -73 q 397 -45 397 -49 q 397 -37 397 -42 q 397 -25 397 -31 q 397 -14 397 -20 q 361 -17 380 -16 q 323 -18 342 -18 z "},"Ć":{"ha":927,"x_min":45,"x_max":882,"o":"m 540 -20 q 179 118 313 -20 q 45 504 45 255 q 179 887 45 744 q 541 1029 313 1029 q 649 1023 601 1029 q 741 1004 697 1016 q 817 976 776 994 q 882 945 857 958 l 882 705 l 857 705 q 810 744 838 721 q 747 788 783 766 q 670 825 712 810 q 581 840 627 840 q 480 823 526 840 q 393 763 435 806 q 331 659 355 724 q 307 503 307 593 q 332 345 307 409 q 398 241 357 281 q 486 186 437 203 q 583 170 534 170 q 678 186 633 170 q 755 223 724 203 q 814 266 789 244 q 859 304 840 288 l 882 304 l 882 67 q 818 38 854 54 q 743 9 781 21 q 654 -12 695 -5 q 540 -20 612 -20 m 748 1390 l 545 1123 l 383 1123 l 524 1390 l 748 1390 z "},"ć":{"ha":732,"x_min":35,"x_max":711,"o":"m 465 -20 q 292 3 370 -20 q 156 77 214 27 q 67 201 99 126 q 35 378 35 276 q 70 564 35 487 q 163 690 104 640 q 297 760 220 737 q 458 783 374 783 q 584 768 521 783 q 711 722 647 753 l 711 518 l 680 518 q 645 548 666 532 q 600 578 625 564 q 542 602 574 592 q 469 612 509 612 q 329 548 378 612 q 279 378 279 485 q 332 207 279 263 q 473 151 385 151 q 552 161 518 151 q 610 185 586 171 q 651 215 634 199 q 680 242 668 230 l 711 242 l 711 39 q 664 18 690 30 q 609 -1 637 7 q 544 -15 574 -10 q 465 -20 514 -20 m 650 1137 l 447 870 l 286 870 l 426 1137 l 650 1137 z "},"Č":{"ha":927,"x_min":45,"x_max":882,"o":"m 540 -20 q 179 118 313 -20 q 45 504 45 255 q 179 887 45 744 q 541 1029 313 1029 q 649 1023 601 1029 q 741 1004 697 1016 q 817 976 776 994 q 882 945 857 958 l 882 705 l 857 705 q 810 744 838 721 q 747 788 783 766 q 670 825 712 810 q 581 840 627 840 q 480 823 526 840 q 393 763 435 806 q 331 659 355 724 q 307 503 307 593 q 332 345 307 409 q 398 241 357 281 q 486 186 437 203 q 583 170 534 170 q 678 186 633 170 q 755 223 724 203 q 814 266 789 244 q 859 304 840 288 l 882 304 l 882 67 q 818 38 854 54 q 743 9 781 21 q 654 -12 695 -5 q 540 -20 612 -20 m 833 1390 l 610 1126 l 456 1126 l 234 1390 l 410 1390 l 535 1241 l 660 1390 l 833 1390 z "},"č":{"ha":732,"x_min":35,"x_max":721,"o":"m 465 -20 q 292 3 370 -20 q 156 77 214 27 q 67 201 99 126 q 35 378 35 276 q 70 564 35 487 q 163 690 104 640 q 297 760 220 737 q 458 783 374 783 q 584 768 521 783 q 711 722 647 753 l 711 518 l 680 518 q 645 548 666 532 q 600 578 625 564 q 542 602 574 592 q 469 612 509 612 q 329 548 378 612 q 279 378 279 485 q 332 207 279 263 q 473 151 385 151 q 552 161 518 151 q 610 185 586 171 q 651 215 634 199 q 680 242 668 230 l 711 242 l 711 39 q 664 18 690 30 q 609 -1 637 7 q 544 -15 574 -10 q 465 -20 514 -20 m 721 1137 l 498 873 l 345 873 l 122 1137 l 298 1137 l 423 988 l 548 1137 l 721 1137 z "},"đ":{"ha":868,"x_min":37,"x_max":869,"o":"m 782 0 l 546 0 l 546 79 q 493 39 523 60 q 441 6 464 17 q 385 -14 413 -7 q 319 -21 357 -21 q 113 87 189 -21 q 37 375 37 195 q 62 548 37 475 q 134 675 88 621 q 233 751 173 722 q 359 781 293 781 q 457 768 418 781 q 546 729 495 755 l 546 839 l 330 839 l 330 979 l 546 979 l 546 1055 l 782 1055 l 782 979 l 869 979 l 869 839 l 782 839 l 782 0 m 546 210 l 546 582 q 500 596 528 591 q 451 602 471 602 q 322 544 366 602 q 279 378 279 485 q 314 215 279 265 q 425 165 348 165 q 488 177 456 165 q 546 210 519 189 z "},"¯":{"ha":884,"x_min":-11,"x_max":895,"o":"m 895 1107 l -11 1107 l -11 1243 l 895 1243 l 895 1107 z "},"·":{"ha":505,"x_min":132,"x_max":372,"o":"m 372 495 l 132 495 l 132 762 l 372 762 l 372 495 z "},"Ă":{"ha":951,"x_min":-4,"x_max":955,"o":"m -4 0 l 337 1010 l 614 1010 l 955 0 l 694 0 l 631 206 l 313 206 l 250 0 l -4 0 m 575 389 l 472 722 l 369 389 l 575 389 m 726 1362 q 657 1170 726 1236 q 475 1104 588 1104 q 289 1170 353 1104 q 224 1362 224 1236 l 361 1362 q 367 1307 361 1331 q 387 1263 373 1282 q 421 1235 400 1245 q 475 1224 442 1224 q 527 1235 505 1224 q 562 1263 549 1246 q 583 1306 577 1284 q 589 1362 589 1328 l 726 1362 z "},"ă":{"ha":831,"x_min":34,"x_max":747,"o":"m 511 199 l 511 357 q 413 347 450 351 q 340 330 376 342 q 291 297 309 319 q 274 238 274 275 q 303 164 274 184 q 388 144 332 144 q 452 159 419 144 q 511 199 484 173 m 511 81 q 467 44 486 60 q 415 12 448 28 q 353 -12 383 -4 q 269 -20 323 -20 q 101 47 168 -20 q 34 218 34 115 q 68 355 34 303 q 165 438 102 408 q 319 481 230 469 q 512 500 409 494 l 512 505 q 466 592 512 568 q 326 616 419 616 q 228 601 284 616 q 118 562 172 585 l 98 562 l 98 745 q 212 769 133 755 q 370 783 290 783 q 657 718 567 783 q 747 518 747 652 l 747 0 l 511 0 l 511 81 m 660 1109 q 591 917 660 983 q 410 851 522 851 q 223 917 288 851 q 159 1109 159 983 l 296 1109 q 301 1054 296 1078 q 321 1010 307 1029 q 355 982 334 992 q 410 971 376 971 q 461 982 439 971 q 496 1010 484 993 q 517 1053 511 1031 q 523 1109 523 1075 l 660 1109 z "},"Ą":{"ha":951,"x_min":-4,"x_max":955,"o":"m -4 0 l 337 1010 l 614 1010 l 955 0 l 694 0 l 631 206 l 313 206 l 250 0 l -4 0 m 575 389 l 472 722 l 369 389 l 575 389 m 889 0 q 852 -41 864 -20 q 840 -82 840 -62 q 842 -98 840 -91 q 850 -112 844 -105 q 865 -123 857 -119 q 888 -127 873 -127 q 909 -124 898 -127 q 929 -119 921 -121 l 936 -119 l 936 -260 q 872 -275 908 -271 q 814 -280 836 -280 q 711 -247 751 -280 q 671 -163 671 -213 q 696 -68 671 -111 q 749 0 720 -25 l 889 0 z "},"ą":{"ha":831,"x_min":34,"x_max":747,"o":"m 511 199 l 511 357 q 413 347 450 351 q 340 330 376 342 q 291 297 309 319 q 274 238 274 275 q 303 164 274 184 q 388 144 332 144 q 452 159 419 144 q 511 199 484 173 m 511 81 q 467 44 486 60 q 415 12 448 28 q 353 -12 383 -4 q 269 -20 323 -20 q 101 47 168 -20 q 34 218 34 115 q 68 355 34 303 q 165 438 102 408 q 319 481 230 469 q 512 500 409 494 l 512 505 q 466 592 512 568 q 326 616 419 616 q 228 601 284 616 q 118 562 172 585 l 98 562 l 98 745 q 212 769 133 755 q 370 783 290 783 q 657 718 567 783 q 747 518 747 652 l 747 0 l 511 0 l 511 81 m 701 0 q 663 -41 675 -20 q 651 -82 651 -62 q 653 -98 651 -91 q 662 -112 656 -105 q 676 -123 669 -119 q 699 -127 684 -127 q 721 -124 709 -127 q 741 -119 732 -121 l 747 -119 l 747 -260 q 683 -275 720 -271 q 626 -280 647 -280 q 523 -247 562 -280 q 483 -163 483 -213 q 507 -68 483 -111 q 561 0 532 -25 l 701 0 z "},"Ď":{"ha":1052,"x_min":104,"x_max":1006,"o":"m 1006 504 q 945 251 1006 363 q 789 80 883 140 q 617 15 710 29 q 420 0 525 0 l 104 0 l 104 1010 l 418 1010 q 617 996 524 1010 q 791 930 710 983 q 949 759 891 867 q 1006 504 1006 650 m 746 506 q 712 676 746 606 q 606 787 677 747 q 498 819 555 816 q 363 821 441 821 l 358 821 l 358 189 l 363 189 q 507 192 448 189 q 618 229 566 195 q 713 337 681 268 q 746 506 746 406 m 808 1390 l 586 1126 l 432 1126 l 210 1390 l 385 1390 l 511 1241 l 635 1390 l 808 1390 z "},"ď":{"ha":1135,"x_min":37,"x_max":1168,"o":"m 783 0 l 546 0 l 546 79 q 493 39 523 60 q 441 6 464 17 q 385 -14 413 -7 q 319 -21 357 -21 q 113 87 189 -21 q 37 375 37 195 q 62 548 37 475 q 134 675 88 621 q 234 754 175 725 q 359 783 293 783 q 457 770 418 783 q 546 731 495 758 l 546 1055 l 783 1055 l 783 0 m 546 210 l 546 584 q 500 598 528 593 q 451 604 471 604 q 322 545 366 604 q 279 378 279 485 q 314 215 279 265 q 425 165 348 165 q 488 177 456 165 q 546 210 519 189 m 1168 1055 l 1010 680 l 858 680 l 939 1055 l 1168 1055 z "},"Đ":{"ha":1075,"x_min":12,"x_max":1029,"o":"m 1029 504 q 968 251 1029 363 q 812 80 906 140 q 640 15 732 30 q 444 0 548 0 l 128 0 l 128 462 l 12 462 l 12 617 l 128 617 l 128 1010 l 441 1010 q 640 996 547 1010 q 814 930 733 983 q 972 759 914 867 q 1029 504 1029 650 m 769 506 q 735 676 769 606 q 629 787 701 747 q 522 819 579 816 q 386 821 465 821 l 380 821 l 380 617 l 597 617 l 597 462 l 380 462 l 380 189 l 386 189 q 530 192 471 189 q 642 229 589 195 q 736 337 704 268 q 769 506 769 406 z "},"Ę":{"ha":854,"x_min":104,"x_max":787,"o":"m 104 0 l 104 1010 l 787 1010 l 787 817 l 357 817 l 357 640 l 753 640 l 753 448 l 357 448 l 357 193 l 787 193 l 787 0 l 104 0 m 741 0 q 703 -41 715 -20 q 691 -82 691 -62 q 693 -98 691 -91 q 702 -112 696 -105 q 716 -123 709 -119 q 739 -127 724 -127 q 761 -124 749 -127 q 781 -119 772 -121 l 787 -119 l 787 -260 q 723 -275 760 -271 q 666 -280 687 -280 q 563 -247 602 -280 q 523 -163 523 -213 q 547 -68 523 -111 q 601 0 572 -25 l 741 0 z "},"ę":{"ha":825,"x_min":35,"x_max":793,"o":"m 481 -20 q 150 83 265 -20 q 35 376 35 186 q 142 674 35 563 q 442 785 250 785 q 705 691 617 785 q 793 421 793 597 l 793 336 l 273 336 q 296 247 277 283 q 346 191 315 212 q 417 160 376 170 q 506 151 458 151 q 587 160 547 151 q 661 184 627 170 q 714 212 690 197 q 755 239 739 227 l 780 239 l 780 43 q 753 32 766 37 q 726 21 741 27 q 707 2 713 9 q 690 -20 701 -5 q 673 -49 680 -34 q 667 -82 667 -64 q 680 -115 667 -102 q 715 -127 693 -127 q 736 -124 725 -127 q 756 -119 748 -121 l 763 -119 l 763 -260 q 699 -275 735 -271 q 642 -280 663 -280 q 538 -246 577 -280 q 498 -163 498 -212 q 559 -17 498 -81 q 481 -20 515 -20 m 559 479 q 525 593 557 554 q 424 633 492 633 q 316 591 355 633 q 273 479 277 550 l 559 479 z "},"Ě":{"ha":854,"x_min":104,"x_max":787,"o":"m 104 0 l 104 1010 l 787 1010 l 787 817 l 357 817 l 357 640 l 753 640 l 753 448 l 357 448 l 357 193 l 787 193 l 787 0 l 104 0 m 750 1390 l 528 1126 l 374 1126 l 151 1390 l 327 1390 l 452 1241 l 577 1390 l 750 1390 z "},"ě":{"ha":825,"x_min":35,"x_max":793,"o":"m 481 -20 q 150 83 265 -20 q 35 376 35 186 q 142 674 35 563 q 442 785 250 785 q 705 691 617 785 q 793 421 793 597 l 793 336 l 273 336 q 296 247 277 283 q 346 191 315 212 q 417 160 376 170 q 506 151 458 151 q 587 160 547 151 q 661 184 627 170 q 714 212 690 197 q 755 239 739 227 l 780 239 l 780 43 q 727 21 751 31 q 661 1 703 12 q 581 -15 622 -9 q 481 -20 540 -20 m 559 479 q 525 593 557 554 q 424 633 492 633 q 316 591 355 633 q 273 479 277 550 l 559 479 m 736 1137 l 514 873 l 360 873 l 138 1137 l 313 1137 l 439 988 l 564 1137 l 736 1137 z "},"Ĺ":{"ha":795,"x_min":104,"x_max":779,"o":"m 779 0 l 104 0 l 104 1010 l 358 1010 l 358 193 l 779 193 l 779 0 m 583 1390 l 379 1123 l 218 1123 l 358 1390 l 583 1390 z "},"ĺ":{"ha":419,"x_min":68,"x_max":433,"o":"m 328 0 l 91 0 l 91 1055 l 328 1055 l 328 0 m 433 1399 l 230 1133 l 68 1133 l 209 1399 l 433 1399 z "},"Ľ":{"ha":795,"x_min":104,"x_max":811,"o":"m 779 0 l 104 0 l 104 1010 l 358 1010 l 358 193 l 779 193 l 779 0 m 811 1055 l 650 673 l 494 673 l 575 1055 l 811 1055 z "},"ľ":{"ha":680,"x_min":91,"x_max":713,"o":"m 328 0 l 91 0 l 91 1055 l 328 1055 l 328 0 m 713 1055 l 555 680 l 403 680 l 484 1055 l 713 1055 z "},"Ŀ":{"ha":795,"x_min":104,"x_max":779,"o":"m 779 0 l 104 0 l 104 1010 l 358 1010 l 358 193 l 779 193 l 779 0 m 738 410 l 519 410 l 519 646 l 738 646 l 738 410 z "},"ŀ":{"ha":677,"x_min":91,"x_max":654,"o":"m 328 0 l 91 0 l 91 1055 l 328 1055 l 328 0 m 654 410 l 442 410 l 442 646 l 654 646 l 654 410 z "},"Ń":{"ha":1070,"x_min":104,"x_max":970,"o":"m 970 0 l 726 0 l 336 704 l 336 0 l 104 0 l 104 1010 l 416 1010 l 738 431 l 738 1010 l 970 1010 l 970 0 m 779 1390 l 575 1123 l 414 1123 l 554 1390 l 779 1390 z "},"ń":{"ha":889,"x_min":91,"x_max":804,"o":"m 804 0 l 566 0 l 566 378 q 562 470 566 424 q 548 537 558 515 q 513 574 536 563 q 451 585 490 585 q 392 574 422 585 q 328 540 362 564 l 328 0 l 91 0 l 91 762 l 328 762 l 328 677 q 442 755 387 727 q 564 783 497 783 q 743 709 681 783 q 804 496 804 635 l 804 0 m 675 1137 l 472 870 l 311 870 l 451 1137 l 675 1137 z "},"Ň":{"ha":1070,"x_min":104,"x_max":970,"o":"m 970 0 l 726 0 l 336 704 l 336 0 l 104 0 l 104 1010 l 416 1010 l 738 431 l 738 1010 l 970 1010 l 970 0 m 849 1390 l 627 1126 l 473 1126 l 250 1390 l 426 1390 l 551 1241 l 676 1390 l 849 1390 z "},"ň":{"ha":889,"x_min":91,"x_max":804,"o":"m 804 0 l 566 0 l 566 378 q 562 470 566 424 q 548 537 558 515 q 513 574 536 563 q 451 585 490 585 q 392 574 422 585 q 328 540 362 564 l 328 0 l 91 0 l 91 762 l 328 762 l 328 677 q 442 755 387 727 q 564 783 497 783 q 743 709 681 783 q 804 496 804 635 l 804 0 m 753 1137 l 530 873 l 376 873 l 154 1137 l 330 1137 l 455 988 l 580 1137 l 753 1137 z "},"Ő":{"ha":1069,"x_min":45,"x_max":1024,"o":"m 1024 505 q 893 119 1024 260 q 534 -21 762 -21 q 176 121 306 -21 q 45 505 45 263 q 176 889 45 748 q 534 1031 306 1031 q 893 890 762 1031 q 1024 505 1024 749 m 762 505 q 744 659 762 595 q 694 763 725 722 q 620 822 661 804 q 535 840 579 840 q 450 824 488 840 q 377 764 412 807 q 327 660 346 725 q 307 505 307 595 q 326 350 307 412 q 376 248 344 289 q 450 188 408 205 q 535 170 491 170 q 622 189 580 170 q 694 249 664 208 q 745 352 727 293 q 762 505 762 410 m 878 1390 l 703 1123 l 562 1123 l 676 1390 l 878 1390 m 604 1390 l 429 1123 l 288 1123 l 402 1390 l 604 1390 z "},"ő":{"ha":857,"x_min":35,"x_max":822,"o":"m 822 380 q 719 84 822 193 q 429 -24 616 -24 q 139 84 242 -24 q 35 380 35 193 q 139 678 35 570 q 429 785 242 785 q 719 677 616 785 q 822 380 822 569 m 578 379 q 567 492 578 447 q 536 564 556 537 q 489 604 515 593 q 429 615 463 615 q 371 605 397 615 q 323 568 345 595 q 291 495 303 541 q 279 379 279 449 q 290 266 279 309 q 320 197 302 223 q 368 159 339 171 q 431 146 396 146 q 489 159 459 146 q 536 195 518 171 q 568 266 557 224 q 578 379 578 307 m 776 1137 l 601 870 l 459 870 l 574 1137 l 776 1137 m 502 1137 l 327 870 l 185 870 l 300 1137 l 502 1137 z "},"Ŕ":{"ha":1008,"x_min":104,"x_max":1038,"o":"m 1038 0 l 729 0 l 448 370 l 357 370 l 357 0 l 104 0 l 104 1010 l 511 1010 q 657 999 595 1010 q 772 956 720 989 q 859 868 827 921 q 890 732 890 814 q 838 544 890 616 q 699 429 786 472 l 1038 0 m 630 701 q 615 766 630 739 q 567 808 601 793 q 514 821 543 819 q 441 824 485 824 l 357 824 l 357 552 l 429 552 q 519 558 482 552 q 582 586 556 565 q 618 631 606 605 q 630 701 630 658 m 725 1390 l 522 1123 l 360 1123 l 500 1390 l 725 1390 z "},"ŕ":{"ha":602,"x_min":91,"x_max":602,"o":"m 602 537 l 583 537 q 543 544 569 542 q 486 547 517 547 q 408 536 449 547 q 328 510 367 525 l 328 0 l 91 0 l 91 762 l 328 762 l 328 652 q 373 690 345 667 q 426 726 402 713 q 486 753 452 742 q 551 764 520 764 q 576 764 562 764 q 602 762 591 763 l 602 537 m 558 1137 l 355 870 l 193 870 l 334 1137 l 558 1137 z "},"Ř":{"ha":1008,"x_min":104,"x_max":1038,"o":"m 1038 0 l 729 0 l 448 370 l 357 370 l 357 0 l 104 0 l 104 1010 l 511 1010 q 657 999 595 1010 q 772 956 720 989 q 859 868 827 921 q 890 732 890 814 q 838 544 890 616 q 699 429 786 472 l 1038 0 m 630 701 q 615 766 630 739 q 567 808 601 793 q 514 821 543 819 q 441 824 485 824 l 357 824 l 357 552 l 429 552 q 519 558 482 552 q 582 586 556 565 q 618 631 606 605 q 630 701 630 658 m 784 1390 l 562 1126 l 408 1126 l 185 1390 l 361 1390 l 486 1241 l 611 1390 l 784 1390 z "},"ř":{"ha":602,"x_min":32,"x_max":631,"o":"m 602 537 l 583 537 q 543 544 569 542 q 486 547 517 547 q 408 536 449 547 q 328 510 367 525 l 328 0 l 91 0 l 91 762 l 328 762 l 328 652 q 373 690 345 667 q 426 726 402 713 q 486 753 452 742 q 551 764 520 764 q 576 764 562 764 q 602 762 591 763 l 602 537 m 631 1137 l 408 873 l 254 873 l 32 1137 l 208 1137 l 333 988 l 458 1137 l 631 1137 z "},"Ś":{"ha":880,"x_min":50,"x_max":854,"o":"m 416 -18 q 213 4 300 -18 q 50 60 125 26 l 50 300 l 73 300 q 240 201 149 235 q 418 166 332 166 q 475 171 439 166 q 532 186 511 176 q 577 218 559 197 q 595 273 595 239 q 566 334 595 311 q 494 369 536 358 q 384 395 443 382 q 275 425 326 407 q 106 536 157 466 q 56 711 56 606 q 176 940 56 852 q 475 1028 296 1028 q 655 1010 566 1028 q 814 960 744 991 l 814 730 l 792 730 q 655 811 736 778 q 488 844 574 844 q 429 840 455 844 q 373 821 402 835 q 332 789 349 810 q 315 741 315 768 q 342 680 315 703 q 448 639 370 657 q 546 616 499 627 q 647 587 593 606 q 803 485 752 549 q 854 315 854 420 q 736 73 854 165 q 416 -18 618 -18 m 711 1390 l 508 1123 l 347 1123 l 487 1390 l 711 1390 z "},"ś":{"ha":715,"x_min":40,"x_max":692,"o":"m 323 -21 q 164 -3 239 -21 q 40 40 89 16 l 40 241 l 60 241 q 98 212 77 228 q 159 180 120 197 q 234 153 192 164 q 324 142 275 142 q 413 157 374 142 q 451 207 451 173 q 433 247 451 233 q 365 273 416 260 q 296 287 338 279 q 223 305 255 295 q 89 388 134 333 q 43 531 43 442 q 67 627 43 582 q 136 707 90 672 q 248 762 181 742 q 399 783 315 783 q 546 767 479 783 q 659 728 613 751 l 659 536 l 640 536 q 602 561 628 545 q 550 589 575 577 q 483 611 520 602 q 408 620 446 620 q 320 602 356 620 q 285 555 285 585 q 302 515 285 530 q 379 486 320 500 q 449 471 410 478 q 526 452 489 464 q 650 374 608 425 q 692 238 692 323 q 667 136 692 184 q 596 54 642 87 q 481 -1 547 18 q 323 -21 415 -21 m 610 1137 l 406 870 l 245 870 l 385 1137 l 610 1137 z "},"Ţ":{"ha":850,"x_min":0,"x_max":850,"o":"m 850 817 l 552 817 l 552 14 l 612 14 q 614 -20 613 1 q 616 -58 616 -41 q 551 -228 616 -168 q 382 -287 486 -287 q 312 -282 357 -287 q 244 -271 267 -277 l 244 -135 l 257 -135 q 303 -151 273 -142 q 360 -159 333 -159 q 440 -132 410 -159 q 470 -50 470 -104 q 470 -30 470 -45 q 469 0 469 -14 l 298 0 l 298 817 l 0 817 l 0 1010 l 850 1010 l 850 817 z "},"ţ":{"ha":577,"x_min":14,"x_max":571,"o":"m 374 -14 q 170 47 234 -13 q 105 240 105 107 l 105 596 l 14 596 l 14 762 l 105 762 l 105 979 l 342 979 l 342 762 l 571 762 l 571 596 l 342 596 l 342 326 q 343 256 342 286 q 354 203 344 227 q 388 165 363 179 q 458 151 412 151 q 508 159 477 151 q 551 174 538 168 l 571 174 l 571 7 q 545 1 558 4 q 519 -3 532 -1 q 520 -30 519 -14 q 521 -58 521 -46 q 456 -228 521 -168 q 287 -287 391 -287 q 217 -282 262 -287 q 149 -271 172 -277 l 149 -135 l 162 -135 q 208 -151 178 -142 q 265 -159 238 -159 q 318 -149 295 -159 q 352 -125 340 -139 q 369 -92 363 -111 q 375 -50 375 -73 q 375 -45 375 -49 q 375 -36 375 -41 q 374 -25 374 -31 q 374 -14 374 -19 z "},"Ť":{"ha":850,"x_min":0,"x_max":850,"o":"m 298 0 l 298 817 l 0 817 l 0 1010 l 850 1010 l 850 817 l 552 817 l 552 0 l 298 0 m 724 1390 l 502 1126 l 348 1126 l 125 1390 l 301 1390 l 427 1241 l 551 1390 l 724 1390 z "},"ť":{"ha":860,"x_min":14,"x_max":892,"o":"m 382 -15 q 171 45 237 -15 q 105 240 105 104 l 105 596 l 14 596 l 14 762 l 105 762 l 105 979 l 342 979 l 342 762 l 544 762 l 544 596 l 342 596 l 342 326 q 343 256 342 286 q 354 203 344 227 q 388 165 363 179 q 458 151 412 151 q 508 159 477 151 q 551 174 538 168 l 571 174 l 571 7 q 489 -9 532 -3 q 382 -15 446 -15 m 892 1055 l 734 680 l 583 680 l 663 1055 l 892 1055 z "},"Ů":{"ha":1026,"x_min":90,"x_max":936,"o":"m 513 -21 q 200 77 309 -21 q 90 365 90 176 l 90 1010 l 344 1010 l 344 380 q 384 223 344 275 q 513 172 423 172 q 641 221 600 172 q 682 380 682 271 l 682 1010 l 936 1010 l 936 366 q 829 79 936 179 q 513 -21 722 -21 m 721 1137 q 661 991 721 1050 q 513 933 601 933 q 366 992 427 933 q 306 1137 306 1050 q 366 1283 306 1224 q 513 1341 427 1341 q 661 1283 601 1341 q 721 1137 721 1225 m 606 1137 q 579 1208 606 1179 q 513 1237 553 1237 q 447 1208 473 1237 q 421 1137 421 1179 q 447 1066 421 1094 q 513 1038 473 1038 q 580 1066 554 1038 q 606 1137 606 1095 z "},"ů":{"ha":889,"x_min":85,"x_max":798,"o":"m 798 0 l 561 0 l 561 84 q 448 6 499 33 q 325 -21 396 -21 q 148 51 212 -21 q 85 266 85 122 l 85 762 l 323 762 l 323 384 q 327 288 323 325 q 341 224 330 250 q 375 189 352 201 q 438 176 397 176 q 497 189 463 176 q 561 222 532 201 l 561 762 l 798 762 l 798 0 m 649 964 q 589 818 649 876 q 441 760 529 760 q 294 818 355 760 q 234 964 234 877 q 294 1109 234 1050 q 441 1168 355 1168 q 589 1109 529 1168 q 649 964 649 1051 m 534 963 q 508 1034 534 1005 q 441 1063 481 1063 q 375 1035 401 1063 q 349 963 349 1006 q 375 892 349 920 q 441 864 401 864 q 508 892 482 864 q 534 963 534 921 z "},"Ű":{"ha":1026,"x_min":90,"x_max":936,"o":"m 513 -21 q 200 77 309 -21 q 90 365 90 176 l 90 1010 l 344 1010 l 344 380 q 384 223 344 275 q 513 172 423 172 q 641 221 600 172 q 682 380 682 271 l 682 1010 l 936 1010 l 936 366 q 829 79 936 179 q 513 -21 722 -21 m 852 1390 l 677 1123 l 536 1123 l 650 1390 l 852 1390 m 578 1390 l 404 1123 l 262 1123 l 376 1390 l 578 1390 z "},"ű":{"ha":889,"x_min":85,"x_max":798,"o":"m 798 0 l 561 0 l 561 84 q 448 6 499 33 q 325 -21 396 -21 q 148 51 212 -21 q 85 266 85 122 l 85 762 l 323 762 l 323 384 q 327 288 323 325 q 341 224 330 250 q 375 189 352 201 q 438 176 397 176 q 497 189 463 176 q 561 222 532 201 l 561 762 l 798 762 l 798 0 m 794 1137 l 619 870 l 477 870 l 592 1137 l 794 1137 m 520 1137 l 345 870 l 203 870 l 318 1137 l 520 1137 z "},"Ź":{"ha":865,"x_min":37,"x_max":838,"o":"m 838 0 l 37 0 l 37 189 l 501 817 l 61 817 l 61 1010 l 810 1010 l 810 817 l 347 193 l 838 193 l 838 0 m 695 1390 l 492 1123 l 330 1123 l 471 1390 l 695 1390 z "},"ź":{"ha":730,"x_min":33,"x_max":699,"o":"m 699 0 l 33 0 l 33 157 l 396 583 l 49 583 l 49 762 l 691 762 l 691 608 l 327 182 l 699 182 l 699 0 m 623 1137 l 420 870 l 258 870 l 399 1137 l 623 1137 z "},"Ż":{"ha":865,"x_min":37,"x_max":838,"o":"m 838 0 l 37 0 l 37 189 l 501 817 l 61 817 l 61 1010 l 810 1010 l 810 817 l 347 193 l 838 193 l 838 0 m 569 1123 l 325 1123 l 325 1308 l 569 1308 l 569 1123 z "},"ż":{"ha":730,"x_min":33,"x_max":699,"o":"m 699 0 l 33 0 l 33 157 l 396 583 l 49 583 l 49 762 l 691 762 l 691 608 l 327 182 l 699 182 l 699 0 m 501 870 l 257 870 l 257 1055 l 501 1055 l 501 870 z "},"Γ":{"ha":785,"x_min":104,"x_max":785,"o":"m 785 817 l 358 817 l 358 0 l 104 0 l 104 1010 l 785 1010 l 785 817 z "},"Θ":{"ha":1069,"x_min":45,"x_max":1024,"o":"m 1024 505 q 992 292 1024 391 q 899 125 961 194 q 742 16 833 53 q 534 -21 650 -21 q 176 121 306 -21 q 45 505 45 263 q 176 889 45 748 q 534 1031 306 1031 q 893 890 762 1031 q 1024 505 1024 749 m 696 249 q 747 352 730 294 q 765 505 765 410 q 746 659 765 596 q 695 763 728 722 q 622 822 664 803 q 535 840 579 840 q 449 823 490 840 q 375 764 409 805 q 324 660 343 725 q 304 505 304 595 q 323 354 304 418 q 374 248 342 289 q 447 189 406 208 q 535 170 488 170 q 623 189 581 170 q 696 249 666 209 m 680 416 l 390 416 l 390 622 l 680 622 l 680 416 z "},"Φ":{"ha":1218,"x_min":39,"x_max":1179,"o":"m 1179 513 q 1056 224 1179 330 q 735 101 932 118 l 735 -8 l 483 -8 l 483 101 q 162 223 286 118 q 39 513 39 328 q 159 799 39 697 q 483 918 279 901 l 483 1020 l 735 1020 l 735 918 q 1056 801 933 904 q 1179 513 1179 699 m 919 517 q 870 673 919 612 q 735 749 821 734 l 735 269 q 877 352 835 291 q 919 517 919 412 m 483 269 l 483 749 q 346 672 393 733 q 299 517 299 612 q 343 352 299 414 q 483 269 387 290 z "},"α":{"ha":874,"x_min":37,"x_max":783,"o":"m 783 0 l 546 0 l 546 79 q 434 2 484 26 q 319 -21 385 -21 q 114 85 192 -21 q 37 380 37 191 q 118 674 37 566 q 327 783 200 783 q 448 761 403 783 q 546 689 492 740 l 546 762 l 783 762 l 783 0 m 546 210 l 546 558 q 489 586 520 576 q 427 597 458 597 q 316 545 352 597 q 279 380 279 494 q 312 218 279 271 q 425 165 345 165 q 488 177 456 165 q 546 210 519 189 z "},"δ":{"ha":857,"x_min":35,"x_max":821,"o":"m 711 694 q 790 562 760 637 q 821 388 821 487 q 715 87 821 198 q 429 -24 608 -24 q 140 80 244 -24 q 35 362 35 184 q 61 518 35 450 q 132 635 87 587 q 233 708 176 681 q 352 749 290 734 q 235 832 293 793 q 121 900 177 870 l 121 1055 l 764 1055 l 764 890 l 477 890 l 477 886 q 601 799 543 841 q 711 694 658 756 m 577 376 q 554 517 577 452 q 473 636 532 583 q 410 611 444 629 q 347 564 375 593 q 298 488 318 536 q 279 375 279 439 q 321 205 279 264 q 431 146 363 146 q 538 205 499 146 q 577 376 577 264 z "},"ε":{"ha":727,"x_min":37,"x_max":707,"o":"m 707 38 q 643 16 682 29 q 571 -3 605 3 q 491 -17 528 -12 q 392 -21 455 -21 q 259 -9 323 -21 q 145 28 195 2 q 66 98 96 56 q 37 205 37 141 q 79 326 37 280 q 188 395 121 372 l 188 399 q 96 462 130 417 q 62 568 62 507 q 92 668 62 627 q 172 735 121 709 q 279 771 215 758 q 412 783 344 783 q 568 768 499 783 q 679 739 636 752 l 679 559 l 654 559 q 566 594 623 575 q 450 613 510 613 q 399 610 421 613 q 353 599 378 608 q 319 576 332 591 q 305 540 305 562 q 321 496 305 511 q 363 475 338 481 q 419 469 390 469 q 482 469 449 469 l 545 469 l 545 315 l 453 315 q 386 314 412 315 q 331 304 359 313 q 294 279 308 296 q 281 233 281 261 q 296 192 281 208 q 337 166 312 175 q 391 153 361 157 q 450 149 422 149 q 576 171 511 149 q 682 220 642 192 l 707 220 l 707 38 z "},"σ":{"ha":911,"x_min":35,"x_max":922,"o":"m 922 596 l 756 596 q 801 494 781 554 q 822 374 822 433 q 719 84 822 193 q 429 -24 616 -24 q 138 84 241 -24 q 35 380 35 193 q 139 678 35 570 q 429 785 242 785 q 510 779 469 785 q 591 762 551 772 l 922 762 l 922 596 m 578 380 q 543 555 578 495 q 429 616 508 616 q 314 553 350 616 q 279 379 279 490 q 315 204 279 262 q 431 146 352 146 q 539 201 500 146 q 578 380 578 255 z "},"τ":{"ha":723,"x_min":7,"x_max":716,"o":"m 716 596 l 480 596 l 480 0 l 243 0 l 243 596 l 7 596 l 7 762 l 716 762 l 716 596 z "},"φ":{"ha":1162,"x_min":35,"x_max":1127,"o":"m 1127 396 q 1013 110 1127 220 q 697 -13 898 1 l 697 -279 l 461 -279 l 461 -11 q 292 25 369 -3 q 157 104 214 54 q 67 222 99 154 q 35 379 35 291 q 73 582 35 487 q 184 762 110 677 l 418 762 l 418 739 q 315 583 352 672 q 279 411 279 493 q 330 230 279 292 q 461 153 380 168 l 461 779 q 484 779 468 779 q 526 781 500 780 q 582 783 553 782 q 640 783 612 783 q 1001 688 875 783 q 1127 396 1127 592 m 885 401 q 837 557 885 500 q 697 621 789 614 l 697 150 q 841 226 797 164 q 885 401 885 288 z "},"‗":{"ha":884,"x_min":-11,"x_max":895,"o":"m 895 -144 l -11 -144 l -11 -56 l 895 -56 l 895 -144 m 895 -287 l -11 -287 l -11 -199 l 895 -199 l 895 -287 z "},"‼":{"ha":887,"x_min":103,"x_max":784,"o":"m 373 1010 l 345 291 l 131 291 l 103 1010 l 373 1010 m 372 0 l 104 0 l 104 179 l 372 179 l 372 0 m 784 1010 l 756 291 l 542 291 l 514 1010 l 784 1010 m 783 0 l 515 0 l 515 179 l 783 179 l 783 0 z "},"ⁿ":{"ha":749,"x_min":94,"x_max":665,"o":"m 665 404 l 473 404 l 473 705 q 470 779 473 743 q 459 833 467 815 q 430 863 449 854 q 382 871 410 871 q 336 863 361 871 q 283 835 312 854 l 283 404 l 94 404 l 94 1013 l 283 1013 l 283 945 q 374 1007 329 984 q 473 1029 420 1029 q 552 1017 519 1029 q 612 975 585 1004 q 651 905 637 945 q 665 800 665 864 l 665 404 z "},"₧":{"ha":1720,"x_min":127,"x_max":1638,"o":"m 1638 232 q 1618 135 1638 182 q 1557 54 1598 88 q 1457 -2 1514 18 q 1312 -21 1401 -21 q 1163 -3 1230 -21 q 1044 41 1095 16 l 1044 232 l 1058 232 q 1095 205 1070 222 q 1150 174 1119 189 q 1218 147 1182 158 q 1293 136 1253 136 q 1373 153 1348 136 q 1398 202 1398 170 q 1380 244 1398 226 q 1291 288 1362 263 q 1248 302 1274 293 q 1205 318 1222 311 q 1091 405 1128 348 q 1053 543 1053 463 q 1054 561 1053 553 q 1055 571 1055 568 l 940 571 l 940 0 l 711 0 l 711 491 q 613 421 673 446 q 472 396 553 396 l 364 396 l 364 0 l 127 0 l 127 1010 l 484 1010 q 646 981 575 1010 q 755 884 717 951 l 940 884 l 940 739 l 1150 739 q 1246 769 1181 755 q 1361 783 1310 783 q 1495 767 1428 783 q 1600 732 1562 751 l 1600 546 l 1585 546 q 1490 605 1536 585 q 1394 626 1444 626 q 1362 624 1378 626 q 1327 614 1345 621 q 1301 595 1312 608 q 1289 562 1289 581 q 1315 511 1289 530 q 1385 477 1341 492 q 1430 462 1404 471 q 1472 448 1456 453 q 1596 368 1555 419 q 1638 232 1638 316 m 567 709 q 556 773 567 747 q 521 817 545 799 q 470 836 500 832 q 404 840 440 840 l 364 840 l 364 563 l 391 563 q 475 568 444 563 q 530 600 507 574 q 558 648 550 625 q 567 709 567 671 z "},"Ĳ":{"ha":1305,"x_min":64,"x_max":1214,"o":"m 608 833 l 463 833 l 463 176 l 601 176 l 601 0 l 64 0 l 64 176 l 209 176 l 209 833 l 64 833 l 64 1010 l 608 1010 l 608 833 m 1214 296 q 1192 173 1214 231 q 1127 74 1171 115 q 1017 7 1081 31 q 858 -16 952 -16 q 760 -11 821 -16 q 669 0 698 -7 l 669 193 l 692 193 q 696 192 693 193 q 704 189 699 191 q 715 186 709 188 q 728 182 721 184 q 761 176 743 179 q 800 174 780 174 q 897 193 863 174 q 944 246 930 213 q 959 319 958 279 q 960 422 960 358 l 960 833 l 757 833 l 757 1010 l 1214 1010 l 1214 296 z "},"ĳ":{"ha":900,"x_min":84,"x_max":809,"o":"m 335 870 l 84 870 l 84 1055 l 335 1055 l 335 870 m 328 0 l 91 0 l 91 762 l 328 762 l 328 0 m 809 870 l 556 870 l 556 1055 l 809 1055 l 809 870 m 809 -14 q 732 -215 809 -142 q 534 -287 656 -287 q 416 -281 469 -287 q 339 -269 363 -275 l 339 -94 l 357 -94 q 409 -106 380 -102 q 454 -111 437 -111 q 547 -68 522 -111 q 572 70 572 -26 l 572 596 l 441 596 l 441 762 l 809 762 l 809 -14 z "},"ŉ":{"ha":1031,"x_min":-26,"x_max":946,"o":"m 946 0 l 707 0 l 707 378 q 704 470 707 424 q 690 537 700 515 q 654 574 677 563 q 593 585 631 585 q 534 574 564 585 q 470 540 504 564 l 470 0 l 233 0 l 233 762 l 470 762 l 470 677 q 584 755 528 727 q 706 783 639 783 q 884 709 823 783 q 946 496 946 635 l 946 0 m 288 1055 l 126 680 l -26 680 l 59 1055 l 288 1055 z "},"′":{"ha":434,"x_min":55,"x_max":448,"o":"m 448 1010 l 210 576 l 55 576 l 207 1010 l 448 1010 z "},"″":{"ha":753,"x_min":55,"x_max":767,"o":"m 448 1010 l 210 576 l 55 576 l 207 1010 l 448 1010 m 767 1010 l 528 576 l 374 576 l 526 1010 l 767 1010 z "},"℅":{"ha":1665,"x_min":72,"x_max":1588,"o":"m 603 420 q 518 386 570 400 q 410 371 467 371 q 274 391 336 371 q 167 451 212 410 q 97 553 122 491 q 72 698 72 614 q 99 849 72 786 q 173 953 126 912 q 280 1011 217 992 q 405 1029 342 1029 q 509 1016 457 1029 q 603 979 560 1002 l 603 812 l 575 812 q 549 837 566 822 q 516 862 532 852 q 474 881 499 873 q 420 889 448 889 q 314 837 351 889 q 276 698 276 785 q 316 557 276 604 q 423 511 357 511 q 483 520 458 511 q 524 540 508 528 q 555 566 543 553 q 575 587 568 578 l 603 587 l 603 420 m 1158 1010 l 629 0 l 450 0 l 979 1010 l 1158 1010 m 1588 309 q 1506 66 1588 154 q 1272 -22 1423 -22 q 1037 68 1118 -22 q 956 309 956 158 q 1039 551 956 463 q 1272 639 1122 639 q 1506 550 1423 639 q 1588 309 1588 462 m 1388 307 q 1358 456 1388 412 q 1272 500 1329 500 q 1184 450 1211 500 q 1157 307 1157 400 q 1187 161 1157 203 q 1274 118 1218 118 q 1357 159 1327 118 q 1388 307 1388 199 z "},"ℓ":{"ha":449,"x_min":10,"x_max":438,"o":"m 10 286 l 130 446 l 130 754 q 172 959 130 907 q 289 1011 214 1011 q 396 967 354 1011 q 438 849 438 923 q 397 697 438 787 q 245 451 357 607 l 245 170 q 255 95 245 109 q 283 80 264 80 q 323 91 300 80 q 418 153 347 102 l 418 43 q 342 -2 380 13 q 265 -16 304 -16 q 166 22 203 -16 q 130 147 130 61 l 130 300 l 77 233 l 10 286 m 245 610 q 327 768 311 724 q 343 848 343 811 q 339 885 343 869 q 326 913 334 901 q 310 925 319 921 q 292 930 302 930 q 273 926 281 930 q 260 912 264 922 q 249 861 253 898 q 245 764 245 823 l 245 610 z "},"□":{"ha":839,"x_min":99,"x_max":739,"o":"m 99 640 l 739 640 l 739 0 l 99 0 l 99 640 m 151 589 l 151 52 l 688 52 l 688 589 l 151 589 z "},"▪":{"ha":492,"x_min":89,"x_max":403,"o":"m 403 616 l 403 302 l 89 302 l 89 616 l 403 616 z "},"▫":{"ha":492,"x_min":89,"x_max":403,"o":"m 403 616 l 403 302 l 89 302 l 89 616 l 403 616 m 351 564 l 140 564 l 140 353 l 351 353 l 351 564 z "},"●":{"ha":839,"x_min":120,"x_max":718,"o":"m 120 391 q 208 602 120 515 q 419 690 295 690 q 630 602 543 690 q 718 391 718 515 q 630 180 718 267 q 419 92 543 92 q 208 180 295 92 q 120 391 120 267 z "},"◦":{"ha":492,"x_min":76,"x_max":416,"o":"m 246 629 q 367 579 317 629 q 416 459 416 530 q 367 339 416 389 q 246 289 317 289 q 126 339 176 289 q 76 459 76 389 q 125 579 76 530 q 246 629 175 629 m 246 578 q 162 543 197 578 q 127 459 127 508 q 162 375 127 410 q 246 340 197 340 q 330 375 295 340 q 365 459 365 410 q 330 543 365 508 q 246 578 296 578 z "},"Ā":{"ha":951,"x_min":-4,"x_max":955,"o":"m -4 0 l 337 1010 l 614 1010 l 955 0 l 694 0 l 631 206 l 313 206 l 250 0 l -4 0 m 575 389 l 472 722 l 369 389 l 575 389 m 741 1166 l 210 1166 l 210 1308 l 741 1308 l 741 1166 z "},"ā":{"ha":831,"x_min":34,"x_max":747,"o":"m 511 199 l 511 357 q 413 347 450 351 q 340 330 376 342 q 291 297 309 319 q 274 238 274 275 q 303 164 274 184 q 388 144 332 144 q 452 159 419 144 q 511 199 484 173 m 511 81 q 467 44 486 60 q 415 12 448 28 q 353 -12 383 -4 q 269 -20 323 -20 q 101 47 168 -20 q 34 218 34 115 q 68 355 34 303 q 165 438 102 408 q 319 481 230 469 q 512 500 409 494 l 512 505 q 466 592 512 568 q 326 616 419 616 q 228 601 284 616 q 118 562 172 585 l 98 562 l 98 745 q 212 769 133 755 q 370 783 290 783 q 657 718 567 783 q 747 518 747 652 l 747 0 l 511 0 l 511 81 m 678 913 l 148 913 l 148 1055 l 678 1055 l 678 913 z "},"Ĉ":{"ha":927,"x_min":45,"x_max":882,"o":"m 540 -20 q 179 118 313 -20 q 45 504 45 255 q 179 887 45 744 q 541 1029 313 1029 q 649 1023 601 1029 q 741 1004 697 1016 q 817 976 776 994 q 882 945 857 958 l 882 705 l 857 705 q 810 744 838 721 q 747 788 783 766 q 670 825 712 810 q 581 840 627 840 q 480 823 526 840 q 393 763 435 806 q 331 659 355 724 q 307 503 307 593 q 332 345 307 409 q 398 241 357 281 q 486 186 437 203 q 583 170 534 170 q 678 186 633 170 q 755 223 724 203 q 814 266 789 244 q 859 304 840 288 l 882 304 l 882 67 q 818 38 854 54 q 743 9 781 21 q 654 -12 695 -5 q 540 -20 612 -20 m 816 1123 l 640 1123 l 528 1267 l 417 1123 l 244 1123 l 448 1390 l 612 1390 l 816 1123 z "},"ĉ":{"ha":732,"x_min":35,"x_max":718,"o":"m 465 -20 q 292 3 370 -20 q 156 77 214 27 q 67 201 99 126 q 35 378 35 276 q 70 564 35 487 q 163 690 104 640 q 297 760 220 737 q 458 783 374 783 q 584 768 521 783 q 711 722 647 753 l 711 518 l 680 518 q 645 548 666 532 q 600 578 625 564 q 542 602 574 592 q 469 612 509 612 q 329 548 378 612 q 279 378 279 485 q 332 207 279 263 q 473 151 385 151 q 552 161 518 151 q 610 185 586 171 q 651 215 634 199 q 680 242 668 230 l 711 242 l 711 39 q 664 18 690 30 q 609 -1 637 7 q 544 -15 574 -10 q 465 -20 514 -20 m 718 870 l 542 870 l 430 1015 l 319 870 l 146 870 l 350 1137 l 513 1137 l 718 870 z "},"Ċ":{"ha":927,"x_min":45,"x_max":882,"o":"m 540 -20 q 179 118 313 -20 q 45 504 45 255 q 179 887 45 744 q 541 1029 313 1029 q 649 1023 601 1029 q 741 1004 697 1016 q 817 976 776 994 q 882 945 857 958 l 882 705 l 857 705 q 810 744 838 721 q 747 788 783 766 q 670 825 712 810 q 581 840 627 840 q 480 823 526 840 q 393 763 435 806 q 331 659 355 724 q 307 503 307 593 q 332 345 307 409 q 398 241 357 281 q 486 186 437 203 q 583 170 534 170 q 678 186 633 170 q 755 223 724 203 q 814 266 789 244 q 859 304 840 288 l 882 304 l 882 67 q 818 38 854 54 q 743 9 781 21 q 654 -12 695 -5 q 540 -20 612 -20 m 656 1123 l 412 1123 l 412 1308 l 656 1308 l 656 1123 z "},"ċ":{"ha":732,"x_min":35,"x_max":711,"o":"m 465 -20 q 292 3 370 -20 q 156 77 214 27 q 67 201 99 126 q 35 378 35 276 q 70 564 35 487 q 163 690 104 640 q 297 760 220 737 q 458 783 374 783 q 584 768 521 783 q 711 722 647 753 l 711 518 l 680 518 q 645 548 666 532 q 600 578 625 564 q 542 602 574 592 q 469 612 509 612 q 329 548 378 612 q 279 378 279 485 q 332 207 279 263 q 473 151 385 151 q 552 161 518 151 q 610 185 586 171 q 651 215 634 199 q 680 242 668 230 l 711 242 l 711 39 q 664 18 690 30 q 609 -1 637 7 q 544 -15 574 -10 q 465 -20 514 -20 m 552 870 l 308 870 l 308 1055 l 552 1055 l 552 870 z "},"Ē":{"ha":854,"x_min":104,"x_max":787,"o":"m 104 0 l 104 1010 l 787 1010 l 787 817 l 357 817 l 357 640 l 753 640 l 753 448 l 357 448 l 357 193 l 787 193 l 787 0 l 104 0 m 709 1166 l 179 1166 l 179 1308 l 709 1308 l 709 1166 z "},"ē":{"ha":825,"x_min":35,"x_max":793,"o":"m 481 -20 q 150 83 265 -20 q 35 376 35 186 q 142 674 35 563 q 442 785 250 785 q 705 691 617 785 q 793 421 793 597 l 793 336 l 273 336 q 296 247 277 283 q 346 191 315 212 q 417 160 376 170 q 506 151 458 151 q 587 160 547 151 q 661 184 627 170 q 714 212 690 197 q 755 239 739 227 l 780 239 l 780 43 q 727 21 751 31 q 661 1 703 12 q 581 -15 622 -9 q 481 -20 540 -20 m 559 479 q 525 593 557 554 q 424 633 492 633 q 316 591 355 633 q 273 479 277 550 l 559 479 m 697 913 l 167 913 l 167 1055 l 697 1055 l 697 913 z "},"Ĕ":{"ha":854,"x_min":104,"x_max":787,"o":"m 104 0 l 104 1010 l 787 1010 l 787 817 l 357 817 l 357 640 l 753 640 l 753 448 l 357 448 l 357 193 l 787 193 l 787 0 l 104 0 m 698 1362 q 629 1170 698 1236 q 448 1104 560 1104 q 261 1170 326 1104 q 197 1362 197 1236 l 334 1362 q 339 1307 334 1331 q 359 1263 345 1282 q 393 1235 372 1245 q 448 1224 414 1224 q 499 1235 477 1224 q 534 1263 522 1246 q 555 1306 549 1284 q 561 1362 561 1328 l 698 1362 z "},"ĕ":{"ha":825,"x_min":35,"x_max":793,"o":"m 481 -20 q 150 83 265 -20 q 35 376 35 186 q 142 674 35 563 q 442 785 250 785 q 705 691 617 785 q 793 421 793 597 l 793 336 l 273 336 q 296 247 277 283 q 346 191 315 212 q 417 160 376 170 q 506 151 458 151 q 587 160 547 151 q 661 184 627 170 q 714 212 690 197 q 755 239 739 227 l 780 239 l 780 43 q 727 21 751 31 q 661 1 703 12 q 581 -15 622 -9 q 481 -20 540 -20 m 559 479 q 525 593 557 554 q 424 633 492 633 q 316 591 355 633 q 273 479 277 550 l 559 479 m 693 1109 q 624 917 693 983 q 443 851 555 851 q 256 917 321 851 q 192 1109 192 983 l 329 1109 q 335 1054 329 1078 q 354 1010 340 1029 q 389 982 368 992 q 443 971 410 971 q 494 982 472 971 q 530 1010 517 993 q 550 1053 545 1031 q 556 1109 556 1075 l 693 1109 z "},"Ė":{"ha":854,"x_min":104,"x_max":787,"o":"m 104 0 l 104 1010 l 787 1010 l 787 817 l 357 817 l 357 640 l 753 640 l 753 448 l 357 448 l 357 193 l 787 193 l 787 0 l 104 0 m 578 1123 l 334 1123 l 334 1308 l 578 1308 l 578 1123 z "},"ė":{"ha":825,"x_min":35,"x_max":793,"o":"m 481 -20 q 150 83 265 -20 q 35 376 35 186 q 142 674 35 563 q 442 785 250 785 q 705 691 617 785 q 793 421 793 597 l 793 336 l 273 336 q 296 247 277 283 q 346 191 315 212 q 417 160 376 170 q 506 151 458 151 q 587 160 547 151 q 661 184 627 170 q 714 212 690 197 q 755 239 739 227 l 780 239 l 780 43 q 727 21 751 31 q 661 1 703 12 q 581 -15 622 -9 q 481 -20 540 -20 m 559 479 q 525 593 557 554 q 424 633 492 633 q 316 591 355 633 q 273 479 277 550 l 559 479 m 555 870 l 311 870 l 311 1055 l 555 1055 l 555 870 z "},"Ĝ":{"ha":1035,"x_min":45,"x_max":948,"o":"m 948 58 q 775 5 882 31 q 566 -21 669 -21 q 187 116 328 -21 q 45 506 45 254 q 187 886 45 743 q 574 1029 328 1029 q 780 1005 701 1029 q 944 940 859 981 l 944 703 l 921 703 q 868 744 903 718 q 802 788 834 770 q 714 825 764 810 q 608 841 664 841 q 490 821 543 841 q 394 758 436 800 q 331 655 354 718 q 307 510 307 593 q 396 249 307 333 q 639 165 485 165 q 671 165 652 165 q 703 168 689 166 l 703 366 l 507 366 l 507 555 l 948 555 l 948 58 m 844 1123 l 669 1123 l 557 1267 l 446 1123 l 273 1123 l 477 1390 l 640 1390 l 844 1123 z "},"ĝ":{"ha":874,"x_min":37,"x_max":783,"o":"m 546 240 l 546 585 q 503 599 528 593 q 451 604 477 604 q 322 549 366 604 q 279 395 279 494 q 286 311 279 345 q 310 250 292 277 q 354 211 327 224 q 425 198 382 198 q 487 209 456 198 q 546 240 518 220 m 783 87 q 753 -92 783 -18 q 669 -208 722 -166 q 543 -268 616 -250 q 378 -287 469 -287 q 234 -277 302 -287 q 116 -254 166 -267 l 116 -64 l 144 -64 q 185 -79 161 -71 q 234 -94 210 -87 q 291 -106 263 -101 q 348 -111 319 -111 q 449 -98 408 -111 q 509 -62 489 -85 q 538 -6 530 -39 q 546 75 546 26 l 546 89 q 453 32 506 54 q 345 11 401 11 q 117 107 197 11 q 37 400 37 203 q 61 561 37 490 q 130 682 86 632 q 232 756 172 730 q 356 783 292 783 q 460 768 414 783 q 545 728 507 753 l 553 762 l 783 762 l 783 87 m 733 870 l 557 870 l 446 1015 l 334 870 l 161 870 l 366 1137 l 529 1137 l 733 870 z "},"Ġ":{"ha":1035,"x_min":45,"x_max":948,"o":"m 948 58 q 775 5 882 31 q 566 -21 669 -21 q 187 116 328 -21 q 45 506 45 254 q 187 886 45 743 q 574 1029 328 1029 q 780 1005 701 1029 q 944 940 859 981 l 944 703 l 921 703 q 868 744 903 718 q 802 788 834 770 q 714 825 764 810 q 608 841 664 841 q 490 821 543 841 q 394 758 436 800 q 331 655 354 718 q 307 510 307 593 q 396 249 307 333 q 639 165 485 165 q 671 165 652 165 q 703 168 689 166 l 703 366 l 507 366 l 507 555 l 948 555 l 948 58 m 679 1123 l 435 1123 l 435 1308 l 679 1308 l 679 1123 z "},"ġ":{"ha":874,"x_min":37,"x_max":783,"o":"m 546 240 l 546 585 q 503 599 528 593 q 451 604 477 604 q 322 549 366 604 q 279 395 279 494 q 286 311 279 345 q 310 250 292 277 q 354 211 327 224 q 425 198 382 198 q 487 209 456 198 q 546 240 518 220 m 783 87 q 753 -92 783 -18 q 669 -208 722 -166 q 543 -268 616 -250 q 378 -287 469 -287 q 234 -277 302 -287 q 116 -254 166 -267 l 116 -64 l 144 -64 q 185 -79 161 -71 q 234 -94 210 -87 q 291 -106 263 -101 q 348 -111 319 -111 q 449 -98 408 -111 q 509 -62 489 -85 q 538 -6 530 -39 q 546 75 546 26 l 546 89 q 453 32 506 54 q 345 11 401 11 q 117 107 197 11 q 37 400 37 203 q 61 561 37 490 q 130 682 86 632 q 232 756 172 730 q 356 783 292 783 q 460 768 414 783 q 545 728 507 753 l 553 762 l 783 762 l 783 87 m 572 870 l 328 870 l 328 1055 l 572 1055 l 572 870 z "},"Ģ":{"ha":1035,"x_min":45,"x_max":948,"o":"m 948 58 q 775 5 882 31 q 566 -21 669 -21 q 187 116 328 -21 q 45 506 45 254 q 187 886 45 743 q 574 1029 328 1029 q 780 1005 701 1029 q 944 940 859 981 l 944 703 l 921 703 q 868 744 903 718 q 802 788 834 770 q 714 825 764 810 q 608 841 664 841 q 490 821 543 841 q 394 758 436 800 q 331 655 354 718 q 307 510 307 593 q 396 249 307 333 q 639 165 485 165 q 671 165 652 165 q 703 168 689 166 l 703 366 l 507 366 l 507 555 l 948 555 l 948 58 m 397 -287 l 476 -98 l 692 -98 l 549 -287 l 397 -287 z "},"ģ":{"ha":874,"x_min":37,"x_max":783,"o":"m 546 240 l 546 585 q 503 599 528 593 q 451 604 477 604 q 322 549 366 604 q 279 395 279 494 q 286 311 279 345 q 310 250 292 277 q 354 211 327 224 q 425 198 382 198 q 487 209 456 198 q 546 240 518 220 m 783 87 q 753 -92 783 -18 q 669 -208 722 -166 q 543 -268 616 -250 q 378 -287 469 -287 q 234 -277 302 -287 q 116 -254 166 -267 l 116 -64 l 144 -64 q 185 -79 161 -71 q 234 -94 210 -87 q 291 -106 263 -101 q 348 -111 319 -111 q 449 -98 408 -111 q 509 -62 489 -85 q 538 -6 530 -39 q 546 75 546 26 l 546 89 q 453 32 506 54 q 345 11 401 11 q 117 107 197 11 q 37 400 37 203 q 61 561 37 490 q 130 682 86 632 q 232 756 172 730 q 356 783 292 783 q 460 768 414 783 q 545 728 507 753 l 553 762 l 783 762 l 783 87 m 640 1137 l 499 870 l 275 870 l 478 1137 l 640 1137 z "},"Ĥ":{"ha":1061,"x_min":104,"x_max":957,"o":"m 957 0 l 703 0 l 703 448 l 358 448 l 358 0 l 104 0 l 104 1010 l 358 1010 l 358 640 l 703 640 l 703 1010 l 957 1010 l 957 0 m 818 1123 l 642 1123 l 530 1267 l 419 1123 l 246 1123 l 450 1390 l 614 1390 l 818 1123 z "},"ĥ":{"ha":889,"x_min":91,"x_max":804,"o":"m 804 0 l 566 0 l 566 378 q 562 470 566 424 q 548 537 558 515 q 513 574 536 563 q 451 585 490 585 q 392 574 422 585 q 328 540 362 564 l 328 0 l 91 0 l 91 1055 l 328 1055 l 328 677 q 442 755 387 727 q 564 783 497 783 q 743 709 681 783 q 804 496 804 635 l 804 0 m 748 1133 l 572 1133 l 460 1277 l 349 1133 l 176 1133 l 380 1399 l 544 1399 l 748 1133 z "},"Ħ":{"ha":1086,"x_min":26,"x_max":1061,"o":"m 1061 749 l 969 749 l 969 0 l 715 0 l 715 448 l 370 448 l 370 0 l 117 0 l 117 749 l 26 749 l 26 895 l 117 895 l 117 1010 l 370 1010 l 370 895 l 715 895 l 715 1010 l 969 1010 l 969 895 l 1061 895 l 1061 749 m 715 639 l 715 750 l 370 750 l 370 639 l 715 639 z "},"ħ":{"ha":882,"x_min":-2,"x_max":798,"o":"m 798 0 l 559 0 l 559 376 q 555 468 559 422 q 541 535 551 513 q 506 572 529 561 q 444 583 483 583 q 385 572 415 583 q 321 538 355 562 l 321 0 l 85 0 l 85 839 l -2 839 l -2 979 l 85 979 l 85 1055 l 321 1055 l 321 979 l 537 979 l 537 839 l 321 839 l 321 675 q 435 753 380 725 q 557 781 490 781 q 736 707 674 781 q 798 494 798 633 l 798 0 z "},"Ĩ":{"ha":671,"x_min":38,"x_max":634,"o":"m 608 0 l 64 0 l 64 176 l 209 176 l 209 833 l 64 833 l 64 1010 l 608 1010 l 608 833 l 463 833 l 463 176 l 608 176 l 608 0 m 634 1347 q 578 1181 627 1234 q 440 1128 528 1128 q 378 1142 408 1128 q 328 1168 349 1155 q 283 1194 308 1181 q 241 1207 258 1207 q 195 1186 208 1207 q 180 1124 183 1164 l 38 1124 q 94 1283 42 1223 q 231 1342 145 1342 q 292 1331 264 1342 q 345 1304 319 1319 q 390 1280 366 1293 q 430 1267 414 1267 q 476 1289 463 1267 q 492 1347 490 1310 l 634 1347 z "},"ĩ":{"ha":419,"x_min":-31,"x_max":452,"o":"m 328 0 l 91 0 l 91 762 l 328 762 l 328 0 m 452 1087 q 408 923 445 971 q 294 876 371 876 q 243 888 267 876 q 202 915 220 901 q 166 942 184 929 q 132 954 148 954 q 96 932 104 954 q 86 871 88 911 l -31 871 q 17 1033 -26 983 q 126 1082 60 1082 q 177 1071 154 1082 q 220 1044 200 1059 q 255 1020 235 1033 q 288 1007 275 1007 q 325 1029 317 1007 q 335 1087 334 1051 l 452 1087 z "},"Ī":{"ha":671,"x_min":64,"x_max":608,"o":"m 608 0 l 64 0 l 64 176 l 209 176 l 209 833 l 64 833 l 64 1010 l 608 1010 l 608 833 l 463 833 l 463 176 l 608 176 l 608 0 m 601 1166 l 71 1166 l 71 1308 l 601 1308 l 601 1166 z "},"ī":{"ha":419,"x_min":9,"x_max":410,"o":"m 410 913 l 9 913 l 9 1055 l 410 1055 l 410 913 m 328 0 l 91 0 l 91 762 l 328 762 l 328 0 z "},"Ĭ":{"ha":671,"x_min":64,"x_max":608,"o":"m 608 0 l 64 0 l 64 176 l 209 176 l 209 833 l 64 833 l 64 1010 l 608 1010 l 608 833 l 463 833 l 463 176 l 608 176 l 608 0 m 587 1362 q 518 1170 587 1236 q 336 1104 449 1104 q 150 1170 214 1104 q 85 1362 85 1236 l 222 1362 q 228 1307 222 1331 q 248 1263 234 1282 q 282 1235 261 1245 q 336 1224 303 1224 q 388 1235 366 1224 q 423 1263 410 1246 q 444 1306 438 1284 q 450 1362 450 1328 l 587 1362 z "},"ĭ":{"ha":419,"x_min":-2,"x_max":422,"o":"m 422 1110 q 366 918 422 980 q 210 856 309 856 q 53 919 108 856 q -2 1110 -2 981 l 121 1110 q 139 1001 121 1040 q 210 962 157 962 q 280 1002 261 962 q 299 1110 299 1042 l 422 1110 m 328 0 l 91 0 l 91 762 l 328 762 l 328 0 z "},"Į":{"ha":671,"x_min":64,"x_max":608,"o":"m 608 0 l 64 0 l 64 176 l 209 176 l 209 833 l 64 833 l 64 1010 l 608 1010 l 608 833 l 463 833 l 463 176 l 608 176 l 608 0 m 431 0 q 393 -41 406 -20 q 381 -82 381 -62 q 384 -98 381 -91 q 392 -112 386 -105 q 407 -123 399 -119 q 429 -127 414 -127 q 451 -124 439 -127 q 471 -119 463 -121 l 477 -119 l 477 -260 q 413 -275 450 -271 q 356 -280 377 -280 q 253 -247 292 -280 q 213 -163 213 -213 q 237 -68 213 -111 q 291 0 262 -25 l 431 0 z "},"į":{"ha":419,"x_min":63,"x_max":335,"o":"m 328 0 l 91 0 l 91 762 l 328 762 l 328 0 m 335 870 l 84 870 l 84 1055 l 335 1055 l 335 870 m 281 0 q 243 -41 256 -20 q 231 -82 231 -62 q 234 -98 231 -91 q 242 -112 236 -105 q 257 -123 249 -119 q 279 -127 264 -127 q 301 -124 290 -127 q 321 -119 313 -121 l 328 -119 l 328 -260 q 263 -275 300 -271 q 206 -280 227 -280 q 103 -247 142 -280 q 63 -163 63 -213 q 87 -68 63 -111 q 141 0 112 -25 l 281 0 z "},"Ĵ":{"ha":695,"x_min":4,"x_max":654,"o":"m 604 296 q 581 173 604 231 q 513 74 559 115 q 393 6 463 28 q 234 -16 324 -16 q 108 -11 167 -16 q 4 4 49 -5 l 4 209 l 27 209 q 91 186 58 197 q 176 176 124 176 q 280 195 243 176 q 331 248 316 214 q 348 325 347 281 q 350 422 350 368 l 350 827 l 119 827 l 119 1010 l 604 1010 l 604 296 m 654 1123 l 479 1123 l 367 1267 l 256 1123 l 83 1123 l 287 1390 l 450 1390 l 654 1123 z "},"ĵ":{"ha":504,"x_min":-57,"x_max":477,"o":"m 413 -14 q 336 -215 413 -142 q 138 -287 260 -287 q 20 -281 73 -287 q -57 -269 -33 -275 l -57 -94 l -39 -94 q 13 -106 -16 -102 q 58 -111 41 -111 q 151 -68 126 -111 q 176 70 176 -26 l 176 596 l 39 596 l 39 762 l 413 762 l 413 -14 m 477 870 l 321 870 l 237 1015 l 153 870 l 0 870 l 159 1137 l 318 1137 l 477 870 z "},"Ķ":{"ha":967,"x_min":104,"x_max":989,"o":"m 989 0 l 683 0 l 408 410 l 358 341 l 358 0 l 104 0 l 104 1010 l 358 1010 l 358 562 l 681 1010 l 975 1010 l 614 541 l 989 0 m 329 -287 l 408 -98 l 624 -98 l 481 -287 l 329 -287 z "},"ķ":{"ha":837,"x_min":91,"x_max":853,"o":"m 853 0 l 571 0 l 365 332 l 328 282 l 328 0 l 91 0 l 91 1055 l 328 1055 l 328 464 l 553 762 l 833 762 l 567 433 l 853 0 m 261 -287 l 340 -98 l 556 -98 l 413 -287 l 261 -287 z "},"ĸ":{"ha":837,"x_min":91,"x_max":853,"o":"m 853 0 l 571 0 l 365 332 l 328 282 l 328 0 l 91 0 l 91 762 l 328 762 l 328 464 l 553 762 l 833 762 l 567 433 l 853 0 z "},"Ļ":{"ha":795,"x_min":104,"x_max":779,"o":"m 779 0 l 104 0 l 104 1010 l 358 1010 l 358 193 l 779 193 l 779 0 m 261 -287 l 340 -98 l 556 -98 l 413 -287 l 261 -287 z "},"ļ":{"ha":419,"x_min":24,"x_max":328,"o":"m 328 0 l 91 0 l 91 1055 l 328 1055 l 328 0 m 24 -287 l 103 -98 l 319 -98 l 176 -287 l 24 -287 z "},"Ņ":{"ha":1070,"x_min":104,"x_max":970,"o":"m 970 0 l 726 0 l 336 704 l 336 0 l 104 0 l 104 1010 l 416 1010 l 738 431 l 738 1010 l 970 1010 l 970 0 m 329 -287 l 408 -98 l 624 -98 l 481 -287 l 329 -287 z "},"ņ":{"ha":889,"x_min":91,"x_max":804,"o":"m 804 0 l 566 0 l 566 378 q 562 470 566 424 q 548 537 558 515 q 513 574 536 563 q 451 585 490 585 q 392 574 422 585 q 328 540 362 564 l 328 0 l 91 0 l 91 762 l 328 762 l 328 677 q 442 755 387 727 q 564 783 497 783 q 743 709 681 783 q 804 496 804 635 l 804 0 m 254 -287 l 334 -98 l 549 -98 l 406 -287 l 254 -287 z "},"Ŋ":{"ha":1070,"x_min":104,"x_max":970,"o":"m 740 -2 l 740 20 l 336 704 l 336 0 l 104 0 l 104 1010 l 416 1010 l 738 461 l 738 1010 l 970 1010 l 970 -12 q 892 -214 970 -141 q 694 -287 815 -287 q 576 -281 629 -287 q 500 -269 524 -275 l 500 -94 l 518 -94 q 576 -106 541 -102 q 628 -111 610 -111 q 668 -106 645 -111 q 705 -93 692 -102 q 731 -63 722 -81 q 740 -2 740 -45 z "},"ŋ":{"ha":889,"x_min":91,"x_max":804,"o":"m 539 -77 q 553 -58 539 -77 q 566 61 566 -39 l 566 378 q 562 470 566 424 q 548 537 558 515 q 513 574 536 563 q 451 585 490 585 q 392 574 422 585 q 328 540 362 564 l 328 0 l 91 0 l 91 762 l 328 762 l 328 677 q 442 755 387 727 q 564 783 497 783 q 743 709 681 783 q 804 496 804 635 l 804 1 q 727 -207 804 -127 q 529 -287 650 -287 q 411 -281 464 -287 q 340 -271 357 -275 l 340 -100 l 359 -100 q 398 -110 375 -105 q 448 -115 421 -115 q 539 -77 513 -115 z "},"Ō":{"ha":1069,"x_min":45,"x_max":1024,"o":"m 1024 505 q 893 119 1024 260 q 534 -21 762 -21 q 176 121 306 -21 q 45 505 45 263 q 176 889 45 748 q 534 1031 306 1031 q 893 890 762 1031 q 1024 505 1024 749 m 762 505 q 744 659 762 595 q 694 763 725 722 q 620 822 661 804 q 535 840 579 840 q 450 824 488 840 q 377 764 412 807 q 327 660 346 725 q 307 505 307 595 q 326 350 307 412 q 376 248 344 289 q 450 188 408 205 q 535 170 491 170 q 622 189 580 170 q 694 249 664 208 q 745 352 727 293 q 762 505 762 410 m 800 1166 l 270 1166 l 270 1308 l 800 1308 l 800 1166 z "},"ō":{"ha":857,"x_min":35,"x_max":822,"o":"m 822 380 q 719 84 822 193 q 429 -24 616 -24 q 139 84 242 -24 q 35 380 35 193 q 139 678 35 570 q 429 785 242 785 q 719 677 616 785 q 822 380 822 569 m 578 379 q 567 492 578 447 q 536 564 556 537 q 489 604 515 593 q 429 615 463 615 q 371 605 397 615 q 323 568 345 595 q 291 495 303 541 q 279 379 279 449 q 290 266 279 309 q 320 197 302 223 q 368 159 339 171 q 431 146 396 146 q 489 159 459 146 q 536 195 518 171 q 568 266 557 224 q 578 379 578 307 m 694 913 l 164 913 l 164 1055 l 694 1055 l 694 913 z "},"Ŏ":{"ha":1069,"x_min":45,"x_max":1024,"o":"m 1024 505 q 893 119 1024 260 q 534 -21 762 -21 q 176 121 306 -21 q 45 505 45 263 q 176 889 45 748 q 534 1031 306 1031 q 893 890 762 1031 q 1024 505 1024 749 m 762 505 q 744 659 762 595 q 694 763 725 722 q 620 822 661 804 q 535 840 579 840 q 450 824 488 840 q 377 764 412 807 q 327 660 346 725 q 307 505 307 595 q 326 350 307 412 q 376 248 344 289 q 450 188 408 205 q 535 170 491 170 q 622 189 580 170 q 694 249 664 208 q 745 352 727 293 q 762 505 762 410 m 785 1362 q 716 1170 785 1236 q 534 1104 647 1104 q 348 1170 412 1104 q 283 1362 283 1236 l 420 1362 q 426 1307 420 1331 q 446 1263 432 1282 q 480 1235 459 1245 q 534 1224 501 1224 q 586 1235 564 1224 q 621 1263 608 1246 q 642 1306 636 1284 q 648 1362 648 1328 l 785 1362 z "},"ŏ":{"ha":857,"x_min":35,"x_max":822,"o":"m 822 380 q 719 84 822 193 q 429 -24 616 -24 q 139 84 242 -24 q 35 380 35 193 q 139 678 35 570 q 429 785 242 785 q 719 677 616 785 q 822 380 822 569 m 578 379 q 567 492 578 447 q 536 564 556 537 q 489 604 515 593 q 429 615 463 615 q 371 605 397 615 q 323 568 345 595 q 291 495 303 541 q 279 379 279 449 q 290 266 279 309 q 320 197 302 223 q 368 159 339 171 q 431 146 396 146 q 489 159 459 146 q 536 195 518 171 q 568 266 557 224 q 578 379 578 307 m 680 1109 q 611 917 680 983 q 429 851 542 851 q 243 917 307 851 q 178 1109 178 983 l 315 1109 q 321 1054 315 1078 q 340 1010 327 1029 q 375 982 354 992 q 429 971 396 971 q 481 982 458 971 q 516 1010 503 993 q 537 1053 531 1031 q 543 1109 543 1075 l 680 1109 z "},"Ŗ":{"ha":1008,"x_min":104,"x_max":1038,"o":"m 1038 0 l 729 0 l 448 370 l 357 370 l 357 0 l 104 0 l 104 1010 l 511 1010 q 657 999 595 1010 q 772 956 720 989 q 859 868 827 921 q 890 732 890 814 q 838 544 890 616 q 699 429 786 472 l 1038 0 m 630 701 q 615 766 630 739 q 567 808 601 793 q 514 821 543 819 q 441 824 485 824 l 357 824 l 357 552 l 429 552 q 519 558 482 552 q 582 586 556 565 q 618 631 606 605 q 630 701 630 658 m 342 -287 l 422 -98 l 637 -98 l 494 -287 l 342 -287 z "},"ŗ":{"ha":602,"x_min":91,"x_max":602,"o":"m 602 537 l 583 537 q 543 544 569 542 q 486 547 517 547 q 408 536 449 547 q 328 510 367 525 l 328 0 l 91 0 l 91 762 l 328 762 l 328 652 q 373 690 345 667 q 426 726 402 713 q 486 753 452 742 q 551 764 520 764 q 576 764 562 764 q 602 762 591 763 l 602 537 m 112 -287 l 191 -98 l 407 -98 l 264 -287 l 112 -287 z "},"Ŝ":{"ha":880,"x_min":50,"x_max":854,"o":"m 416 -18 q 213 4 300 -18 q 50 60 125 26 l 50 300 l 73 300 q 240 201 149 235 q 418 166 332 166 q 475 171 439 166 q 532 186 511 176 q 577 218 559 197 q 595 273 595 239 q 566 334 595 311 q 494 369 536 358 q 384 395 443 382 q 275 425 326 407 q 106 536 157 466 q 56 711 56 606 q 176 940 56 852 q 475 1028 296 1028 q 655 1010 566 1028 q 814 960 744 991 l 814 730 l 792 730 q 655 811 736 778 q 488 844 574 844 q 429 840 455 844 q 373 821 402 835 q 332 789 349 810 q 315 741 315 768 q 342 680 315 703 q 448 639 370 657 q 546 616 499 627 q 647 587 593 606 q 803 485 752 549 q 854 315 854 420 q 736 73 854 165 q 416 -18 618 -18 m 756 1123 l 581 1123 l 469 1267 l 357 1123 l 184 1123 l 389 1390 l 552 1390 l 756 1123 z "},"ŝ":{"ha":715,"x_min":40,"x_max":692,"o":"m 323 -21 q 164 -3 239 -21 q 40 40 89 16 l 40 241 l 60 241 q 98 212 77 228 q 159 180 120 197 q 234 153 192 164 q 324 142 275 142 q 413 157 374 142 q 451 207 451 173 q 433 247 451 233 q 365 273 416 260 q 296 287 338 279 q 223 305 255 295 q 89 388 134 333 q 43 531 43 442 q 67 627 43 582 q 136 707 90 672 q 248 762 181 742 q 399 783 315 783 q 546 767 479 783 q 659 728 613 751 l 659 536 l 640 536 q 602 561 628 545 q 550 589 575 577 q 483 611 520 602 q 408 620 446 620 q 320 602 356 620 q 285 555 285 585 q 302 515 285 530 q 379 486 320 500 q 449 471 410 478 q 526 452 489 464 q 650 374 608 425 q 692 238 692 323 q 667 136 692 184 q 596 54 642 87 q 481 -1 547 18 q 323 -21 415 -21 m 659 870 l 483 870 l 371 1015 l 260 870 l 87 870 l 291 1137 l 454 1137 l 659 870 z "},"Ŧ":{"ha":850,"x_min":0,"x_max":850,"o":"m 850 817 l 552 817 l 552 566 l 726 566 l 726 410 l 552 410 l 552 0 l 298 0 l 298 410 l 125 410 l 125 566 l 298 566 l 298 817 l 0 817 l 0 1010 l 850 1010 l 850 817 z "},"ŧ":{"ha":577,"x_min":14,"x_max":571,"o":"m 571 7 q 489 -9 532 -3 q 382 -15 446 -15 q 167 50 229 -15 q 106 240 106 114 l 106 317 l 21 317 l 21 461 l 106 461 l 106 596 l 14 596 l 14 762 l 105 762 l 105 979 l 342 979 l 342 762 l 571 762 l 571 596 l 341 596 l 341 461 l 498 461 l 498 317 l 342 317 q 342 251 342 277 q 355 199 343 224 q 389 163 367 175 q 458 151 410 151 q 508 159 477 151 q 551 174 538 168 l 571 174 l 571 7 z "},"Ũ":{"ha":1026,"x_min":90,"x_max":936,"o":"m 513 -21 q 200 77 309 -21 q 90 365 90 176 l 90 1010 l 344 1010 l 344 380 q 384 223 344 275 q 513 172 423 172 q 641 221 600 172 q 682 380 682 271 l 682 1010 l 936 1010 l 936 366 q 829 79 936 179 q 513 -21 722 -21 m 812 1347 q 755 1181 805 1234 q 618 1128 706 1128 q 556 1142 585 1128 q 506 1168 527 1155 q 461 1194 486 1181 q 419 1207 436 1207 q 373 1186 385 1207 q 358 1124 361 1164 l 216 1124 q 271 1283 220 1223 q 409 1342 323 1342 q 469 1331 441 1342 q 523 1304 497 1319 q 568 1280 543 1293 q 608 1267 592 1267 q 654 1289 640 1267 q 669 1347 668 1310 l 812 1347 z "},"ũ":{"ha":889,"x_min":85,"x_max":798,"o":"m 798 0 l 561 0 l 561 84 q 448 6 499 33 q 325 -21 396 -21 q 148 51 212 -21 q 85 266 85 122 l 85 762 l 323 762 l 323 384 q 327 288 323 325 q 341 224 330 250 q 375 189 352 201 q 438 176 397 176 q 497 189 463 176 q 561 222 532 201 l 561 762 l 798 762 l 798 0 m 754 1094 q 698 928 747 981 q 560 876 648 876 q 498 889 528 876 q 448 915 469 902 q 403 941 428 928 q 361 954 378 954 q 315 933 328 954 q 300 871 303 911 l 158 871 q 214 1030 162 970 q 351 1089 265 1089 q 412 1078 384 1089 q 465 1051 439 1066 q 510 1027 486 1040 q 550 1014 534 1014 q 596 1036 583 1014 q 612 1094 610 1057 l 754 1094 z "},"Ū":{"ha":1026,"x_min":90,"x_max":936,"o":"m 513 -21 q 200 77 309 -21 q 90 365 90 176 l 90 1010 l 344 1010 l 344 380 q 384 223 344 275 q 513 172 423 172 q 641 221 600 172 q 682 380 682 271 l 682 1010 l 936 1010 l 936 366 q 829 79 936 179 q 513 -21 722 -21 m 779 1166 l 248 1166 l 248 1308 l 779 1308 l 779 1166 z "},"ū":{"ha":889,"x_min":85,"x_max":798,"o":"m 798 0 l 561 0 l 561 84 q 448 6 499 33 q 325 -21 396 -21 q 148 51 212 -21 q 85 266 85 122 l 85 762 l 323 762 l 323 384 q 327 288 323 325 q 341 224 330 250 q 375 189 352 201 q 438 176 397 176 q 497 189 463 176 q 561 222 532 201 l 561 762 l 798 762 l 798 0 m 712 913 l 182 913 l 182 1055 l 712 1055 l 712 913 z "},"Ŭ":{"ha":1026,"x_min":90,"x_max":936,"o":"m 513 -21 q 200 77 309 -21 q 90 365 90 176 l 90 1010 l 344 1010 l 344 380 q 384 223 344 275 q 513 172 423 172 q 641 221 600 172 q 682 380 682 271 l 682 1010 l 936 1010 l 936 366 q 829 79 936 179 q 513 -21 722 -21 m 764 1362 q 695 1170 764 1236 q 514 1104 627 1104 q 328 1170 392 1104 q 263 1362 263 1236 l 400 1362 q 406 1307 400 1331 q 425 1263 412 1282 q 460 1235 439 1245 q 514 1224 481 1224 q 566 1235 543 1224 q 601 1263 588 1246 q 622 1306 616 1284 q 627 1362 627 1328 l 764 1362 z "},"ŭ":{"ha":889,"x_min":85,"x_max":798,"o":"m 798 0 l 561 0 l 561 84 q 448 6 499 33 q 325 -21 396 -21 q 148 51 212 -21 q 85 266 85 122 l 85 762 l 323 762 l 323 384 q 327 288 323 325 q 341 224 330 250 q 375 189 352 201 q 438 176 397 176 q 497 189 463 176 q 561 222 532 201 l 561 762 l 798 762 l 798 0 m 694 1109 q 625 917 694 983 q 444 851 556 851 q 257 917 321 851 q 193 1109 193 983 l 330 1109 q 335 1054 330 1078 q 355 1010 341 1029 q 389 982 368 992 q 444 971 410 971 q 495 982 473 971 q 530 1010 517 993 q 551 1053 545 1031 q 557 1109 557 1075 l 694 1109 z "},"Ų":{"ha":1026,"x_min":90,"x_max":936,"o":"m 513 -21 q 200 77 309 -21 q 90 365 90 176 l 90 1010 l 344 1010 l 344 380 q 384 223 344 275 q 513 172 423 172 q 641 221 600 172 q 682 380 682 271 l 682 1010 l 936 1010 l 936 366 q 829 79 936 179 q 513 -21 722 -21 m 682 0 q 644 -41 656 -20 q 632 -82 632 -62 q 634 -98 632 -91 q 643 -112 637 -105 q 657 -123 650 -119 q 680 -127 665 -127 q 702 -124 690 -127 q 722 -119 713 -121 l 728 -119 l 728 -260 q 664 -275 701 -271 q 607 -280 628 -280 q 504 -247 543 -280 q 464 -163 464 -213 q 488 -68 464 -111 q 542 0 513 -25 l 682 0 z "},"ų":{"ha":889,"x_min":85,"x_max":800,"o":"m 798 0 l 561 0 l 561 84 q 448 6 499 33 q 325 -21 396 -21 q 148 51 212 -21 q 85 266 85 122 l 85 762 l 323 762 l 323 384 q 327 288 323 325 q 341 224 330 250 q 375 189 352 201 q 438 176 397 176 q 497 189 463 176 q 561 222 532 201 l 561 762 l 798 762 l 798 0 m 753 0 q 715 -41 728 -20 q 703 -82 703 -62 q 706 -98 703 -91 q 714 -112 708 -105 q 729 -123 721 -119 q 751 -127 736 -127 q 773 -124 762 -127 q 793 -119 785 -121 l 800 -119 l 800 -260 q 735 -275 772 -271 q 678 -280 699 -280 q 575 -247 614 -280 q 535 -163 535 -213 q 559 -68 535 -111 q 613 0 584 -25 l 753 0 z "},"Ŵ":{"ha":1428,"x_min":20,"x_max":1407,"o":"m 1407 1010 l 1152 0 l 873 0 l 711 625 l 554 0 l 276 0 l 20 1010 l 283 1010 l 422 332 l 592 1010 l 844 1010 l 1004 332 l 1151 1010 l 1407 1010 m 1004 1123 l 828 1123 l 716 1267 l 605 1123 l 432 1123 l 636 1390 l 800 1390 l 1004 1123 z "},"ŵ":{"ha":1236,"x_min":10,"x_max":1225,"o":"m 1225 762 l 1003 0 l 751 0 l 617 492 l 483 0 l 231 0 l 10 762 l 260 762 l 376 258 l 521 762 l 730 762 l 867 258 l 981 762 l 1225 762 m 912 870 l 736 870 l 625 1015 l 513 870 l 340 870 l 545 1137 l 708 1137 l 912 870 z "},"Ŷ":{"ha":931,"x_min":-13,"x_max":944,"o":"m 944 1010 l 595 422 l 595 0 l 342 0 l 342 409 l -13 1010 l 276 1010 l 474 649 l 665 1010 l 944 1010 m 755 1123 l 579 1123 l 467 1267 l 356 1123 l 183 1123 l 387 1390 l 551 1390 l 755 1123 z "},"ŷ":{"ha":800,"x_min":-2,"x_max":802,"o":"m 802 762 l 417 -279 l 162 -279 l 277 18 l -2 762 l 248 762 l 408 284 l 557 762 l 802 762 m 686 870 l 510 870 l 398 1015 l 287 870 l 114 870 l 318 1137 l 481 1137 l 686 870 z "},"ſ":{"ha":448,"x_min":91,"x_max":559,"o":"m 559 869 l 541 869 q 499 879 527 873 q 441 885 471 885 q 351 853 374 885 q 328 747 328 822 l 328 0 l 91 0 l 91 783 q 164 992 91 922 q 386 1062 237 1062 q 482 1058 437 1062 q 559 1048 527 1055 l 559 869 z "},"Ǻ":{"ha":951,"x_min":-4,"x_max":955,"o":"m 955 0 l 694 0 l 631 206 l 313 206 l 250 0 l -4 0 l 321 958 q 273 1023 291 985 q 254 1103 254 1060 q 289 1214 254 1164 q 379 1290 323 1263 l 515 1480 l 732 1480 l 552 1298 q 657 1223 616 1276 q 698 1103 698 1170 q 680 1023 698 1061 q 631 956 661 984 l 955 0 m 568 1109 q 542 1179 568 1152 q 476 1207 516 1207 q 410 1179 436 1207 q 384 1109 384 1152 q 410 1038 384 1066 q 476 1010 435 1010 q 543 1038 517 1010 q 568 1109 568 1067 m 575 389 l 472 722 l 369 389 l 575 389 z "},"ǻ":{"ha":831,"x_min":34,"x_max":747,"o":"m 511 199 l 511 357 q 413 347 450 351 q 340 330 376 342 q 291 297 309 319 q 274 238 274 275 q 303 164 274 184 q 388 144 332 144 q 452 159 419 144 q 511 199 484 173 m 511 81 q 467 44 486 60 q 415 12 448 28 q 353 -12 383 -4 q 269 -20 323 -20 q 102 46 170 -20 q 34 218 34 113 q 68 355 34 303 q 165 438 102 408 q 319 481 230 469 q 512 500 409 494 l 512 505 q 466 592 512 568 q 326 616 419 616 q 212 596 276 616 q 118 562 149 576 l 98 562 l 98 745 q 187 766 132 755 q 311 781 242 777 q 238 853 266 807 q 210 957 210 900 q 243 1069 210 1021 q 328 1141 276 1117 l 466 1341 l 684 1341 l 485 1151 q 588 1079 547 1132 q 628 957 628 1027 q 595 845 628 895 q 510 772 563 795 q 686 693 625 755 q 747 518 747 631 l 747 0 l 511 0 l 511 81 m 511 956 q 485 1027 511 998 q 419 1057 459 1057 q 353 1028 379 1057 q 327 956 327 999 q 353 885 327 913 q 419 857 378 857 q 486 886 460 857 q 511 956 511 914 z "},"Ǽ":{"ha":1373,"x_min":-12,"x_max":1305,"o":"m 1305 0 l 623 0 l 623 274 l 343 274 l 249 0 l -12 0 l 361 1010 l 1305 1010 l 1305 817 l 875 817 l 875 640 l 1272 640 l 1272 448 l 875 448 l 875 193 l 1305 193 l 1305 0 m 623 464 l 623 827 l 540 827 l 411 464 l 623 464 m 1040 1390 l 836 1123 l 675 1123 l 815 1390 l 1040 1390 z "},"ǽ":{"ha":1301,"x_min":34,"x_max":1271,"o":"m 544 210 q 524 281 530 246 q 517 349 518 316 q 422 341 463 345 q 345 326 381 336 q 293 294 313 315 q 274 238 274 273 q 301 167 274 190 q 388 144 328 144 q 477 164 435 144 q 544 210 519 184 m 983 151 q 1065 160 1025 151 q 1138 184 1105 170 q 1192 212 1167 197 q 1232 239 1217 227 l 1257 239 l 1257 43 q 1204 21 1228 31 q 1138 1 1180 12 q 1058 -15 1099 -9 q 958 -20 1017 -20 q 745 6 817 -20 q 609 98 673 33 q 558 54 587 76 q 495 16 529 32 q 419 -11 458 -1 q 326 -20 381 -20 q 108 43 182 -20 q 34 218 34 106 q 68 354 34 302 q 165 435 103 405 q 315 476 227 464 q 512 494 402 488 l 512 505 q 466 592 512 568 q 326 616 419 616 q 228 601 284 616 q 118 562 172 585 l 98 562 l 98 745 q 212 769 133 755 q 370 783 290 783 q 541 759 468 783 q 662 696 614 734 q 775 758 707 731 q 920 785 844 785 q 1183 691 1095 785 q 1271 421 1271 597 l 1271 336 l 751 336 q 773 247 754 283 q 823 191 792 212 q 895 160 854 170 q 983 151 935 151 m 1037 479 q 1002 593 1035 554 q 901 633 969 633 q 792 591 831 633 q 750 479 753 549 l 1037 479 m 928 1137 l 725 870 l 564 870 l 704 1137 l 928 1137 z "},"Ǿ":{"ha":1069,"x_min":45,"x_max":1024,"o":"m 1024 505 q 992 292 1024 391 q 899 125 961 194 q 742 16 833 53 q 534 -21 650 -21 q 406 -6 468 -21 q 292 37 344 9 l 211 -85 l 71 -85 l 197 105 q 85 276 125 174 q 45 505 45 377 q 176 889 45 748 q 534 1031 306 1031 q 660 1017 600 1031 q 774 975 720 1003 l 844 1080 l 986 1080 l 871 906 q 984 734 945 836 q 1024 505 1024 633 m 660 802 q 600 833 633 823 q 535 844 567 844 q 449 827 488 844 q 374 767 410 810 q 322 662 342 727 q 302 505 302 596 q 311 394 302 444 q 334 305 319 344 l 660 802 m 697 246 q 748 351 730 290 q 767 505 767 413 q 758 617 767 561 q 734 707 749 673 l 407 210 q 468 176 436 186 q 535 165 499 165 q 624 186 580 165 q 697 246 667 207 m 743 1390 l 540 1123 l 378 1123 l 519 1390 l 743 1390 z "},"ǿ":{"ha":857,"x_min":35,"x_max":822,"o":"m 822 380 q 719 84 822 193 q 429 -24 616 -24 q 330 -13 378 -24 q 244 16 282 -1 l 162 -110 l 44 -110 l 161 66 q 67 200 100 119 q 35 380 35 281 q 139 678 35 570 q 429 785 242 785 q 528 774 483 785 q 613 746 573 764 l 682 850 l 800 850 l 696 695 q 790 565 758 642 q 822 380 822 488 m 512 595 q 473 613 494 608 q 429 619 452 619 q 370 609 396 619 q 321 571 344 600 q 288 497 300 546 q 275 379 275 448 q 279 306 275 338 q 288 251 283 274 l 512 595 m 538 192 q 572 268 561 222 q 583 379 583 314 q 578 451 583 414 q 569 509 574 488 l 346 166 q 384 148 363 154 q 431 142 404 142 q 490 154 460 142 q 538 192 519 166 m 663 1137 l 459 870 l 298 870 l 438 1137 l 663 1137 z "},"·":{"ha":505,"x_min":132,"x_max":372,"o":"m 372 495 l 132 495 l 132 762 l 372 762 l 372 495 z "},"Ẁ":{"ha":1428,"x_min":20,"x_max":1407,"o":"m 1407 1010 l 1152 0 l 873 0 l 711 625 l 554 0 l 276 0 l 20 1010 l 283 1010 l 422 332 l 592 1010 l 844 1010 l 1004 332 l 1151 1010 l 1407 1010 m 859 1123 l 697 1123 l 494 1390 l 718 1390 l 859 1123 z "},"ẁ":{"ha":1236,"x_min":10,"x_max":1225,"o":"m 1225 762 l 1003 0 l 751 0 l 617 492 l 483 0 l 231 0 l 10 762 l 260 762 l 376 258 l 521 762 l 730 762 l 867 258 l 981 762 l 1225 762 m 749 870 l 587 870 l 384 1137 l 608 1137 l 749 870 z "},"Ẃ":{"ha":1428,"x_min":20,"x_max":1407,"o":"m 1407 1010 l 1152 0 l 873 0 l 711 625 l 554 0 l 276 0 l 20 1010 l 283 1010 l 422 332 l 592 1010 l 844 1010 l 1004 332 l 1151 1010 l 1407 1010 m 942 1390 l 739 1123 l 577 1123 l 718 1390 l 942 1390 z "},"ẃ":{"ha":1236,"x_min":10,"x_max":1225,"o":"m 1225 762 l 1003 0 l 751 0 l 617 492 l 483 0 l 231 0 l 10 762 l 260 762 l 376 258 l 521 762 l 730 762 l 867 258 l 981 762 l 1225 762 m 867 1137 l 664 870 l 503 870 l 643 1137 l 867 1137 z "},"Ẅ":{"ha":1428,"x_min":20,"x_max":1407,"o":"m 1407 1010 l 1152 0 l 873 0 l 711 625 l 554 0 l 276 0 l 20 1010 l 283 1010 l 422 332 l 592 1010 l 844 1010 l 1004 332 l 1151 1010 l 1407 1010 m 977 1123 l 782 1123 l 782 1308 l 977 1308 l 977 1123 m 650 1123 l 456 1123 l 456 1308 l 650 1308 l 650 1123 z "},"ẅ":{"ha":1236,"x_min":10,"x_max":1225,"o":"m 1225 762 l 1003 0 l 751 0 l 617 492 l 483 0 l 231 0 l 10 762 l 260 762 l 376 258 l 521 762 l 730 762 l 867 258 l 981 762 l 1225 762 m 885 870 l 690 870 l 690 1055 l 885 1055 l 885 870 m 559 870 l 364 870 l 364 1055 l 559 1055 l 559 870 z "},"Ỳ":{"ha":931,"x_min":-13,"x_max":944,"o":"m 944 1010 l 595 422 l 595 0 l 342 0 l 342 409 l -13 1010 l 276 1010 l 474 649 l 665 1010 l 944 1010 m 589 1116 l 428 1116 l 224 1383 l 449 1383 l 589 1116 z "},"ỳ":{"ha":800,"x_min":-2,"x_max":802,"o":"m 802 762 l 417 -279 l 162 -279 l 277 18 l -2 762 l 248 762 l 408 284 l 557 762 l 802 762 m 549 870 l 387 870 l 184 1137 l 408 1137 l 549 870 z "},"‛":{"ha":382,"x_min":-15,"x_max":321,"o":"m 321 1055 l 214 656 l -15 656 l 169 1055 l 321 1055 z "},"‾":{"ha":884,"x_min":-35,"x_max":884,"o":"m 884 1107 l -35 1107 l -35 1243 l 884 1243 l 884 1107 z "},"₤":{"ha":884,"x_min":81,"x_max":819,"o":"m 819 0 l 81 0 l 81 181 q 170 232 140 198 q 210 323 201 265 l 103 323 l 103 441 l 217 441 l 217 534 l 103 534 l 103 652 l 216 652 l 216 733 q 310 947 216 865 q 550 1029 404 1029 q 692 1018 635 1029 q 779 997 749 1006 l 779 789 l 755 789 q 680 830 724 814 q 591 846 636 846 q 492 806 530 846 q 454 693 454 766 l 454 652 l 707 652 l 707 534 l 452 534 l 452 441 l 707 441 l 707 323 l 434 323 q 396 250 420 285 q 339 198 372 216 l 339 191 l 819 191 l 819 0 z "},"℮":{"ha":949,"x_min":50,"x_max":902,"o":"m 902 390 l 302 390 q 328 288 305 331 q 389 218 351 245 q 472 182 424 194 q 578 170 521 170 q 672 182 627 170 q 750 209 718 194 q 814 243 785 225 q 858 273 843 262 l 888 273 l 888 54 q 826 30 861 44 q 753 7 790 16 q 655 -12 703 -6 q 551 -18 608 -18 q 179 101 309 -18 q 50 435 50 220 q 170 771 50 642 q 507 901 290 901 q 803 794 705 901 q 902 486 902 687 l 902 390 m 646 549 q 605 686 644 637 q 486 734 566 734 q 359 687 408 734 q 304 549 310 640 l 646 549 z "},"⅛":{"ha":1567,"x_min":104,"x_max":1481,"o":"m 440 379 l 256 379 l 256 791 l 104 791 l 104 914 q 228 938 182 914 q 279 1013 274 962 l 440 1013 l 440 379 m 1077 1016 l 545 0 l 366 0 l 898 1016 l 1077 1016 m 1481 169 q 1407 33 1481 88 q 1192 -22 1333 -22 q 981 28 1057 -22 q 904 167 904 79 q 934 257 904 218 q 1027 321 964 295 l 1027 325 q 950 388 972 353 q 927 470 927 423 q 1002 600 927 552 q 1196 647 1078 647 q 1393 602 1322 647 q 1463 477 1463 557 q 1437 388 1463 430 q 1357 323 1411 347 l 1357 319 q 1451 260 1421 294 q 1481 169 1481 227 m 1279 460 q 1254 513 1279 494 q 1195 532 1228 532 q 1138 514 1164 532 q 1113 466 1113 496 q 1131 422 1113 439 q 1182 392 1149 406 q 1216 380 1202 384 q 1243 372 1230 376 q 1271 413 1263 393 q 1279 460 1279 434 m 1293 167 q 1278 210 1293 191 q 1204 250 1262 229 q 1169 262 1187 257 q 1139 272 1150 268 q 1104 232 1117 254 q 1091 182 1091 210 q 1123 119 1091 143 q 1195 94 1154 94 q 1266 113 1238 94 q 1293 167 1293 132 z "},"⅜":{"ha":1567,"x_min":82,"x_max":1541,"o":"m 606 562 q 536 419 606 471 q 319 368 467 368 q 176 379 233 368 q 82 407 120 391 l 82 553 l 97 553 q 176 523 122 539 q 280 506 229 506 q 381 522 350 506 q 412 575 412 538 q 390 623 412 608 q 305 637 368 637 l 203 637 l 203 770 l 295 770 q 373 786 351 770 q 395 833 395 802 q 368 878 395 864 q 281 892 340 892 q 186 876 237 892 q 107 844 134 859 l 92 844 l 92 989 q 194 1017 136 1004 q 332 1030 252 1030 q 523 988 456 1030 q 590 869 590 947 q 557 770 590 808 q 475 715 525 732 l 475 710 q 567 662 529 699 q 606 562 606 625 m 1154 1016 l 621 0 l 442 0 l 975 1016 l 1154 1016 m 1541 169 q 1467 33 1541 88 q 1253 -22 1393 -22 q 1041 28 1118 -22 q 964 167 964 79 q 994 257 964 218 q 1087 321 1024 295 l 1087 325 q 1010 388 1033 353 q 987 470 987 423 q 1063 600 987 552 q 1257 647 1138 647 q 1453 602 1383 647 q 1524 477 1524 557 q 1498 388 1524 430 q 1417 323 1472 347 l 1417 319 q 1512 260 1482 294 q 1541 169 1541 227 m 1339 460 q 1314 513 1339 494 q 1255 532 1289 532 q 1199 514 1224 532 q 1173 466 1173 496 q 1192 422 1173 439 q 1242 392 1210 406 q 1279 379 1262 384 q 1303 372 1297 374 q 1332 413 1324 393 q 1339 460 1339 434 m 1354 167 q 1338 210 1354 191 q 1265 250 1322 229 q 1227 263 1247 256 q 1200 272 1206 270 q 1164 232 1177 254 q 1152 182 1152 210 q 1183 119 1152 143 q 1255 94 1215 94 q 1326 113 1299 94 q 1354 167 1354 132 z "},"⅝":{"ha":1567,"x_min":90,"x_max":1541,"o":"m 612 598 q 538 426 612 485 q 323 366 464 366 q 191 378 254 366 q 90 403 128 389 l 90 549 l 105 549 q 181 523 130 540 q 281 506 232 506 q 385 527 355 506 q 416 592 416 547 q 374 653 416 637 q 261 669 333 669 q 187 666 221 669 q 125 660 153 663 l 125 1016 l 603 1016 l 603 876 l 301 876 l 301 795 q 335 797 315 796 q 366 797 356 797 q 551 745 490 797 q 612 598 612 692 m 1154 1016 l 621 0 l 442 0 l 975 1016 l 1154 1016 m 1541 169 q 1467 33 1541 88 q 1253 -22 1393 -22 q 1041 28 1118 -22 q 964 167 964 79 q 994 257 964 218 q 1087 321 1024 295 l 1087 325 q 1010 388 1033 353 q 987 470 987 423 q 1063 600 987 552 q 1257 647 1138 647 q 1453 602 1383 647 q 1524 477 1524 557 q 1498 388 1524 430 q 1417 323 1472 347 l 1417 319 q 1512 260 1482 294 q 1541 169 1541 227 m 1339 460 q 1314 513 1339 494 q 1255 532 1289 532 q 1199 514 1224 532 q 1173 466 1173 496 q 1192 422 1173 439 q 1242 392 1210 406 q 1279 379 1262 384 q 1303 372 1297 374 q 1332 413 1324 393 q 1339 460 1339 434 m 1354 167 q 1338 210 1354 191 q 1265 250 1322 229 q 1227 263 1247 256 q 1200 272 1206 270 q 1164 232 1177 254 q 1152 182 1152 210 q 1183 119 1152 143 q 1255 94 1215 94 q 1326 113 1299 94 q 1354 167 1354 132 z "},"⅞":{"ha":1567,"x_min":98,"x_max":1505,"o":"m 640 880 l 321 383 l 118 383 l 441 870 l 98 870 l 98 1016 l 640 1016 l 640 880 m 1083 1016 l 551 0 l 372 0 l 904 1016 l 1083 1016 m 1505 169 q 1431 33 1505 88 q 1216 -22 1356 -22 q 1004 28 1081 -22 q 928 167 928 79 q 958 257 928 218 q 1050 321 987 295 l 1050 325 q 974 388 996 353 q 951 470 951 423 q 1026 600 951 552 q 1220 647 1101 647 q 1417 602 1346 647 q 1487 477 1487 557 q 1461 388 1487 430 q 1381 323 1435 347 l 1381 319 q 1475 260 1445 294 q 1505 169 1505 227 m 1303 460 q 1277 513 1303 494 q 1219 532 1252 532 q 1162 514 1187 532 q 1137 466 1137 496 q 1155 422 1137 439 q 1206 392 1173 406 q 1243 378 1225 384 q 1267 372 1260 373 q 1295 413 1287 393 q 1303 460 1303 434 m 1317 167 q 1301 210 1317 191 q 1228 250 1286 229 q 1190 263 1211 256 q 1163 272 1170 271 q 1128 232 1141 254 q 1115 182 1115 210 q 1146 119 1115 143 q 1219 94 1178 94 q 1290 113 1262 94 q 1317 167 1317 132 z "},"΄":{"ha":758,"x_min":254,"x_max":505,"o":"m 505 1137 l 456 870 l 303 870 l 254 1137 l 505 1137 z "},"΅":{"ha":758,"x_min":31,"x_max":728,"o":"m 728 870 l 553 870 l 553 1055 l 728 1055 l 728 870 m 205 870 l 31 870 l 31 1055 l 205 1055 l 205 870 m 491 1137 l 441 870 l 316 870 l 267 1137 l 491 1137 z "},"Ά":{"ha":1013,"x_min":-7,"x_max":1017,"o":"m 58 0 l 399 1010 l 676 1010 l 1017 0 l 756 0 l 693 206 l 376 206 l 313 0 l 58 0 m 637 389 l 534 722 l 431 389 l 637 389 m 245 1010 l 195 743 l 43 743 l -7 1010 l 245 1010 z "},"Έ":{"ha":1093,"x_min":-7,"x_max":1025,"o":"m 342 0 l 342 1010 l 1025 1010 l 1025 817 l 595 817 l 595 640 l 991 640 l 991 448 l 595 448 l 595 193 l 1025 193 l 1025 0 l 342 0 m 245 1010 l 195 743 l 43 743 l -7 1010 l 245 1010 z "},"Ή":{"ha":1299,"x_min":-7,"x_max":1195,"o":"m 1195 0 l 941 0 l 941 448 l 596 448 l 596 0 l 342 0 l 342 1010 l 596 1010 l 596 640 l 941 640 l 941 1010 l 1195 1010 l 1195 0 m 245 1010 l 195 743 l 43 743 l -7 1010 l 245 1010 z "},"Ί":{"ha":919,"x_min":-7,"x_max":855,"o":"m 855 0 l 311 0 l 311 176 l 456 176 l 456 833 l 311 833 l 311 1010 l 855 1010 l 855 833 l 710 833 l 710 176 l 855 176 l 855 0 m 245 1010 l 195 743 l 43 743 l -7 1010 l 245 1010 z "},"Ό":{"ha":1244,"x_min":-7,"x_max":1199,"o":"m 1199 505 q 1068 119 1199 260 q 709 -21 937 -21 q 351 121 481 -21 q 220 505 220 263 q 351 889 220 748 q 709 1031 481 1031 q 1068 890 937 1031 q 1199 505 1199 749 m 937 505 q 919 659 937 595 q 869 763 900 722 q 795 822 836 804 q 710 840 754 840 q 625 824 663 840 q 552 764 587 807 q 502 660 521 725 q 482 505 482 595 q 500 350 482 412 q 551 248 519 289 q 625 188 583 205 q 710 170 666 170 q 797 189 755 170 q 869 249 839 208 q 920 352 902 293 q 937 505 937 410 m 245 1010 l 195 743 l 43 743 l -7 1010 l 245 1010 z "},"Ύ":{"ha":1219,"x_min":-7,"x_max":1232,"o":"m 1232 1010 l 883 422 l 883 0 l 629 0 l 629 409 l 275 1010 l 564 1010 l 762 649 l 952 1010 l 1232 1010 m 245 1010 l 195 743 l 43 743 l -7 1010 l 245 1010 z "},"Ώ":{"ha":1253,"x_min":-7,"x_max":1223,"o":"m 1223 0 l 788 0 l 788 315 q 850 366 826 343 q 892 416 875 389 q 923 488 912 450 q 933 589 933 526 q 876 773 933 705 q 719 840 818 840 q 564 775 623 840 q 505 589 505 710 q 515 489 505 530 q 546 416 526 448 q 589 365 564 389 q 650 315 615 340 l 650 0 l 215 0 l 215 190 l 433 190 l 433 258 q 298 407 353 315 q 243 612 243 499 q 373 917 243 803 q 719 1031 503 1031 q 1068 916 941 1031 q 1195 613 1195 801 q 1139 407 1195 495 q 1005 258 1084 319 l 1005 190 l 1223 190 l 1223 0 m 245 1010 l 195 743 l 43 743 l -7 1010 l 245 1010 z "},"ΐ":{"ha":419,"x_min":-85,"x_max":504,"o":"m 328 0 l 91 0 l 91 762 l 328 762 l 328 0 m 504 870 l 357 870 l 357 1055 l 504 1055 l 504 870 m 62 870 l -85 870 l -85 1055 l 62 1055 l 62 870 m 298 1137 l 258 870 l 160 870 l 120 1137 l 298 1137 z "},"Α":{"ha":951,"x_min":-4,"x_max":955,"o":"m -4 0 l 337 1010 l 614 1010 l 955 0 l 694 0 l 631 206 l 313 206 l 250 0 l -4 0 m 575 389 l 472 722 l 369 389 l 575 389 z "},"Β":{"ha":953,"x_min":104,"x_max":912,"o":"m 912 309 q 884 177 912 234 q 807 83 855 120 q 682 19 750 38 q 509 0 614 0 l 104 0 l 104 1010 l 461 1010 q 630 1001 572 1010 q 737 966 687 993 q 818 888 791 937 q 845 775 845 839 q 808 644 845 701 q 706 559 771 586 l 706 553 q 856 473 800 534 q 912 309 912 412 m 587 724 q 575 774 587 749 q 536 812 562 800 q 476 824 511 823 q 374 825 442 825 l 357 825 l 357 611 l 389 611 q 480 612 454 611 q 534 627 506 614 q 576 666 564 641 q 587 724 587 691 m 651 314 q 632 387 651 361 q 575 427 613 414 q 512 437 552 436 q 404 438 471 438 l 357 438 l 357 185 l 370 185 q 507 186 469 185 q 585 205 545 188 q 635 249 619 220 q 651 314 651 277 z "},"Δ":{"ha":978,"x_min":-4,"x_max":982,"o":"m 982 0 l -4 0 l 351 1010 l 627 1010 l 982 0 m 665 188 l 486 722 l 306 188 l 665 188 z "},"Ε":{"ha":854,"x_min":104,"x_max":787,"o":"m 104 0 l 104 1010 l 787 1010 l 787 817 l 357 817 l 357 640 l 753 640 l 753 448 l 357 448 l 357 193 l 787 193 l 787 0 l 104 0 z "},"Ζ":{"ha":865,"x_min":37,"x_max":838,"o":"m 838 0 l 37 0 l 37 189 l 501 817 l 61 817 l 61 1010 l 810 1010 l 810 817 l 347 193 l 838 193 l 838 0 z "},"Η":{"ha":1061,"x_min":104,"x_max":957,"o":"m 957 0 l 703 0 l 703 448 l 358 448 l 358 0 l 104 0 l 104 1010 l 358 1010 l 358 640 l 703 640 l 703 1010 l 957 1010 l 957 0 z "},"Ι":{"ha":671,"x_min":64,"x_max":608,"o":"m 608 0 l 64 0 l 64 176 l 209 176 l 209 833 l 64 833 l 64 1010 l 608 1010 l 608 833 l 463 833 l 463 176 l 608 176 l 608 0 z "},"Κ":{"ha":967,"x_min":104,"x_max":989,"o":"m 989 0 l 683 0 l 408 410 l 358 341 l 358 0 l 104 0 l 104 1010 l 358 1010 l 358 562 l 681 1010 l 975 1010 l 614 541 l 989 0 z "},"Λ":{"ha":937,"x_min":-11,"x_max":948,"o":"m 948 0 l 685 0 l 465 684 l 245 0 l -11 0 l 336 1010 l 601 1010 l 948 0 z "},"Μ":{"ha":1240,"x_min":104,"x_max":1136,"o":"m 1136 0 l 884 0 l 884 669 l 700 237 l 527 237 l 343 669 l 343 0 l 104 0 l 104 1010 l 397 1010 l 621 511 l 844 1010 l 1136 1010 l 1136 0 z "},"Ν":{"ha":1070,"x_min":104,"x_max":970,"o":"m 970 0 l 726 0 l 336 704 l 336 0 l 104 0 l 104 1010 l 416 1010 l 738 431 l 738 1010 l 970 1010 l 970 0 z "},"Ξ":{"ha":878,"x_min":65,"x_max":812,"o":"m 812 804 l 65 804 l 65 1010 l 812 1010 l 812 804 m 779 420 l 99 420 l 99 627 l 779 627 l 779 420 m 812 0 l 65 0 l 65 206 l 812 206 l 812 0 z "},"Ο":{"ha":1069,"x_min":45,"x_max":1024,"o":"m 1024 505 q 893 119 1024 260 q 534 -21 762 -21 q 176 121 306 -21 q 45 505 45 263 q 176 889 45 748 q 534 1031 306 1031 q 893 890 762 1031 q 1024 505 1024 749 m 762 505 q 744 659 762 595 q 694 763 725 722 q 620 822 661 804 q 535 840 579 840 q 450 824 488 840 q 377 764 412 807 q 327 660 346 725 q 307 505 307 595 q 326 350 307 412 q 376 248 344 289 q 450 188 408 205 q 535 170 491 170 q 622 189 580 170 q 694 249 664 208 q 745 352 727 293 q 762 505 762 410 z "},"Π":{"ha":1061,"x_min":104,"x_max":957,"o":"m 957 0 l 703 0 l 703 817 l 358 817 l 358 0 l 104 0 l 104 1010 l 957 1010 l 957 0 z "},"Ρ":{"ha":913,"x_min":104,"x_max":882,"o":"m 882 691 q 859 557 882 621 q 795 450 837 493 q 738 401 769 424 q 670 363 707 379 q 589 339 633 348 q 491 330 545 330 l 358 330 l 358 0 l 104 0 l 104 1010 l 496 1010 q 647 994 584 1010 q 762 943 711 978 q 850 842 819 905 q 882 691 882 779 m 621 685 q 601 759 621 728 q 552 801 581 789 q 483 819 516 817 q 394 821 450 821 l 358 821 l 358 519 l 376 519 q 444 519 412 519 q 499 524 475 520 q 542 537 519 528 q 577 559 565 547 q 612 612 603 585 q 621 685 621 639 z "},"Σ":{"ha":849,"x_min":45,"x_max":823,"o":"m 823 0 l 45 0 l 45 193 l 361 532 l 57 821 l 57 1010 l 799 1010 l 799 817 l 368 817 l 644 551 l 644 503 l 355 193 l 823 193 l 823 0 z "},"Τ":{"ha":850,"x_min":0,"x_max":850,"o":"m 298 0 l 298 817 l 0 817 l 0 1010 l 850 1010 l 850 817 l 552 817 l 552 0 l 298 0 z "},"Υ":{"ha":931,"x_min":-13,"x_max":944,"o":"m 944 1010 l 595 422 l 595 0 l 342 0 l 342 409 l -13 1010 l 276 1010 l 474 649 l 665 1010 l 944 1010 z "},"Χ":{"ha":951,"x_min":-8,"x_max":959,"o":"m 959 0 l 665 0 l 471 322 l 273 0 l -8 0 l 319 509 l 5 1010 l 298 1010 l 480 705 l 667 1010 l 948 1010 l 631 519 l 959 0 z "},"Ψ":{"ha":1253,"x_min":70,"x_max":1183,"o":"m 1183 635 q 1075 339 1183 437 q 751 222 966 241 l 751 0 l 501 0 l 501 222 q 176 340 281 242 q 70 635 70 438 l 70 1010 l 320 1010 l 320 639 q 362 472 320 530 q 501 395 404 414 l 501 1010 l 751 1010 l 751 395 q 890 471 848 412 q 932 639 932 530 l 932 1010 l 1183 1010 l 1183 635 z "},"Ω":{"ha":1069,"x_min":31,"x_max":1038,"o":"m 1038 0 l 604 0 l 604 315 q 666 366 642 343 q 707 416 690 389 q 738 488 728 450 q 749 589 749 526 q 691 773 749 705 q 534 840 633 840 q 379 775 439 840 q 320 589 320 710 q 331 489 320 530 q 361 416 342 448 q 405 365 379 389 q 465 315 431 340 l 465 0 l 31 0 l 31 190 l 248 190 l 248 258 q 114 407 169 315 q 58 612 58 499 q 189 917 58 803 q 534 1031 319 1031 q 884 916 757 1031 q 1010 613 1010 801 q 955 407 1010 495 q 821 258 899 319 l 821 190 l 1038 190 l 1038 0 z "},"Ϊ":{"ha":671,"x_min":64,"x_max":608,"o":"m 608 0 l 64 0 l 64 176 l 209 176 l 209 833 l 64 833 l 64 1010 l 608 1010 l 608 833 l 463 833 l 463 176 l 608 176 l 608 0 m 596 1123 l 401 1123 l 401 1308 l 596 1308 l 596 1123 m 270 1123 l 75 1123 l 75 1308 l 270 1308 l 270 1123 z "},"Ϋ":{"ha":931,"x_min":-13,"x_max":944,"o":"m 944 1010 l 595 422 l 595 0 l 342 0 l 342 409 l -13 1010 l 276 1010 l 474 649 l 665 1010 l 944 1010 m 733 1123 l 538 1123 l 538 1308 l 733 1308 l 733 1123 m 407 1123 l 212 1123 l 212 1308 l 407 1308 l 407 1123 z "},"ά":{"ha":874,"x_min":37,"x_max":783,"o":"m 783 0 l 546 0 l 546 79 q 434 2 484 26 q 319 -21 385 -21 q 114 85 192 -21 q 37 380 37 191 q 118 674 37 566 q 327 783 200 783 q 448 761 403 783 q 546 689 492 740 l 546 762 l 783 762 l 783 0 m 546 210 l 546 558 q 489 586 520 576 q 427 597 458 597 q 316 545 352 597 q 279 380 279 494 q 312 218 279 271 q 425 165 345 165 q 488 177 456 165 q 546 210 519 189 m 564 1137 l 515 870 l 362 870 l 313 1137 l 564 1137 z "},"έ":{"ha":727,"x_min":37,"x_max":707,"o":"m 707 38 q 643 16 682 29 q 571 -3 605 3 q 491 -17 528 -12 q 392 -21 455 -21 q 259 -9 323 -21 q 145 28 195 2 q 66 98 96 56 q 37 205 37 141 q 79 326 37 280 q 188 395 121 372 l 188 399 q 96 462 130 417 q 62 568 62 507 q 92 668 62 627 q 172 735 121 709 q 279 771 215 758 q 412 783 344 783 q 568 768 499 783 q 679 739 636 752 l 679 559 l 654 559 q 566 594 623 575 q 450 613 510 613 q 399 610 421 613 q 353 599 378 608 q 319 576 332 591 q 305 540 305 562 q 321 496 305 511 q 363 475 338 481 q 419 469 390 469 q 482 469 449 469 l 545 469 l 545 315 l 453 315 q 386 314 412 315 q 331 304 359 313 q 294 279 308 296 q 281 233 281 261 q 296 192 281 208 q 337 166 312 175 q 391 153 361 157 q 450 149 422 149 q 576 171 511 149 q 682 220 642 192 l 707 220 l 707 38 m 533 1137 l 484 870 l 331 870 l 281 1137 l 533 1137 z "},"ή":{"ha":888,"x_min":91,"x_max":804,"o":"m 804 -279 l 566 -279 l 566 378 q 562 470 566 424 q 548 537 558 515 q 513 574 536 563 q 451 585 490 585 q 392 574 422 585 q 328 540 362 564 l 328 0 l 91 0 l 91 762 l 328 762 l 328 677 q 442 755 387 727 q 564 783 497 783 q 743 709 681 783 q 804 496 804 635 l 804 -279 m 567 1137 l 517 870 l 365 870 l 315 1137 l 567 1137 z "},"ί":{"ha":419,"x_min":84,"x_max":336,"o":"m 328 0 l 91 0 l 91 762 l 328 762 l 328 0 m 336 1137 l 286 870 l 134 870 l 84 1137 l 336 1137 z "},"ΰ":{"ha":882,"x_min":83,"x_max":798,"o":"m 798 273 q 706 51 798 125 q 440 -24 613 -24 q 177 50 270 -24 q 83 273 83 123 l 83 762 l 322 762 l 322 354 q 326 261 322 297 q 343 198 330 224 q 379 161 356 173 q 441 149 401 149 q 503 161 479 149 q 540 199 527 173 q 555 260 551 224 q 559 354 559 297 l 559 762 l 798 762 l 798 273 m 789 870 l 615 870 l 615 1055 l 789 1055 l 789 870 m 267 870 l 92 870 l 92 1055 l 267 1055 l 267 870 m 553 1137 l 503 870 l 378 870 l 328 1137 l 553 1137 z "},"β":{"ha":890,"x_min":91,"x_max":860,"o":"m 860 301 q 769 76 860 165 q 541 -14 677 -14 q 426 -1 479 -14 q 328 39 374 12 l 328 -279 l 91 -279 l 91 728 q 112 863 91 804 q 180 968 134 922 q 299 1036 225 1011 q 471 1060 372 1060 q 715 992 623 1060 q 808 805 808 925 q 765 661 808 725 q 648 571 723 597 l 648 559 q 804 473 747 540 q 860 301 860 406 m 616 320 q 600 396 616 366 q 555 443 583 426 q 490 466 528 459 q 405 472 452 472 l 388 472 l 388 631 q 520 663 476 631 q 565 774 565 695 q 533 862 565 831 q 454 892 501 892 q 394 880 416 892 q 355 843 372 867 q 335 791 341 823 q 328 730 328 760 l 328 180 q 380 165 350 170 q 435 159 410 159 q 505 169 469 159 q 562 197 540 178 q 603 245 589 219 q 616 320 616 271 z "},"γ":{"ha":804,"x_min":0,"x_max":804,"o":"m 804 762 l 519 18 l 519 -279 l 282 -279 l 282 18 l 0 762 l 250 762 l 406 292 l 559 762 l 804 762 z "},"ζ":{"ha":669,"x_min":37,"x_max":706,"o":"m 706 -33 q 677 -166 706 -100 q 607 -279 648 -233 l 408 -279 l 408 -263 q 443 -225 429 -241 q 473 -184 458 -208 q 494 -139 488 -159 q 500 -89 500 -119 q 495 -58 500 -75 q 479 -29 489 -41 q 452 -8 470 -17 q 414 1 435 1 l 332 1 q 110 75 183 1 q 37 295 37 149 q 66 466 37 385 q 144 622 95 547 q 257 763 192 696 q 385 884 323 830 l 385 890 l 95 890 l 95 1055 l 686 1055 l 686 905 q 539 795 612 859 q 409 661 466 732 q 317 510 352 589 q 281 353 281 431 q 283 314 281 333 q 292 270 285 295 q 314 228 300 248 q 355 193 328 208 q 418 178 378 179 q 492 176 458 176 l 522 176 q 604 158 570 176 q 661 109 637 139 q 695 41 684 77 q 706 -33 706 6 z "},"η":{"ha":888,"x_min":91,"x_max":804,"o":"m 804 -279 l 566 -279 l 566 378 q 562 470 566 424 q 548 537 558 515 q 513 574 536 563 q 451 585 490 585 q 392 574 422 585 q 328 540 362 564 l 328 0 l 91 0 l 91 762 l 328 762 l 328 677 q 442 755 387 727 q 564 783 497 783 q 743 709 681 783 q 804 496 804 635 l 804 -279 z "},"θ":{"ha":876,"x_min":56,"x_max":820,"o":"m 758 871 q 808 697 797 791 q 820 515 820 603 q 807 334 820 436 q 758 160 794 233 q 633 23 711 70 q 438 -23 555 -23 q 233 29 309 -23 q 118 162 157 81 q 67 340 79 243 q 56 521 56 437 q 67 701 56 610 q 119 875 79 793 q 235 1005 158 954 q 438 1057 311 1057 q 643 1004 567 1057 q 758 871 720 951 m 583 612 q 573 721 581 665 q 545 819 564 777 q 501 873 528 856 q 438 890 475 890 q 375 874 401 890 q 331 819 350 859 q 303 721 311 776 q 293 612 295 666 l 583 612 m 583 443 l 293 443 q 301 326 294 385 q 330 219 309 266 q 374 163 347 182 q 438 144 401 144 q 503 163 473 144 q 547 221 532 182 q 574 327 566 266 q 583 443 583 387 z "},"ι":{"ha":419,"x_min":91,"x_max":328,"o":"m 328 0 l 91 0 l 91 762 l 328 762 l 328 0 z "},"κ":{"ha":833,"x_min":91,"x_max":846,"o":"m 846 0 l 568 0 l 370 322 l 328 275 l 328 0 l 91 0 l 91 762 l 328 762 l 328 456 l 500 668 q 584 738 535 712 q 693 763 633 763 q 740 762 711 763 q 781 762 768 762 l 781 551 l 770 551 q 750 553 762 552 q 732 553 739 553 q 678 543 708 553 q 629 507 648 532 l 570 429 l 846 0 z "},"λ":{"ha":802,"x_min":0,"x_max":802,"o":"m 802 0 l 553 0 l 404 431 l 243 0 l 0 0 l 283 715 l 147 1055 l 405 1055 l 802 0 z "},"μ":{"ha":904,"x_min":91,"x_max":813,"o":"m 813 0 l 604 0 l 593 49 l 588 49 q 527 5 555 21 q 454 -10 498 -10 q 383 6 415 -10 q 328 43 351 22 l 328 -279 l 91 -279 l 91 762 l 328 762 l 328 212 q 390 179 357 189 q 452 168 422 168 q 512 178 479 168 q 576 212 545 188 l 576 762 l 813 762 l 813 0 z "},"ν":{"ha":804,"x_min":0,"x_max":804,"o":"m 804 762 l 530 0 l 271 0 l 0 762 l 250 762 l 406 258 l 559 762 l 804 762 z "},"ξ":{"ha":712,"x_min":34,"x_max":743,"o":"m 743 -33 q 713 -166 743 -100 q 644 -279 684 -233 l 444 -279 l 444 -263 q 480 -225 465 -241 q 509 -184 494 -208 q 531 -139 524 -159 q 537 -89 537 -119 q 531 -58 537 -75 q 516 -29 526 -41 q 489 -8 507 -17 q 450 1 471 1 l 354 1 q 120 76 205 1 q 34 277 34 150 q 91 447 34 379 q 254 543 148 515 l 254 550 q 134 614 181 567 q 87 726 87 661 q 120 820 87 780 q 204 886 153 860 l 204 892 l 55 892 l 55 1055 l 682 1055 l 682 890 l 524 890 q 379 853 429 890 q 330 757 330 816 q 348 691 330 718 q 395 650 366 665 q 456 630 421 636 q 530 623 491 623 l 651 623 l 651 452 l 464 452 q 328 415 378 452 q 277 315 277 378 q 296 239 277 267 q 345 197 314 212 q 416 180 376 184 q 504 176 456 176 l 559 176 q 640 158 606 176 q 697 109 674 139 q 732 41 721 77 q 743 -33 743 6 z "},"ο":{"ha":857,"x_min":35,"x_max":822,"o":"m 822 380 q 719 84 822 193 q 429 -24 616 -24 q 139 84 242 -24 q 35 380 35 193 q 139 678 35 570 q 429 785 242 785 q 719 677 616 785 q 822 380 822 569 m 578 379 q 567 492 578 447 q 536 564 556 537 q 489 604 515 593 q 429 615 463 615 q 371 605 397 615 q 323 568 345 595 q 291 495 303 541 q 279 379 279 449 q 290 266 279 309 q 320 197 302 223 q 368 159 339 171 q 431 146 396 146 q 489 159 459 146 q 536 195 518 171 q 568 266 557 224 q 578 379 578 307 z "},"ρ":{"ha":874,"x_min":91,"x_max":838,"o":"m 754 666 q 818 542 798 613 q 838 394 838 471 q 817 243 838 317 q 757 112 797 169 q 657 19 715 53 q 517 -15 599 -15 q 409 1 455 -15 q 328 39 362 18 l 328 -279 l 91 -279 l 91 444 q 191 694 91 604 q 460 785 291 785 q 637 753 565 785 q 754 666 710 720 m 562 231 q 587 301 578 262 q 595 385 595 340 q 590 467 595 422 q 570 541 585 511 q 528 595 555 574 q 456 616 501 616 q 362 574 395 616 q 328 455 328 531 l 328 180 q 379 164 356 169 q 433 159 402 159 q 511 179 479 159 q 562 231 543 198 z "},"ς":{"ha":700,"x_min":35,"x_max":720,"o":"m 720 -33 q 691 -167 720 -102 q 621 -279 662 -232 l 422 -279 l 422 -263 q 457 -225 443 -241 q 487 -184 472 -208 q 508 -139 502 -159 q 515 -89 515 -119 q 509 -58 515 -75 q 494 -29 503 -41 q 467 -8 484 -17 q 428 1 449 1 l 391 1 q 253 24 319 1 q 140 92 187 47 q 63 210 92 138 q 35 378 35 281 q 68 556 35 478 q 163 687 101 635 q 294 759 219 735 q 452 783 370 783 q 580 767 514 783 q 700 724 646 752 l 700 520 l 670 520 q 637 549 656 533 q 592 579 617 566 q 534 603 567 593 q 464 612 502 612 q 327 556 374 612 q 279 408 279 500 q 333 234 279 291 q 504 176 387 176 l 535 176 q 670 115 619 176 q 720 -33 720 53 z "},"υ":{"ha":882,"x_min":83,"x_max":798,"o":"m 798 273 q 706 51 798 125 q 440 -24 613 -24 q 177 50 270 -24 q 83 273 83 123 l 83 762 l 322 762 l 322 354 q 326 261 322 297 q 343 198 330 224 q 379 161 356 173 q 441 149 401 149 q 503 161 479 149 q 540 199 527 173 q 555 260 551 224 q 559 354 559 297 l 559 762 l 798 762 l 798 273 z "},"χ":{"ha":782,"x_min":-16,"x_max":798,"o":"m 798 -279 l 549 -279 l 389 51 l 228 -279 l -16 -279 l 255 248 l -6 762 l 243 762 l 393 449 l 545 762 l 788 762 l 526 252 l 798 -279 z "},"ψ":{"ha":1187,"x_min":83,"x_max":1104,"o":"m 1104 327 q 1074 180 1104 242 q 991 79 1043 118 q 867 17 939 39 q 711 -13 796 -5 l 711 -279 l 475 -279 l 475 -13 q 315 18 383 -4 q 197 79 248 40 q 113 181 143 119 q 83 327 83 242 l 83 762 l 320 762 l 320 350 q 331 256 320 292 q 363 196 342 219 q 412 164 382 175 q 475 151 441 154 l 475 762 l 711 762 l 711 151 q 775 164 746 155 q 824 196 804 174 q 856 253 845 220 q 867 350 867 287 l 867 762 l 1104 762 l 1104 327 z "},"ω":{"ha":1124,"x_min":37,"x_max":1087,"o":"m 1087 340 q 1070 207 1087 271 q 1018 93 1053 142 q 925 9 981 40 q 785 -22 870 -22 q 649 13 707 -22 q 566 87 592 47 l 558 87 q 477 13 532 49 q 340 -22 422 -22 q 201 9 259 -22 q 106 93 143 41 q 54 208 71 143 q 37 340 37 272 q 80 564 37 463 q 205 762 123 664 l 458 762 l 458 746 q 323 561 368 664 q 277 345 277 457 q 281 277 277 307 q 296 214 284 247 q 326 167 307 186 q 376 148 346 148 q 416 154 399 148 q 444 166 434 159 l 444 568 l 680 568 l 680 166 q 706 153 690 159 q 749 148 722 148 q 797 165 777 148 q 828 215 817 183 q 843 275 838 242 q 847 345 847 307 q 801 561 847 458 q 665 746 755 664 l 665 762 l 919 762 q 1044 567 1002 667 q 1087 340 1087 467 z "},"ϊ":{"ha":419,"x_min":-24,"x_max":446,"o":"m 328 0 l 91 0 l 91 762 l 328 762 l 328 0 m 446 870 l 256 870 l 256 1055 l 446 1055 l 446 870 m 165 870 l -24 870 l -24 1055 l 165 1055 l 165 870 z "},"ϋ":{"ha":882,"x_min":83,"x_max":798,"o":"m 798 273 q 706 51 798 125 q 440 -24 613 -24 q 177 50 270 -24 q 83 273 83 123 l 83 762 l 322 762 l 322 354 q 326 261 322 297 q 343 198 330 224 q 379 161 356 173 q 441 149 401 149 q 503 161 479 149 q 540 199 527 173 q 555 260 551 224 q 559 354 559 297 l 559 762 l 798 762 l 798 273 m 701 870 l 507 870 l 507 1055 l 701 1055 l 701 870 m 375 870 l 180 870 l 180 1055 l 375 1055 l 375 870 z "},"ό":{"ha":857,"x_min":35,"x_max":822,"o":"m 822 380 q 719 84 822 193 q 429 -24 616 -24 q 139 84 242 -24 q 35 380 35 193 q 139 678 35 570 q 429 785 242 785 q 719 677 616 785 q 822 380 822 569 m 578 379 q 567 492 578 447 q 536 564 556 537 q 489 604 515 593 q 429 615 463 615 q 371 605 397 615 q 323 568 345 595 q 291 495 303 541 q 279 379 279 449 q 290 266 279 309 q 320 197 302 223 q 368 159 339 171 q 431 146 396 146 q 489 159 459 146 q 536 195 518 171 q 568 266 557 224 q 578 379 578 307 m 555 1137 l 505 870 l 353 870 l 303 1137 l 555 1137 z "},"ύ":{"ha":882,"x_min":83,"x_max":798,"o":"m 798 273 q 706 51 798 125 q 440 -24 613 -24 q 177 50 270 -24 q 83 273 83 123 l 83 762 l 322 762 l 322 354 q 326 261 322 297 q 343 198 330 224 q 379 161 356 173 q 441 149 401 149 q 503 161 479 149 q 540 199 527 173 q 555 260 551 224 q 559 354 559 297 l 559 762 l 798 762 l 798 273 m 566 1137 l 517 870 l 364 870 l 315 1137 l 566 1137 z "},"ώ":{"ha":1124,"x_min":37,"x_max":1087,"o":"m 1087 340 q 1070 207 1087 271 q 1018 93 1053 142 q 925 9 981 40 q 785 -22 870 -22 q 649 13 707 -22 q 566 87 592 47 l 558 87 q 477 13 532 49 q 340 -22 422 -22 q 201 9 259 -22 q 106 93 143 41 q 54 208 71 143 q 37 340 37 272 q 80 564 37 463 q 205 762 123 664 l 458 762 l 458 746 q 323 561 368 664 q 277 345 277 457 q 281 277 277 307 q 296 214 284 247 q 326 167 307 186 q 376 148 346 148 q 416 154 399 148 q 444 166 434 159 l 444 568 l 680 568 l 680 166 q 706 153 690 159 q 749 148 722 148 q 797 165 777 148 q 828 215 817 183 q 843 275 838 242 q 847 345 847 307 q 801 561 847 458 q 665 746 755 664 l 665 762 l 919 762 q 1044 567 1002 667 q 1087 340 1087 467 m 688 1137 l 638 870 l 486 870 l 436 1137 l 688 1137 z "},"Ё":{"ha":854,"x_min":104,"x_max":787,"o":"m 104 0 l 104 1010 l 787 1010 l 787 817 l 357 817 l 357 640 l 753 640 l 753 448 l 357 448 l 357 193 l 787 193 l 787 0 l 104 0 m 707 1123 l 513 1123 l 513 1308 l 707 1308 l 707 1123 m 381 1123 l 186 1123 l 186 1308 l 381 1308 l 381 1123 z "},"Ђ":{"ha":1120,"x_min":0,"x_max":1090,"o":"m 1090 323 q 1063 186 1090 248 q 985 84 1035 124 q 860 17 924 35 q 702 0 797 0 l 641 0 l 641 191 l 668 191 q 747 200 715 191 q 796 227 778 210 q 822 267 814 244 q 829 315 829 290 q 823 363 829 340 q 800 404 818 385 q 749 433 781 422 q 661 444 718 444 l 525 444 l 525 0 l 271 0 l 271 817 l 0 817 l 0 1010 l 844 1010 l 844 817 l 525 817 l 525 631 l 699 631 q 871 616 804 631 q 991 559 938 601 q 1067 457 1043 519 q 1090 323 1090 396 z "},"Ѓ":{"ha":785,"x_min":104,"x_max":785,"o":"m 785 817 l 358 817 l 358 0 l 104 0 l 104 1010 l 785 1010 l 785 817 m 687 1390 l 484 1123 l 322 1123 l 463 1390 l 687 1390 z "},"Є":{"ha":927,"x_min":45,"x_max":882,"o":"m 882 58 q 821 32 850 44 q 743 7 792 20 q 651 -13 698 -5 q 540 -20 605 -20 q 341 13 432 -20 q 184 113 250 46 q 82 276 118 178 q 45 504 45 374 q 179 887 45 745 q 541 1029 313 1029 q 725 1008 636 1029 q 882 952 814 987 l 882 720 l 856 720 q 809 758 840 734 q 747 798 777 782 q 666 830 713 817 q 570 844 618 844 q 481 832 523 844 q 406 794 440 819 q 342 726 369 768 q 304 624 315 684 l 699 624 l 699 431 l 296 431 q 330 302 302 354 q 397 220 359 250 q 478 179 433 192 q 571 165 524 165 q 673 180 626 165 q 754 212 721 194 q 816 252 789 231 q 859 287 843 273 l 882 287 l 882 58 z "},"Ѕ":{"ha":880,"x_min":50,"x_max":854,"o":"m 416 -18 q 213 4 300 -18 q 50 60 125 26 l 50 300 l 73 300 q 240 201 149 235 q 418 166 332 166 q 475 171 439 166 q 532 186 511 176 q 577 218 559 197 q 595 273 595 239 q 566 334 595 311 q 494 369 536 358 q 384 395 443 382 q 275 425 326 407 q 106 536 157 466 q 56 711 56 606 q 176 940 56 852 q 475 1028 296 1028 q 655 1010 566 1028 q 814 960 744 991 l 814 730 l 792 730 q 655 811 736 778 q 488 844 574 844 q 429 840 455 844 q 373 821 402 835 q 332 789 349 810 q 315 741 315 768 q 342 680 315 703 q 448 639 370 657 q 546 616 499 627 q 647 587 593 606 q 803 485 752 549 q 854 315 854 420 q 736 73 854 165 q 416 -18 618 -18 z "},"І":{"ha":671,"x_min":64,"x_max":608,"o":"m 608 0 l 64 0 l 64 176 l 209 176 l 209 833 l 64 833 l 64 1010 l 608 1010 l 608 833 l 463 833 l 463 176 l 608 176 l 608 0 z "},"Ї":{"ha":671,"x_min":64,"x_max":608,"o":"m 608 0 l 64 0 l 64 176 l 209 176 l 209 833 l 64 833 l 64 1010 l 608 1010 l 608 833 l 463 833 l 463 176 l 608 176 l 608 0 m 596 1123 l 401 1123 l 401 1308 l 596 1308 l 596 1123 m 270 1123 l 75 1123 l 75 1308 l 270 1308 l 270 1123 z "},"Ј":{"ha":695,"x_min":4,"x_max":604,"o":"m 604 296 q 581 173 604 231 q 513 74 559 115 q 393 6 463 28 q 234 -16 324 -16 q 108 -11 167 -16 q 4 4 49 -5 l 4 209 l 27 209 q 91 186 58 197 q 176 176 124 176 q 280 195 243 176 q 331 248 316 214 q 348 325 347 281 q 350 422 350 368 l 350 827 l 119 827 l 119 1010 l 604 1010 l 604 296 z "},"Љ":{"ha":1545,"x_min":2,"x_max":1515,"o":"m 1515 323 q 1487 187 1515 249 q 1410 85 1459 125 q 1284 19 1352 39 q 1120 0 1217 0 l 710 0 l 710 817 l 465 817 q 460 707 463 758 q 455 610 458 656 q 431 381 448 477 q 392 224 414 286 q 344 122 368 159 q 298 63 319 85 q 216 12 265 31 q 120 -7 168 -7 q 50 -4 88 -7 q 2 0 12 -1 l 2 223 l 12 223 q 25 222 18 222 q 41 221 31 221 q 85 227 58 221 q 125 245 111 232 q 192 388 174 291 q 219 667 210 484 q 224 817 223 750 q 229 1010 225 883 l 962 1010 l 962 631 l 1124 631 q 1286 618 1214 631 q 1415 559 1358 605 q 1491 457 1468 519 q 1515 323 1515 396 m 1253 315 q 1248 363 1253 340 q 1224 404 1242 385 q 1174 433 1206 422 q 1086 444 1142 444 l 962 444 l 962 187 l 1086 187 q 1208 220 1164 187 q 1253 315 1253 254 z "},"Њ":{"ha":1528,"x_min":104,"x_max":1498,"o":"m 1498 323 q 1470 187 1498 249 q 1393 85 1442 125 q 1267 19 1335 39 q 1103 0 1200 0 l 693 0 l 693 444 l 358 444 l 358 0 l 104 0 l 104 1010 l 358 1010 l 358 629 l 693 629 l 693 1010 l 945 1010 l 945 631 l 1107 631 q 1273 618 1206 631 q 1398 559 1340 606 q 1474 457 1451 519 q 1498 323 1498 396 m 1236 316 q 1231 364 1236 340 q 1207 405 1225 387 q 1156 434 1190 423 q 1069 446 1123 446 l 945 446 l 945 187 l 1069 187 q 1192 221 1148 187 q 1236 316 1236 254 z "},"Ћ":{"ha":1141,"x_min":0,"x_max":1077,"o":"m 1077 0 l 822 0 l 822 237 q 816 334 822 288 q 792 408 810 380 q 736 454 774 437 q 633 470 699 470 q 580 467 606 470 q 525 458 555 463 l 525 0 l 271 0 l 271 817 l 0 817 l 0 1010 l 844 1010 l 844 817 l 525 817 l 525 631 q 641 653 572 642 q 766 665 710 665 q 888 647 831 665 q 986 594 945 630 q 1053 503 1028 559 q 1077 370 1077 447 l 1077 0 z "},"Ќ":{"ha":972,"x_min":104,"x_max":995,"o":"m 995 0 l 692 0 l 422 408 l 358 408 l 358 0 l 104 0 l 104 1010 l 358 1010 l 358 598 q 447 625 418 601 q 517 729 477 648 q 544 785 529 753 q 571 842 559 818 q 679 973 615 934 q 846 1012 742 1012 q 902 1011 880 1012 q 937 1010 924 1010 l 937 793 l 878 793 q 803 767 835 793 q 737 660 770 740 q 687 563 711 596 q 644 519 664 530 l 995 0 m 756 1390 l 553 1123 l 391 1123 l 532 1390 l 756 1390 z "},"Ў":{"ha":929,"x_min":1,"x_max":939,"o":"m 939 1010 l 602 202 q 535 91 572 132 q 457 29 498 50 q 376 1 416 8 q 290 -6 335 -6 q 181 -4 243 -6 q 98 0 119 -2 l 98 214 l 114 214 q 133 211 120 213 q 165 207 146 209 q 201 204 182 205 q 235 203 220 203 q 321 214 281 203 q 375 252 361 225 l 1 1010 l 275 1010 l 492 536 l 675 1010 l 939 1010 m 825 1343 q 738 1147 825 1221 q 467 1074 650 1074 q 199 1148 288 1074 q 109 1343 110 1223 l 332 1343 q 363 1235 333 1269 q 467 1202 393 1202 q 572 1236 542 1202 q 603 1343 602 1270 l 825 1343 z "},"Џ":{"ha":1064,"x_min":104,"x_max":960,"o":"m 960 0 l 648 0 l 648 -239 l 416 -239 l 416 0 l 104 0 l 104 1010 l 358 1010 l 358 191 l 706 191 l 706 1010 l 960 1010 l 960 0 z "},"А":{"ha":951,"x_min":-4,"x_max":955,"o":"m -4 0 l 337 1010 l 614 1010 l 955 0 l 694 0 l 631 206 l 313 206 l 250 0 l -4 0 m 575 389 l 472 722 l 369 389 l 575 389 z "},"Б":{"ha":953,"x_min":104,"x_max":915,"o":"m 915 323 q 887 187 915 249 q 810 85 859 125 q 684 19 751 39 q 519 0 616 0 l 104 0 l 104 1010 l 838 1010 l 838 817 l 357 817 l 357 631 l 524 631 q 686 617 614 631 q 815 559 758 604 q 891 457 867 519 q 915 323 915 396 m 653 315 q 648 363 653 340 q 624 404 642 385 q 574 433 606 422 q 486 444 542 444 l 357 444 l 357 187 l 486 187 q 608 220 564 187 q 653 315 653 254 z "},"В":{"ha":953,"x_min":104,"x_max":912,"o":"m 912 309 q 884 177 912 234 q 807 83 855 120 q 682 19 750 38 q 509 0 614 0 l 104 0 l 104 1010 l 461 1010 q 630 1001 572 1010 q 737 966 687 993 q 818 888 791 937 q 845 775 845 839 q 808 644 845 701 q 706 559 771 586 l 706 553 q 856 473 800 534 q 912 309 912 412 m 587 724 q 575 774 587 749 q 536 812 562 800 q 476 824 511 823 q 374 825 442 825 l 357 825 l 357 611 l 389 611 q 480 612 454 611 q 534 627 506 614 q 576 666 564 641 q 587 724 587 691 m 651 314 q 632 387 651 361 q 575 427 613 414 q 512 437 552 436 q 404 438 471 438 l 357 438 l 357 185 l 370 185 q 507 186 469 185 q 585 205 545 188 q 635 249 619 220 q 651 314 651 277 z "},"Г":{"ha":785,"x_min":104,"x_max":785,"o":"m 785 817 l 358 817 l 358 0 l 104 0 l 104 1010 l 785 1010 l 785 817 z "},"Д":{"ha":1065,"x_min":8,"x_max":1038,"o":"m 1038 -232 l 805 -232 l 805 3 l 241 3 l 241 -232 l 8 -232 l 8 193 l 76 193 q 189 553 147 341 q 230 1010 230 765 l 942 1010 l 942 193 l 1038 193 l 1038 -232 m 688 193 l 688 817 l 467 817 q 416 474 454 634 q 321 193 378 313 l 688 193 z "},"Е":{"ha":854,"x_min":104,"x_max":787,"o":"m 104 0 l 104 1010 l 787 1010 l 787 817 l 357 817 l 357 640 l 753 640 l 753 448 l 357 448 l 357 193 l 787 193 l 787 0 l 104 0 z "},"Ж":{"ha":1450,"x_min":-12,"x_max":1462,"o":"m 1462 0 l 1163 0 l 917 414 l 851 414 l 851 0 l 599 0 l 599 414 l 530 414 l 283 0 l -12 0 l 304 514 q 259 562 280 528 q 216 656 238 595 q 160 760 191 730 q 83 791 130 791 l 37 791 l 37 1010 q 75 1011 50 1010 q 132 1012 100 1012 q 297 971 235 1012 q 398 842 359 931 q 420 784 410 814 q 444 726 431 753 q 513 618 481 645 q 599 591 545 591 l 599 1010 l 851 1010 l 851 591 q 939 617 909 591 q 1006 726 968 643 q 1029 784 1017 751 q 1052 842 1041 816 q 1152 971 1090 931 q 1318 1012 1215 1012 q 1376 1011 1353 1012 q 1413 1010 1400 1010 l 1413 793 l 1367 793 q 1286 764 1311 793 q 1232 660 1261 734 q 1187 564 1206 595 q 1144 517 1168 532 l 1462 0 z "},"З":{"ha":883,"x_min":28,"x_max":832,"o":"m 758 478 q 812 406 791 449 q 832 301 832 363 q 716 65 832 150 q 382 -20 600 -20 q 193 -2 283 -20 q 28 46 103 16 l 28 272 l 52 272 q 185 203 102 237 q 348 170 269 170 q 511 206 450 170 q 571 319 571 243 q 527 416 571 385 q 368 448 483 448 l 223 448 l 223 628 l 361 628 q 500 657 456 628 q 545 743 545 686 q 496 817 545 794 q 367 840 448 840 q 280 831 321 840 q 200 807 239 821 q 133 777 163 793 q 85 753 102 761 l 62 753 l 62 963 q 206 1005 106 981 q 416 1029 306 1029 q 708 965 611 1029 q 805 785 805 900 q 752 636 805 699 q 614 553 699 574 l 614 543 q 687 520 646 537 q 758 478 728 503 z "},"И":{"ha":1077,"x_min":104,"x_max":977,"o":"m 977 0 l 727 0 l 727 665 l 339 0 l 104 0 l 104 1010 l 354 1010 l 354 408 l 713 1010 l 977 1010 l 977 0 z "},"Й":{"ha":1077,"x_min":104,"x_max":977,"o":"m 977 0 l 727 0 l 727 665 l 339 0 l 104 0 l 104 1010 l 354 1010 l 354 408 l 713 1010 l 977 1010 l 977 0 m 900 1343 q 812 1147 899 1221 q 542 1074 725 1074 q 273 1148 362 1074 q 184 1343 184 1223 l 406 1343 q 437 1235 408 1269 q 542 1202 467 1202 q 646 1236 616 1202 q 677 1343 676 1270 l 900 1343 z "},"К":{"ha":972,"x_min":104,"x_max":995,"o":"m 995 0 l 692 0 l 422 408 l 358 408 l 358 0 l 104 0 l 104 1010 l 358 1010 l 358 598 q 447 625 418 601 q 517 729 477 648 q 544 785 529 753 q 571 842 559 818 q 679 973 615 934 q 846 1012 742 1012 q 902 1011 880 1012 q 937 1010 924 1010 l 937 793 l 878 793 q 803 767 835 793 q 737 660 770 740 q 687 563 711 596 q 644 519 664 530 l 995 0 z "},"Л":{"ha":1078,"x_min":2,"x_max":974,"o":"m 974 0 l 720 0 l 720 817 l 465 817 q 460 707 463 758 q 455 610 458 656 q 431 381 448 477 q 392 224 414 286 q 344 122 368 159 q 298 63 319 85 q 216 12 265 31 q 120 -7 168 -7 q 50 -4 88 -7 q 2 0 12 -1 l 2 223 l 12 223 q 25 222 18 222 q 41 221 31 221 q 85 227 58 221 q 125 245 111 232 q 192 388 174 291 q 219 667 210 484 q 224 817 223 750 q 229 1010 225 883 l 974 1010 l 974 0 z "},"М":{"ha":1240,"x_min":104,"x_max":1136,"o":"m 1136 0 l 884 0 l 884 669 l 700 237 l 527 237 l 343 669 l 343 0 l 104 0 l 104 1010 l 397 1010 l 621 511 l 844 1010 l 1136 1010 l 1136 0 z "},"Н":{"ha":1061,"x_min":104,"x_max":957,"o":"m 957 0 l 703 0 l 703 448 l 358 448 l 358 0 l 104 0 l 104 1010 l 358 1010 l 358 640 l 703 640 l 703 1010 l 957 1010 l 957 0 z "},"О":{"ha":1069,"x_min":45,"x_max":1024,"o":"m 1024 505 q 893 119 1024 260 q 534 -21 762 -21 q 176 121 306 -21 q 45 505 45 263 q 176 889 45 748 q 534 1031 306 1031 q 893 890 762 1031 q 1024 505 1024 749 m 762 505 q 744 659 762 595 q 694 763 725 722 q 620 822 661 804 q 535 840 579 840 q 450 824 488 840 q 377 764 412 807 q 327 660 346 725 q 307 505 307 595 q 326 350 307 412 q 376 248 344 289 q 450 188 408 205 q 535 170 491 170 q 622 189 580 170 q 694 249 664 208 q 745 352 727 293 q 762 505 762 410 z "},"П":{"ha":1061,"x_min":104,"x_max":957,"o":"m 957 0 l 703 0 l 703 817 l 358 817 l 358 0 l 104 0 l 104 1010 l 957 1010 l 957 0 z "},"Р":{"ha":913,"x_min":104,"x_max":882,"o":"m 882 691 q 859 557 882 621 q 795 450 837 493 q 738 401 769 424 q 670 363 707 379 q 589 339 633 348 q 491 330 545 330 l 358 330 l 358 0 l 104 0 l 104 1010 l 496 1010 q 647 994 584 1010 q 762 943 711 978 q 850 842 819 905 q 882 691 882 779 m 621 685 q 601 759 621 728 q 552 801 581 789 q 483 819 516 817 q 394 821 450 821 l 358 821 l 358 519 l 376 519 q 444 519 412 519 q 499 524 475 520 q 542 537 519 528 q 577 559 565 547 q 612 612 603 585 q 621 685 621 639 z "},"С":{"ha":927,"x_min":45,"x_max":882,"o":"m 540 -20 q 179 118 313 -20 q 45 504 45 255 q 179 887 45 744 q 541 1029 313 1029 q 649 1023 601 1029 q 741 1004 697 1016 q 817 976 776 994 q 882 945 857 958 l 882 705 l 857 705 q 810 744 838 721 q 747 788 783 766 q 670 825 712 810 q 581 840 627 840 q 480 823 526 840 q 393 763 435 806 q 331 659 355 724 q 307 503 307 593 q 332 345 307 409 q 398 241 357 281 q 486 186 437 203 q 583 170 534 170 q 678 186 633 170 q 755 223 724 203 q 814 266 789 244 q 859 304 840 288 l 882 304 l 882 67 q 818 38 854 54 q 743 9 781 21 q 654 -12 695 -5 q 540 -20 612 -20 z "},"Т":{"ha":850,"x_min":0,"x_max":850,"o":"m 298 0 l 298 817 l 0 817 l 0 1010 l 850 1010 l 850 817 l 552 817 l 552 0 l 298 0 z "},"У":{"ha":929,"x_min":1,"x_max":939,"o":"m 939 1010 l 602 202 q 535 91 572 132 q 457 29 498 50 q 376 1 416 8 q 290 -6 335 -6 q 181 -4 243 -6 q 98 0 119 -2 l 98 214 l 114 214 q 133 211 120 213 q 165 207 146 209 q 201 204 182 205 q 235 203 220 203 q 321 214 281 203 q 375 252 361 225 l 1 1010 l 275 1010 l 492 536 l 675 1010 l 939 1010 z "}}}
